<svg id="Add_A_Person" data-name="Add A Person" xmlns="http://www.w3.org/2000/svg" viewBox="0 0 280 240"><defs><style>.cls-1{fill:#00c9a2;}.cls-2{fill:#e5e5e5;}.cls-3{fill:#d6d6d6;}.cls-4{fill:#f22f66;}.cls-5{fill:#e2205c;}.cls-6{fill:#fff;}</style></defs><title>Add A Person</title><path class="cls-1" d="M224,128A112.08,112.08,0,0,1,83.82,236.42h0A112,112,0,1,1,224,128Z" /><path class="cls-2" d="M112,72.51C88.2,72.51,68.9,93.9,68.9,120.28a50.59,50.59,0,0,0,11.1,32l64-64C136.11,78.6,124.7,72.51,112,72.51Z" /><path class="cls-3" d="M80,152.28c7.89,9.68,19.3,15.77,32,15.77,23.81,0,43.11-21.39,43.11-47.77a50.59,50.59,0,0,0-11.1-32Z" /><path class="cls-3" d="M136.12,175.89c-4.09,0-13.58-7.52-10.91-11.27H98.7c2.67,3.76-6.82,11.27-10.91,11.27L112,186.66Z" /><path class="cls-4" d="M142.41,177.82l-58.6,58.6A111.56,111.56,0,0,1,42.08,215.5C51.3,195.37,69.75,180,92.3,174.23a36.47,36.47,0,0,0,19.7,5.86,37.11,37.11,0,0,0,19.69-5.85A78.83,78.83,0,0,1,142.41,177.82Z" /><path class="cls-5" d="M181.92,215.5a112.2,112.2,0,0,1-98.1,20.92l58.6-58.61A75,75,0,0,1,181.92,215.5Z" /><ellipse class="cls-6" cx="224.5" cy="56" rx="55.5" ry="56" /><rect class="cls-1" x="220.5" y="38" width="8" height="36" /><rect class="cls-1" x="220.5" y="38" width="8" height="36" transform="translate(168.5 280.5) rotate(-90)" /></svg>
