<svg xmlns="http://www.w3.org/2000/svg" viewBox="0 0 64 100"><defs><style>.cls-1{fill:#2d2955;}.cls-2{fill:#fff;}</style></defs><title>Next Arrow</title><g id="Next_Arrow" data-name="Next Arrow"><rect class="cls-1" width="64" height="100" /><circle class="cls-2" cx="34.34" cy="52.02" r="4" transform="translate(-26.72 39.52) rotate(-45)" /><rect class="cls-2" x="43.76" y="19.63" width="8" height="37.94" transform="translate(54.23 99.67) rotate(-135)" /><ellipse class="cls-2" cx="34.28" cy="3.96" rx="4" ry="3.91" transform="translate(7.24 25.4) rotate(-45)" /><rect class="cls-2" x="43.73" y="-1.61" width="8" height="38.03" transform="translate(93.78 -4.04) rotate(135)" /><circle class="cls-2" cx="4" cy="28.01" r="4" /><rect class="cls-2" x="4" y="24.01" width="52.68" height="8" transform="translate(60.68 56.02) rotate(-180)" /><path class="cls-2" d="M12.87,86.08a.56.56,0,0,1,.15.4v12.8a.6.6,0,0,1-.62.64.64.64,0,0,1-.27-.06.71.71,0,0,1-.21-.14L3.34,88.16V99.38a.5.5,0,0,1-.17.38.55.55,0,0,1-.39.16.54.54,0,0,1-.4-.16.52.52,0,0,1-.16-.38V86.52a.57.57,0,0,1,.58-.6.56.56,0,0,1,.48.22L11.9,97.76V86.48a.55.55,0,0,1,.56-.56A.54.54,0,0,1,12.87,86.08Z" /><path class="cls-2" d="M29.15,98.92a.59.59,0,0,1,.17.42.55.55,0,0,1-.17.42.6.6,0,0,1-.43.16H21.38a.58.58,0,0,1-.6-.6V86.52a.58.58,0,0,1,.6-.6h7.34a.58.58,0,0,1,.6.6.55.55,0,0,1-.17.42.6.6,0,0,1-.43.16H22v5h5.78a.58.58,0,0,1,.6.6.55.55,0,0,1-.17.42.6.6,0,0,1-.43.16H22v5.44h6.68A.57.57,0,0,1,29.15,98.92Z" /><path class="cls-2" d="M45.56,99a.65.65,0,0,1,.14.36.58.58,0,0,1-.19.45.63.63,0,0,1-.43.17.56.56,0,0,1-.48-.26l-4.32-5.86L36,99.72a.55.55,0,0,1-.48.28.5.5,0,0,1-.39-.17.55.55,0,0,1-.15-.37.7.7,0,0,1,.14-.4l4.5-6.12-4.52-6.12a.53.53,0,0,1-.14-.36.56.56,0,0,1,.19-.42.61.61,0,0,1,.43-.18.62.62,0,0,1,.5.24L40.36,92l4.28-5.84a.63.63,0,0,1,.48-.26.6.6,0,0,1,.41.15.48.48,0,0,1,.17.37.74.74,0,0,1-.14.38l-4.5,6.14Z" /><path class="cls-2" d="M61.61,86.08a.55.55,0,0,1,.17.42.52.52,0,0,1-.17.41.63.63,0,0,1-.43.15H57V99.32a.57.57,0,0,1-.18.43.62.62,0,0,1-.44.17.61.61,0,0,1-.45-.17.58.58,0,0,1-.17-.43V87.06H51.66a.6.6,0,0,1-.43-.16.55.55,0,0,1-.17-.42.52.52,0,0,1,.17-.4.6.6,0,0,1,.43-.16h9.52A.6.6,0,0,1,61.61,86.08Z" /></g></svg>