<svg xmlns="http://www.w3.org/2000/svg" viewBox="0 0 64 100"><defs><style>.cls-1{fill:#2d2955;}.cls-2{fill:#fff;}</style></defs><title>Back Arrow</title><g id="Back_Arrow" data-name="Back Arrow"><rect class="cls-1" width="64" height="100"/><path class="cls-2" d="M10.59,93.56a4.08,4.08,0,0,1-.45,5.27,4.66,4.66,0,0,1-3,1H1.75a.58.58,0,0,1-.6-.6V86.4a.58.58,0,0,1,.6-.6h5.3a3.62,3.62,0,0,1,2.63.92,3.35,3.35,0,0,1,.95,2.52,3.53,3.53,0,0,1-.52,1.9,3,3,0,0,1-1.48,1.22A3.66,3.66,0,0,1,10.59,93.56Zm-1.89-6A2.49,2.49,0,0,0,6.89,87H2.43v5H6.89a2.48,2.48,0,0,0,1.77-.7,2.6,2.6,0,0,0,.69-1.94A2.3,2.3,0,0,0,8.7,87.61Zm.54,10.33a2.48,2.48,0,0,0,.83-2,2.45,2.45,0,0,0-.85-2.06A3.47,3.47,0,0,0,7,93.18H2.43v5.44H7.07A3.31,3.31,0,0,0,9.24,97.94Z"/><path class="cls-2" d="M28.65,99.24a.54.54,0,0,1-.18.42.61.61,0,0,1-.42.16.57.57,0,0,1-.35-.11.7.7,0,0,1-.23-.29L26,95.76h-6.5L18,99.42a.55.55,0,0,1-.54.4.57.57,0,0,1-.42-.14.58.58,0,0,1-.16-.38v-.06a.6.6,0,0,1,0-.18l5.28-12.92a.59.59,0,0,1,.6-.4.58.58,0,0,1,.35.11.71.71,0,0,1,.23.29L28.61,99A1.08,1.08,0,0,1,28.65,99.24Zm-8.72-4.66h5.56l-2.8-6.84Z"/><path class="cls-2" d="M45.63,87.34a.77.77,0,0,1-.14.4A.57.57,0,0,1,45,88a.59.59,0,0,1-.32-.1,6.21,6.21,0,0,0-3.5-1.06,5.74,5.74,0,0,0-2.93.76,5.42,5.42,0,0,0-2.06,2.13,6.87,6.87,0,0,0,0,6.26,5.41,5.41,0,0,0,2.07,2.12,5.75,5.75,0,0,0,2.91.75,6.2,6.2,0,0,0,3.48-1,.63.63,0,0,1,.34-.1.55.55,0,0,1,.46.24.56.56,0,0,1,.14.38.52.52,0,0,1-.28.48,7.31,7.31,0,0,1-1.92.87,7.55,7.55,0,0,1-2.22.35,7,7,0,0,1-3.51-.91,6.76,6.76,0,0,1-2.56-2.55,7.74,7.74,0,0,1,0-7.41,6.84,6.84,0,0,1,2.54-2.58,6.91,6.91,0,0,1,3.54-.93,7.62,7.62,0,0,1,2.19.32,7,7,0,0,1,1.93.9A.56.56,0,0,1,45.63,87.34Z"/><path class="cls-2" d="M62.85,99.24a.57.57,0,0,1-.21.47.73.73,0,0,1-.47.17.55.55,0,0,1-.44-.22l-5.58-7L53.43,95.2v4a.66.66,0,0,1-.2.45.62.62,0,0,1-.44.17.58.58,0,0,1-.62-.62V86.42a.59.59,0,0,1,.18-.45.64.64,0,0,1,.46-.17.58.58,0,0,1,.62.62v7.26L61.51,86a.57.57,0,0,1,.44-.2.54.54,0,0,1,.41.18.57.57,0,0,1,0,.82l-5.24,4.9,5.6,7.08A.72.72,0,0,1,62.85,99.24Z"/><circle class="cls-2" cx="29.66" cy="52.02" r="4" transform="translate(-28.1 36.21) rotate(-45)"/><rect class="cls-2" x="12.24" y="19.63" width="8" height="37.94" transform="translate(-22.54 22.79) rotate(-45)"/><ellipse class="cls-2" cx="29.72" cy="3.96" rx="3.91" ry="4" transform="translate(5.91 22.17) rotate(-45)"/><rect class="cls-2" x="12.27" y="-1.61" width="8" height="38.03" transform="translate(17.07 -6.41) rotate(45)"/><circle class="cls-2" cx="60" cy="28.01" r="4"/><rect class="cls-2" x="7.32" y="24.01" width="52.68" height="8"/></g></svg>