<svg id="Add_A_Person" data-name="Add A Person" xmlns="http://www.w3.org/2000/svg" viewBox="0 0 224 224"><defs><style>.cls-1{fill:none;}.cls-2{fill:#fff;}</style></defs><title>Artboard 71</title><path class="cls-1" d="M224,112A112.08,112.08,0,0,1,83.82,220.42h0A112,112,0,1,1,224,112Z"/><circle class="cls-2" cx="143.17" cy="89.49" r="5.19"/><rect class="cls-2" x="120.56" y="47.45" width="10.38" height="49.25" transform="translate(265.64 34.13) rotate(135)"/><ellipse class="cls-2" cx="80.78" cy="89.58" rx="5.08" ry="5.19" transform="translate(-39.68 83.35) rotate(-45)"/><rect class="cls-2" x="93.04" y="47.44" width="10.38" height="49.37" transform="translate(79.77 -48.34) rotate(45)"/><circle class="cls-2" cx="112" cy="128.88" r="5.19"/><rect class="cls-2" x="77.81" y="89.5" width="68.38" height="10.38" transform="translate(206.69 -17.31) rotate(90)"/><path class="cls-2" d="M84.91,164.58a5.13,5.13,0,0,1-.57,6.67,5.93,5.93,0,0,1-3.8,1.22H73.73a.73.73,0,0,1-.54-.21.74.74,0,0,1-.22-.55V155.52a.75.75,0,0,1,.76-.76h6.7a4.57,4.57,0,0,1,3.33,1.17,4.21,4.21,0,0,1,1.2,3.18,4.55,4.55,0,0,1-.65,2.41,3.77,3.77,0,0,1-1.88,1.54A4.57,4.57,0,0,1,84.91,164.58Zm-2.39-7.53a3.16,3.16,0,0,0-2.29-.8H74.59v6.33h5.64a3.13,3.13,0,0,0,2.24-.89,3.29,3.29,0,0,0,.88-2.45A2.9,2.9,0,0,0,82.52,157.05Zm.69,13.07a3.69,3.69,0,0,0,0-5.19,4.43,4.43,0,0,0-2.77-.83H74.59V171h5.87A4.23,4.23,0,0,0,83.21,170.12Z"/><path class="cls-2" d="M107.76,171.77a.67.67,0,0,1-.23.53.79.79,0,0,1-.53.2.74.74,0,0,1-.44-.14.89.89,0,0,1-.29-.37l-1.9-4.63H96.15L94.28,172a.72.72,0,0,1-.69.51.72.72,0,0,1-.53-.18.75.75,0,0,1-.2-.48v-.07a1.13,1.13,0,0,1,0-.23l6.68-16.35a.75.75,0,0,1,.76-.5.77.77,0,0,1,.45.13,1.06,1.06,0,0,1,.29.37l6.65,16.27A1.73,1.73,0,0,1,107.76,171.77Zm-11-5.9h7l-3.54-8.65Z"/><path class="cls-2" d="M129.24,156.71a1.06,1.06,0,0,1-.17.51.75.75,0,0,1-.59.27.77.77,0,0,1-.4-.12,7.82,7.82,0,0,0-4.43-1.34,7.3,7.3,0,0,0-3.71,1,6.87,6.87,0,0,0-2.6,2.69,8.69,8.69,0,0,0,0,7.92,6.82,6.82,0,0,0,2.62,2.68,7.18,7.18,0,0,0,3.68.95,7.81,7.81,0,0,0,4.4-1.31.77.77,0,0,1,.43-.13.72.72,0,0,1,.59.3.77.77,0,0,1,.17.49.63.63,0,0,1-.35.6,9.13,9.13,0,0,1-2.43,1.1,9.41,9.41,0,0,1-2.81.45,8.86,8.86,0,0,1-4.44-1.16,8.49,8.49,0,0,1-3.24-3.22,9.8,9.8,0,0,1,0-9.38,8.59,8.59,0,0,1,3.21-3.26,8.82,8.82,0,0,1,4.48-1.18,9.58,9.58,0,0,1,2.77.41,8.82,8.82,0,0,1,2.44,1.14A.69.69,0,0,1,129.24,156.71Z"/><path class="cls-2" d="M151,171.77a.71.71,0,0,1-.27.59.91.91,0,0,1-.59.21.71.71,0,0,1-.56-.27l-7.06-8.89-3.44,3.24v5a.88.88,0,0,1-.25.57.78.78,0,0,1-1.34-.57V155.55a.71.71,0,0,1,.23-.57.79.79,0,0,1,1.36.57v9.18l10.22-9.66a.74.74,0,0,1,.56-.26.7.7,0,0,1,.52.23.74.74,0,0,1,0,1l-6.63,6.2,7.08,8.95A.92.92,0,0,1,151,171.77Z"/></svg>