<svg id="Layer_2" data-name="Layer 2" xmlns="http://www.w3.org/2000/svg" xmlns:xlink="http://www.w3.org/1999/xlink" width="3771.82" height="2975.24" viewBox="0 0 3771.82 2975.24"><defs><style>.cls-1{fill:none;}.cls-2{opacity:0.46;}.cls-3{clip-path:url(#clip-path);}.cls-4{fill:#e3215b;}.cls-5{fill:#00b4e7;}.cls-6{fill:#00c9a2;}.cls-7{fill:#f2b700;}</style><clipPath id="clip-path" transform="translate(522.85 788.23)"><rect class="cls-1" width="2937.57" height="2077.4"/></clipPath></defs><g class="cls-2"><g class="cls-3"><path class="cls-4" d="M-121.87-719.38c110.18,148.2,534,632,616.08,686.47,32.7,21.73,64.12,41.27,98.2,59.48C692.41,80,747.46-3.8,837.67,88.91c115.89,119.12,188,10.2,275.62,39.37C1274.48,182,1341,321.78,1423.5,316c54-3.79-123.06-378.86-215.21-436.12-276-171.51-24-168.45-406.26-315.86C407.91-588-282.38-935.32-121.87-719.38Z" transform="translate(522.85 788.23)"/><path class="cls-5" d="M3114.21,1897.18c-29.94-60.56-108-265.42-171.73-346-97.73-123.67-209.87-58.42-255.78-124.7-149.59-216-212.33-212.61-327-293.33-117-82.38-136.8-227.22-319.88-386.24-68.16-59.2-289.66,92-404-8.49-97.71-85.86,8.42-158.71-95.06-246.58-105-89.15-85.24-94.94-110.45-98.76-94.78-14.51,29.63,184-93.69,124.92-108.07-51.68-272.55,93.41-191.7,176.31,128.43,131.75,404.55,114.5,613.89,336.11,359.73,380.79,408.26,390.67,481.29,491.8,152.22,210.84,135.61,310.16,314.51,445.73,139.58,105.8,388,216.81,481.49,219,126.25,3.08,164.68-115,78.11-289.77Z" transform="translate(522.85 788.23)"/><path class="cls-6" d="M1695.35,238.48c186.75-70.72,561.39-71.59,681.67-33.23,57.45,18.37,39.39,37.77,61.32,75.06,31.92,54.26,101,65.56,422.47,179.48,284.8,100.91,322.45,124.58,349.41,153.42,53.65,57.37,39.05,107.57,29.26,138.24-16.59,51.91-40.76,127.57-157.69,148.63-103.4,18.65-266.09-7.81-267.34-46-.81-24.55,65.79-36.72,58.22-61.23-6.63-21.58-70.8-15.82-155.81-54.45-42.85-19.49-47.47-26.77-84.23-32.27-85.48-12.8-160.61,11.75-261.06,6.55-122.72-6.34-195.18-52.49-164.64-95.46,20.7-29.24,74.78-36.69,79.73-64.13,5-27.76-44.17-54.18-124.34-55.64-51.82-.89-69.32,9.43-139.92,14-118.9,7.78-250.21-9.76-260.56-41.79-8.38-25.88,66.51-49.06,33.94-63.23-22.17-9.64-66.81-3.28-104.92-7.24-106.24-11.1-155.95-100.08,4.49-160.78Z" transform="translate(522.85 788.23)"/><path class="cls-7" d="M1185.69,377c-8.46-9-22.29-15.63-35.77-21.61a371.12,371.12,0,0,0-80.26-25.59c-27.54-5.36-60.48-5.08-92.51-3.69-22.69,1-45.75,2.64-67.89,2.5-5.59-.36-11-.9-16.28-1.67l-15.77-5.3c-11.49-3.86-26.32-5-42-2.82-14.93-3.75-32.78-4.84-50.69-4.39-29.95.74-62.08,7.75-93.19,12.47a525,525,0,0,1-66.22,3.47,396,396,0,0,1-60.1-7.58l-.47-.13A128.51,128.51,0,0,0,544.83,305c-19.21-14-41.69-26.79-74-30.79a258.34,258.34,0,0,0-67.93.15c-20.27,2.58-41.35,8-61.63,13.33-11.5,3-23,6.26-34.46,9.17-7.27,1.44-14.47,2.59-21.65,3.41-8.11.25-16,.08-23.66-.43-20.41-2.75-38.89-7.59-56.5-13.13-19.62-6.57-38.89-13.46-59.39-19.29C123,261,98.39,257,71.47,255.24c-16.38-1.05-33.51.08-51.16,1.49a331.48,331.48,0,0,0-38.64,5.49,696.38,696.38,0,0,0-96.57,26.67c-60,21.35-120,47.06-167.27,80.92a343.43,343.43,0,0,0-35.9,29.6c-10.64,10.08-18.72,20.51-26.49,31a104.43,104.43,0,0,0-12.39,21.11c-4.36,10.39-8.47,21-8.87,31-.45,11,.34,21.94,5.5,31.37a96.68,96.68,0,0,0,22.92,28.58c3.24,2.71,6.62,5.35,10,8,2,8.77,1.22,18.32-2.51,28.11A81.43,81.43,0,0,1-339.8,597c-.75,1-1.59,2.1-2.48,3.15l-30.41,22.53c-17.83,7.31-35.47,14.83-51.7,23.93-26.19,14.68-50.22,30.63-66.47,49.45-15.53,18-24.62,34.6-29.5,52.68a74.67,74.67,0,0,0,.92,41.41c2.46,8,7.14,15.32,11.8,22.56a60.64,60.64,0,0,0,10.83,12.44c24.62,21.82,63,36.31,107.66,42.84,41.18,6,85.72,7.55,132.21,5.17a1141,1141,0,0,0,139.83-15.39A1352.18,1352.18,0,0,0,26.31,824.3c47.53-13.87,94-30.85,139.27-49.49,29.94-12.32,59.12-25.78,87.16-40.24l7.49-2.44c56.61-18.69,110.71-41.6,159.75-69.21,20.32-7.62,40.81-14.9,61.66-21.31,30.85-8.31,61.44-13.59,92.23-17.85,34.53-4.55,69-9,103.79-15,33.64-5.77,67.38-12.54,101.07-20C846,573.88,913,556.29,979.85,538.17q25.21-6.84,50.42-13.75c21.63-5.92,43.8-11.59,64.77-19.49,46.62-17.53,90.72-46.78,102.38-77.78a63.75,63.75,0,0,0,3.61-16.24,20.9,20.9,0,0,0-.26-5.75c-2.12-12.12-6.14-18.57-15.08-28.12Z" transform="translate(522.85 788.23)"/><path class="cls-7" d="M450.29,185.16c-18-8-47-2.89-70.39,8-4.65,2.17-9.19,4.46-13.88,6.58-2.47,1.13-5,2.22-7.57,3.21l-1.91.73c-.94.21-2.71.66-3.14.76s-1.43.27-2.32.44c-2.05.18-4.11.45-6.15.55h-2.38c-2.57-.09-5.08-.27-7.55-.51-4.46-.44-8.75-1.09-13-1.83-1.06-.18-2.1-.38-3.16-.57h-.1l-1.63-.32-3.88-.78c-10.22-2-20.58-3.93-32.26-4.15-25.58-.5-53.86,5.61-74.55,21.54-16.13,12.42-21.59,28-16.28,39.3,6.29,13.38,28.81,16.63,52.14,15.95,24.53-.72,50.69-3.85,76.13-7.42q7.89-1.11,15.78-2.35a462.78,462.78,0,0,0,85.46-13.92c10.65-2.77,20.52-9.53,22.66-16.06a68.67,68.67,0,0,0,8.69-6.13c9.56-8,14.15-17,14.25-25.11s-6-14-15-17.91Zm-36.44,32-.16.06c-.62.16-1.39.4-1.94.57-.27-.28.3-.93,2.37-.77Z" transform="translate(522.85 788.23)"/><path class="cls-7" d="M928.65,270.28c-14.1-7.21-39.28-4.07-58.69,5.86-6.14,3.14-8.32,8.44-5.62,11.39a8.61,8.61,0,0,0,5.13,2.5c2.62,1.49,6.86,1.89,11.52,1a34,34,0,0,1,9.07-.35,13.89,13.89,0,0,1,4,.7,27.58,27.58,0,0,1,4.5,1.66c.06,0,.61.37.8.5a17.24,17.24,0,0,1,1.63,1.17c1.67,1.35,1.09.66,1.93,2,.27.45,1.18,2.64,1.2,2.46a10.63,10.63,0,0,1,.12,2.11c0,.19-.33,1.91-.1,1-1,3.84,1,7.1,6.86,7.76,5.08.57,13.19-1.44,17-5,13.66-12.88,15-27.46.7-34.76Z" transform="translate(522.85 788.23)"/></g></g></svg>