<?xml version="1.0" encoding="utf-8"?>
<!-- Generator: Adobe Illustrator 23.0.3, SVG Export Plug-In . SVG Version: 6.00 Build 0)  -->
<svg version="1.1" id="Layer_1" xmlns="http://www.w3.org/2000/svg" xmlns:xlink="http://www.w3.org/1999/xlink" x="0px" y="0px"
	 viewBox="0 0 2937.6 2077.4" style="enable-background:new 0 0 2937.6 2077.4;" xml:space="preserve">
<style type="text/css">
	.st0{opacity:0;}
	.st1{fill:#00B4E7;}
	.st2{fill:none;}
	.st3{clip-path:url(#SVGID_2_);fill:#E3215B;}
	.st4{clip-path:url(#SVGID_2_);fill:#00B4E7;}
	.st5{clip-path:url(#SVGID_2_);fill:#F2B700;}
	.st6{clip-path:url(#SVGID_2_);fill:#00C9A2;}
	.st7{clip-path:url(#SVGID_2_);}
	.st8{fill:#F2B700;}
</style>
<title>main-background-2</title>
<g class="st0">
	<path class="st1" d="M3324.1,855.5c-4.8-11.4-15.6-22.3-26.2-32.6c-20.2-19.7-42.5-37-66.6-51.6c-24-14.5-55-25.6-85.6-35.3
		c-21.6-6.9-43.9-13.2-64.6-21c-5.1-2.2-10-4.6-14.7-7.2l-13-10.4c-9.5-7.6-23-13.8-38.5-17.1c-12.7-8.7-29.1-15.8-46.1-21.6
		c-28.4-9.6-61-14.1-91.8-20.3c-21.5-5.2-42.7-11.7-63.4-19.5c-18.6-7.9-36.6-17.2-53.8-27.8l-0.4-0.3c-3.3-8.2-7.5-16.1-12.4-23.4
		c-13.2-19.7-29.9-39.5-58.9-54.3c-20.2-10.5-41.6-18.3-63.8-23.2c-19.9-4.5-41.6-6.7-62.5-8.7c-11.8-1.1-23.7-2-35.5-3.2
		c-7.3-1.1-14.5-2.6-21.5-4.2c-7.7-2.5-15-5.4-22.1-8.5c-18.2-9.6-33.9-20.5-48.6-31.8c-16.2-12.9-31.9-26-49.1-38.5
		c-19-13.8-40.8-26-65.4-36.9c-15-6.6-31.5-11.5-48.6-16.2c-12.6-3.5-25.3-6.2-38.2-8.1c-33-5.1-66.4-7.8-99.9-8.2
		c-63.7-0.6-128.9,2.9-184.9,18.5c-15,4.2-29.6,9.3-43.9,15.5c-13.4,5.8-24.6,12.8-35.5,20c-6.9,4.4-13.3,9.7-18.9,15.6
		c-7.7,8.2-15.2,16.8-19,26c-4.2,10.1-7.2,20.7-5.6,31.3c1.8,11.9,5.1,23.2,11.7,34.7c2.1,3.7,4.4,7.3,6.7,10.9
		c-1.1,8.9-5.1,17.6-12,25.5c-4.6,5.3-9.8,10-15.6,13.9c-1.1,0.7-2.2,1.4-3.4,2.1l-36.3,10.7c-19.3,0.7-38.4,1.7-56.8,4.7
		c-29.6,4.8-57.7,11.5-79.4,23.6c-20.8,11.5-35,24-45.8,39.3c-8.1,11.5-12.7,25.1-13.4,39.2c-0.4,8.4,1.4,16.8,3.3,25.2
		c1.2,5.4,3.2,10.6,5.8,15.4c15.6,29,46.6,55.7,86.4,77.2c36.6,19.8,77.9,36.6,122.4,50.3c44.8,14,90.4,25.2,136.6,33.6
		c48.4,8.6,97.2,14.6,146.2,17.9c49.4,3.3,98.9,3.3,147.8,1.4c32.4-1.3,64.4-3.9,95.7-7.8l7.9,0.3c59.6,1.9,118.3-1,173.8-10.1
		c21.7-0.2,43.4,0,65.2,1.2c31.8,2.8,62.4,8.4,92.7,15c34,7.6,67.9,15.3,102.6,21.6c33.6,6.2,67.6,11.4,101.8,16
		c68.3,9.2,137.3,15.7,206.3,21.6c17.3,1.5,34.7,3,52.1,4.4c22.4,1.9,45.1,4.2,67.5,4c49.8-0.4,101.3-12.7,122.9-37.8
		c3.6-4.3,6.6-9,9-14c0.8-1.7,1.4-3.6,1.7-5.5C3330.8,875,3329.2,867.5,3324.1,855.5z"/>
	<path class="st1" d="M2699.5,422.4c-14.1-13.7-43.1-18.8-68.9-16.7c-5.1,0.4-10.2,1-15.3,1.4c-2.7,0.2-5.4,0.4-8.2,0.4h-2.1
		l-3.2-0.4c-0.4,0-1.4-0.2-2.3-0.4c-2-0.5-4-1-6-1.6l-0.4-0.1c-0.6-0.2-1.5-0.5-1.8-0.6c-2.4-1-4.7-2-6.9-3.1c-4-2-7.8-4-11.5-6.2
		l-2.8-1.6h-0.1l-1.4-0.9l-3.4-2.1c-8.9-5.4-18-10.8-28.9-15c-23.9-9.3-52.5-13.2-77.4-5.4c-19.4,6.1-29.9,18.9-28.8,31.3
		c1.3,14.7,21.3,25.5,43.5,32.9c23.3,7.8,48.9,13.8,74,19.2c5.2,1.1,10.4,2.2,15.6,3.2c27.8,8.1,56.2,13.5,85,16.3
		c11,1.1,22.6-1.9,26.8-7.3c3.5-0.7,6.9-1.6,10.3-2.8c11.7-4.2,19.1-11.1,22-18.7S2706.6,429.3,2699.5,422.4z M2654.3,439.9h-0.2
		c-0.6-0.1-1.4-0.1-2-0.1c-0.2-0.3,0.6-0.8,2.5,0.1L2654.3,439.9z"/>
	<path class="st1" d="M2787,498.8c-2.3-14.6-34.5-21.6-54-13.2c-11.6,5-13,14.9-4.4,22c1.4,1.2,3,2.2,4.6,3c0.9,0.9,1.9,1.7,3,2.4
		c9.7,6.1,26.7,6.2,37.4,2.2C2783,511.7,2788,505.2,2787,498.8z"/>
	<path class="st1" d="M3119.4,666.9c-10.8-11.6-35.5-17.3-57.1-14.7c-6.9,0.8-10.7,5.1-9.2,8.8c0.8,1.8,2.2,3.2,4,4.1
		c1.9,2.3,5.8,4.1,10.5,4.9c3,0.5,5.9,1.5,8.6,2.8c1.2,0.5,2.4,1.2,3.5,2c1.3,0.9,2.5,2,3.7,3.1c0,0.1,0.4,0.6,0.6,0.8
		c0.4,0.6,0.8,1.1,1.1,1.7c1.1,1.8,0.8,1,1.1,2.6c0.1,0.5,0.2,2.9,0.3,2.7c-0.1,0.7-0.3,1.4-0.6,2c-0.1,0.2-1,1.7-0.4,0.9
		c-2.3,3.3-1.5,7,3.8,9.6c4.6,2.3,12.9,3.2,17.7,1.1C3124.1,691.8,3130.3,678.6,3119.4,666.9z"/>
</g>
<rect x="286.9" y="-191.9" class="st2" width="2388" height="1668"/>
<g>
	<defs>
		<rect id="SVGID_1_" width="2937.6" height="2077.4"/>
	</defs>
	<clipPath id="SVGID_2_">
		<use xlink:href="#SVGID_1_"  style="overflow:visible;"/>
	</clipPath>
	<path class="st3" d="M-197.9-97.9C-46.5,73.8,520.5,621,623.4,675.7c41,21.8,80.2,41,122.1,57.9c123.1,49.7,170.9-71.2,289.8,31.8
		c152.7,132.4,215.5-24.8,320.3-4.4c192.7,37.6,293,207.1,385.7,182.8c60.7-15.9-206.7-471-321.5-527.2
		c-344-168.5-57-215.6-517.5-331C427.5-33.4-418.4-347.9-197.9-97.9z"/>
	<path class="st4" d="M3790.9,2396.2c-29.9-60.6-108.1-265.4-171.7-346c-97.7-123.7-209.9-58.4-255.8-124.7
		c-149.6-216-212.3-212.6-327-293.3c-117-82.4-136.8-227.2-319.9-386.2c-68.2-59.2-289.7,92-404-8.5
		c-97.7-85.9,8.4-158.7-95.1-246.6c-105-89.1-85.2-94.9-110.5-98.8c-94.8-14.5,29.6,184-93.7,124.9
		c-108.1-51.7-272.5,93.4-191.7,176.3c128.4,131.7,404.5,114.5,613.9,336.1c359.7,380.8,408.3,390.7,481.3,491.8
		c152.2,210.8,135.6,310.2,314.5,445.7c139.6,105.8,388,216.8,481.5,219C3839,2689,3877.4,2570.9,3790.9,2396.2z"/>
	<path class="st5" d="M2559.6,2610.3c47.7,14.9,89.8,28.7,152.4,77.6c96.2,75,196,197.7,239.2,251.2
		c101.2,125.4,148.4,205.3,173.6,191.8c22.5-12.1-3.6-81.9,14.9-124c26.9-61,121.1-3.1,198,100.4c65.8,88.5,68.6,142.6,135.8,237.4
		c68.2,96.2,100.3,89.9,197.3,162.3c52.5,39.2,227.5,169.8,270.9,299.2c38,113.4-30.3,210.4-92.2,248
		c-30.2,18.3-147.5,76.3-516.3-215.9c-315.5-250-340.3-380.1-544.6-487.8c-168.5-88.9-242.6-48.3-345.6-218
		c-80.4-132.5-144.2-336.7-142.9-450C2301.8,2529.5,2422,2567.1,2559.6,2610.3z"/>
	<path class="st6" d="M1448.4,1234.8c93.6-143.7,169.9-76.1,158,30c-4.3,38.1-20.1,80.3-15.4,104.1c6.9,34.8,45.5-33.3,69-19.6
		c29.1,17,18.1,149-14.9,263.4c-19.6,68-33.5,82.9-43.6,133.7c-15.7,78.6-0.4,132.3,27.7,133.4c27.9,1,46.7-50.2,79.7-64.2
		c48.5-20.6,78.1,60,58,181.3c-16.4,99.2-56.4,167.3-62.2,253.6c-2.5,37.1,3.6,43.2,13.5,89.2c19.5,91.3,0.2,152.7,19.9,163.8
		c22.3,12.6,48.5-49.8,72.3-43.8c37,9.4,28.1,174-12.3,271c-45.6,109.7-124.7,117.1-178.9,122.2c-32.1,3-84.2,6.5-128.8-58.2
		c-22.4-32.5-37.5-74.4-75.1-374.1c-42.5-338.4-38.8-408.3-85-451.1c-31.7-29.4-54.5-15.9-60.2-76
		C1258.5,1767.9,1339.5,1402.1,1448.4,1234.8z"/>
	<g class="st7">
		<path class="st8" d="M1191.4,1262.7c-31.2,34.9-59.2,65.5-126.4,106.4c-103.2,62.7-250.4,120.3-314.6,145.2
			c-150.2,58.2-239.5,81.7-236.8,103.8c2.5,19.7,74.9,11,105.7,32.6c44.7,31.3-42.3,95.4-163.9,138.3
			c-104,36.6-153.6,29.7-263.7,66.4c-111.7,37.2-118.1,63.5-219.2,127.3c-54.7,34.5-237.2,149.7-369.4,161.9
			c-115.9,10.7-177.6-59.2-188.3-114c-5.2-26.7-13.6-128.4,386.1-368.3c341.9-205.2,467.9-202.7,640.8-344.7
			c142.6-117.2,133.7-182,324.5-234.2c148.9-40.7,356-56.3,457.2-36.2C1359.9,1074.3,1281.3,1162.1,1191.4,1262.7z"/>
	</g>
</g>
</svg>
