<svg id="Layer_1" data-name="Layer 1" xmlns="http://www.w3.org/2000/svg" xmlns:xlink="http://www.w3.org/1999/xlink" viewBox="0 0 2937.57 2077.4"><defs><style>.cls-1{fill:none;}.cls-2{opacity:0;}.cls-3{fill:#00b4e7;}.cls-4{clip-path:url(#clip-path);}.cls-5{fill:#e3215b;}.cls-6{fill:#00c9a2;}</style><clipPath id="clip-path"><rect class="cls-1" width="2937.57" height="2077.4"/></clipPath></defs><title>main-background</title><g class="cls-2"><path class="cls-3" d="M3324.11,855.47c-4.84-11.4-15.56-22.34-26.17-32.59a371.1,371.1,0,0,0-66.57-51.62c-24-14.51-55-25.57-85.6-35.27-21.64-6.88-43.87-13.25-64.62-21-5.12-2.25-10-4.63-14.71-7.16l-13-10.4c-9.46-7.58-23-13.77-38.47-17.09-12.73-8.65-29.13-15.81-46.1-21.55-28.37-9.6-61-14.06-91.8-20.32A527.6,527.6,0,0,1,2813.7,619a393,393,0,0,1-53.78-27.78l-.39-.27a129.63,129.63,0,0,0-12.42-23.42c-13.24-19.71-29.94-39.49-58.86-54.35a259.31,259.31,0,0,0-63.84-23.2c-19.92-4.55-41.57-6.74-62.46-8.68-11.84-1.11-23.7-2-35.51-3.24q-11-1.71-21.5-4.24c-7.71-2.55-15-5.42-22.07-8.54-18.22-9.59-33.92-20.49-48.55-31.75-16.16-12.92-31.88-26-49.13-38.53-19-13.82-40.75-26-65.44-36.91-15-6.62-31.5-11.45-48.56-16.19a329.61,329.61,0,0,0-38.17-8.12,698.61,698.61,0,0,0-99.85-8.17c-63.68-.57-128.91,2.93-184.89,18.49a345.18,345.18,0,0,0-43.9,15.45c-13.45,5.81-24.63,12.83-35.53,20a103.37,103.37,0,0,0-18.93,15.59c-7.67,8.25-15.17,16.8-19,26-4.19,10.14-7.23,20.72-5.62,31.35,1.8,11.88,5.07,23.21,11.7,34.72,2.11,3.66,4.37,7.29,6.67,10.92-1.14,8.93-5.15,17.63-12,25.54a81.38,81.38,0,0,1-15.63,13.9c-1.07.73-2.22,1.43-3.41,2.11l-36.3,10.7c-19.26.74-38.41,1.73-56.77,4.7-29.65,4.78-57.69,11.49-79.43,23.58-20.76,11.54-35,24-45.81,39.33a74.49,74.49,0,0,0-13.37,39.2c-.45,8.39,1.42,16.84,3.32,25.24a60.42,60.42,0,0,0,5.83,15.42c15.61,29,46.63,55.74,86.37,77.25,36.6,19.8,77.89,36.56,122.37,50.3A1138.19,1138.19,0,0,0,1935.44,859a1355.06,1355.06,0,0,0,146.19,17.87c49.4,3.31,98.85,3.34,147.78,1.4,32.36-1.27,64.38-3.88,95.69-7.82l7.87.29c59.59,1.91,118.27-1,173.81-10.07,21.7-.17,43.44,0,65.23,1.18,31.82,2.81,62.36,8.36,92.74,15,34,7.6,67.9,15.26,102.62,21.62,33.57,6.15,67.57,11.4,101.77,16,68.27,9.15,137.26,15.67,206.26,21.64q26,2.25,52.07,4.42c22.35,1.88,45.11,4.17,67.52,4,49.81-.44,101.28-12.74,122.89-37.84a64.17,64.17,0,0,0,9-14,21.55,21.55,0,0,0,1.74-5.49C3330.77,875,3329.22,867.52,3324.11,855.47Z"/><path class="cls-3" d="M2699.51,422.43c-14.14-13.66-43.1-18.85-68.85-16.67-5.12.44-10.16,1-15.3,1.41-2.71.21-5.45.37-8.21.41h-2.05l-3.21-.37c-.35,0-1.43-.24-2.33-.38-2-.54-4-1-6-1.6l-.43-.13c-.61-.2-1.47-.5-1.83-.64-2.38-1-4.68-2-6.91-3.07-4-2-7.84-4-11.54-6.18l-2.77-1.62H2570l-1.42-.86-3.38-2.07c-8.89-5.43-18-10.76-28.86-15-23.85-9.26-52.5-13.25-77.41-5.4-19.42,6.12-29.9,18.86-28.8,31.3,1.3,14.73,21.34,25.53,43.48,32.9,23.28,7.76,48.92,13.82,74,19.21,5.19,1.12,10.4,2.18,15.63,3.23a462.8,462.8,0,0,0,85,16.3c11,1.06,22.55-1.89,26.8-7.28a68.94,68.94,0,0,0,10.27-2.78c11.72-4.23,19.12-11.09,22-18.68S2706.58,429.25,2699.51,422.43Zm-45.2,17.47h-.17c-.64-.07-1.45-.11-2-.14-.16-.35.6-.76,2.49.1Z"/><path class="cls-3" d="M2787,498.78c-2.27-14.63-34.5-21.6-54-13.21-11.6,5-13,14.94-4.41,22a25.27,25.27,0,0,0,4.58,3,16.13,16.13,0,0,0,3,2.4c9.68,6.07,26.73,6.22,37.44,2.24C2783,511.68,2788,505.17,2787,498.78Z"/></g><rect class="cls-1" x="286.92" y="-191.91" width="2388" height="1668"/><g class="cls-4"><path class="cls-5" d="M-44.86-117.27c110.18,148.2,534,632,616.08,686.47,32.7,21.73,64.12,41.27,98.2,59.48,100,53.43,155.05-30.37,245.26,62.34,115.89,119.12,188,10.2,275.62,39.37,161.19,53.7,227.74,193.5,310.21,187.71,54-3.79-123.06-378.86-215.21-436.12-276-171.51-24-168.45-406.26-315.86C484.92,14.12-205.37-333.21-44.86-117.27Z"/><path class="cls-3" d="M3640.43,2361.61c-29.94-60.56-108-265.42-171.73-346-97.73-123.67-209.87-58.42-255.78-124.7-149.59-216-212.33-212.61-327-293.33-117-82.38-136.8-227.22-319.88-386.24-68.16-59.2-289.66,92-404-8.49-97.71-85.86,8.42-158.71-95.06-246.58-105-89.15-85.24-94.94-110.45-98.76-94.78-14.51,29.63,184-93.69,124.92-108.07-51.68-272.55,93.41-191.7,176.31,128.43,131.75,404.55,114.5,613.89,336.11,359.73,380.79,408.26,390.67,481.29,491.8,152.22,210.84,135.61,310.16,314.51,445.73,139.58,105.8,388,216.81,481.49,219C3688.57,2654.46,3727,2536.33,3640.43,2361.61Z"/><path class="cls-6" d="M1269,1230.64c-7.44-171.37,93.93-160.75,146-67.49,18.66,33.47,30.4,77,48,93.58,25.86,24.35,17.65-53.61,44.74-56.11,33.52-3.11,101.39,110.66,141.09,223,23.59,66.7,21,86.86,42.24,134.13,32.93,73.11,76.59,107.89,100.13,92.35,23.27-15.36,8.81-68,27.52-98.55,27.46-45,98.43,3.41,152.62,113.7,44.37,90.27,51.41,169,96.86,242.51,19.54,31.62,28.06,33,62.86,64.7,69,62.91,89,124.15,111.44,121.74,25.51-2.7,10.45-68.71,33.33-77.64,35.57-13.89,124,125.21,147.61,227.59,26.72,115.77-33.29,167.8-74.46,203.5-24.33,21.09-64.71,54.29-138.58,27.59-37.13-13.41-73.73-38.69-278.7-260.67-231.41-250.59-269-309.6-331.45-317.55-42.92-5.46-53.63,18.78-93.15-26.78C1424.44,1774.81,1277.6,1430.15,1269,1230.64Z"/><g class="cls-2"><path class="cls-5" d="M-730.15,728.22C-516.86,838.42,246.9,1161,369.08,1177.6c48.7,6.6,94.59,11.39,142.41,13.08,140.31,5,143.22-125,299-68.36,200.21,72.79,204.55-96.48,315.91-112.8,204.89-30,366.8,95.47,449.74,41.13,54.3-35.57-378.37-373.12-512.95-387.1-403.13-41.86-135.91-183.61-635-136C-86.35,576.7-1040.91,567.66-730.15,728.22Z"/></g><g class="cls-2"><path class="cls-3" d="M3821.66,1979.09c-42.66-52.39-164.18-234.86-244.15-299.34-122.7-98.93-217.59-10.46-277.05-64.92-193.74-177.46-254.17-160.26-383.87-213.55-132.38-54.39-183.76-191.26-397.53-305.75-79.58-42.62-262,153.87-395.8,81.26-114.33-62.07-27-156.64-147.35-219.39-122.13-63.66-104.15-73.65-129.6-71.82-95.63,6.85,69.7,172.82-63.65,142.62-116.84-26.46-245.08,151.46-147.86,214.42,154.45,100,419.88,22,673.12,191.69,435.17,291.6,484.69,290.48,578.33,372.94,195.16,171.86,201,272.39,405.47,364.94,159.6,72.22,426.38,125.43,518.06,106.87C3933.52,2254,3944.79,2130.31,3821.66,1979.09Z"/></g><g class="cls-2"><path class="cls-3" d="M3250.16,533.88c-8.46-9-22.29-15.63-35.77-21.61a371.28,371.28,0,0,0-80.26-25.59c-27.54-5.36-60.48-5.08-92.51-3.69-22.69,1-45.75,2.64-67.89,2.5-5.59-.36-11-.9-16.28-1.67l-15.77-5.3c-11.49-3.86-26.32-5-42-2.82-14.93-3.75-32.78-4.84-50.69-4.39-29.95.74-62.08,7.75-93.19,12.47a525.13,525.13,0,0,1-66.22,3.47,395,395,0,0,1-60.1-7.58l-.47-.13a129.43,129.43,0,0,0-19.71-17.72c-19.21-14-41.69-26.79-74-30.79a258.73,258.73,0,0,0-67.93.15c-20.27,2.58-41.35,8-61.63,13.33-11.5,3-23,6.26-34.46,9.17-7.27,1.44-14.47,2.59-21.65,3.41-8.11.25-16,.08-23.66-.43-20.41-2.75-38.89-7.59-56.5-13.13-19.62-6.57-38.89-13.46-59.39-19.29-22.64-6.43-47.22-10.44-74.14-12.16-16.38-1.05-33.51.08-51.16,1.49a331.67,331.67,0,0,0-38.64,5.49,695.71,695.71,0,0,0-96.57,26.67c-60,21.35-120,47.06-167.27,80.92a344.19,344.19,0,0,0-35.9,29.6c-10.64,10.08-18.72,20.51-26.49,31a104.2,104.2,0,0,0-12.39,21.11c-4.36,10.39-8.47,21-8.87,31-.45,11,.34,21.94,5.5,31.37,5.77,10.54,12.74,20,22.92,28.58,3.24,2.71,6.62,5.35,10,8,2,8.77,1.22,18.32-2.51,28.11a81.58,81.58,0,0,1-9.89,18.43c-.75,1.05-1.59,2.1-2.48,3.15l-30.41,22.53c-17.83,7.31-35.47,14.83-51.7,23.93-26.19,14.68-50.22,30.63-66.47,49.45-15.53,18-24.62,34.6-29.5,52.68a74.59,74.59,0,0,0,.92,41.41c2.46,8,7.14,15.32,11.8,22.56A60.35,60.35,0,0,0,1567.66,982c24.62,21.82,63,36.31,107.66,42.84,41.18,6,85.72,7.55,132.21,5.17a1140.41,1140.41,0,0,0,139.83-15.39,1351.36,1351.36,0,0,0,143.42-33.48c47.53-13.87,94-30.85,139.27-49.49,29.94-12.32,59.12-25.78,87.16-40.24l7.49-2.44c56.61-18.69,110.71-41.6,159.75-69.21,20.32-7.62,40.81-14.9,61.66-21.31,30.85-8.31,61.44-13.59,92.23-17.85,34.53-4.55,69-9,103.79-15,33.64-5.77,67.38-12.54,101.07-20,67.25-14.88,134.28-32.47,201.12-50.59q25.21-6.84,50.42-13.75c21.63-5.92,43.8-11.59,64.77-19.49,46.62-17.53,90.72-46.78,102.38-77.78a64,64,0,0,0,3.61-16.24,21.13,21.13,0,0,0-.26-5.75C3263.12,549.88,3259.1,543.43,3250.16,533.88Z"/><path class="cls-3" d="M2514.76,342c-18-8-47-2.89-70.39,8-4.65,2.17-9.19,4.46-13.88,6.58-2.47,1.13-5,2.22-7.57,3.21l-1.91.73c-.94.21-2.71.66-3.14.76s-1.43.27-2.32.44c-2.05.18-4.11.45-6.15.55l-.45,0c-.64,0-1.55,0-1.93,0-2.57-.09-5.08-.27-7.55-.51-4.46-.44-8.75-1.09-13-1.83-1.06-.18-2.1-.38-3.16-.57l-.1,0-1.63-.32-3.88-.78c-10.22-2-20.58-3.93-32.26-4.15-25.58-.5-53.86,5.61-74.55,21.54-16.13,12.42-21.59,28-16.28,39.3,6.29,13.38,28.81,16.63,52.14,15.95,24.53-.72,50.69-3.85,76.13-7.42q7.89-1.11,15.78-2.35a462.12,462.12,0,0,0,85.46-13.92c10.65-2.77,20.52-9.53,22.66-16.06a68.25,68.25,0,0,0,8.69-6.13c9.56-8,14.15-17,14.25-25.11S2523.74,345.94,2514.76,342Zm-36.44,31.95-.16.06c-.62.16-1.39.4-1.94.57-.27-.28.3-.93,2.37-.77Z"/><path class="cls-3" d="M2623.16,383.59c-7.16-13-39.82-8.42-55.26,6.16-9.18,8.67-7.1,18.51,3.41,22.16a26.56,26.56,0,0,0,5.33,1.22,16.11,16.11,0,0,0,3.63,1.21c11.18,2.38,27.24-3.34,35.93-10.76C2623.82,397.08,2626.29,389.25,2623.16,383.59Z"/><path class="cls-3" d="M2993.12,427.12c-14.1-7.21-39.28-4.07-58.69,5.86-6.14,3.14-8.32,8.44-5.62,11.39a8.56,8.56,0,0,0,5.13,2.5c2.62,1.49,6.86,1.89,11.52,1a34.25,34.25,0,0,1,9.07-.35,14.12,14.12,0,0,1,3.95.7,28.36,28.36,0,0,1,4.5,1.66c.06.05.61.37.8.5a19.9,19.9,0,0,1,1.63,1.17c1.67,1.35,1.09.66,1.93,2,.27.45,1.18,2.64,1.2,2.46a10.55,10.55,0,0,1,.12,2.11c0,.19-.33,1.91-.1,1-1,3.84,1,7.1,6.86,7.76,5.08.57,13.19-1.44,17-5C3006.08,449,3007.4,434.42,2993.12,427.12Z"/></g><rect class="cls-1" x="251.97" y="133.19" width="2388" height="1668" transform="translate(-244.38 556.08) rotate(-20.11)"/><path class="cls-5" d="M802.66,1105.88v-.07S802.65,1105.82,802.66,1105.88Z"/><path class="cls-5" d="M865,1206.25l-.21-.3c1.33,2.35,1.37,2.29,1,1.65l-.78-1.31Z"/><path class="cls-5" d="M803.33,1107.5c-.16-.2-.32-.44-.49-.69-.09-.41-.16-.77-.18-.93v.58C801.71,1104.52,803.16,1106,803.33,1107.5Zm-4.75,6.2a3.78,3.78,0,0,0,1-.41c0,.08.06.06.34-.13h-.12l.47-.26.14-.11h.08l.29-.17H801l-.1.07.3-.07.5,0a3.59,3.59,0,0,1-1.5.5A3.92,3.92,0,0,1,798.58,1113.7ZM1013,1190.47c-.54.37-1.07.75-1.58,1.16a7.6,7.6,0,0,1,2.23-1.74Z"/><path class="cls-5" d="M800.5,1112.79l-.22.12-.35.25h.25a6.51,6.51,0,0,0,.7-.45Z"/><path class="cls-5" d="M920.86,1161.61a14.4,14.4,0,0,0-1.42-.71l.46.27Z"/><path class="cls-5" d="M941.48,1166.89l.38,0,.23,0c-2.05-.12-2.29,0-1.84,0l.38,0Z"/><path class="cls-5" d="M933.38,1166.14a3.17,3.17,0,0,0-2.51-.65l.76.25C932.39,1165.89,933.25,1166.11,933.38,1166.14Z"/><path class="cls-5" d="M1097.68,904.75c-2.25-1.85-2.72-2.06-2.39-1.7.78.53,1.54,1.07,2.27,1.63Z"/></g></svg>