<?xml version="1.0" encoding="utf-8"?>
<!-- Generator: Adobe Illustrator 23.0.3, SVG Export Plug-In . SVG Version: 6.00 Build 0)  -->
<svg version="1.1" id="Layer_1" xmlns="http://www.w3.org/2000/svg" xmlns:xlink="http://www.w3.org/1999/xlink" x="0px" y="0px"
	 viewBox="0 0 213.3 158" style="enable-background:new 0 0 213.3 158;" xml:space="preserve">
<style type="text/css">
	.st0{fill:#CE1E55;}
	.st1{fill:#E2215B;}
	.st2{fill:#079B7F;}
	.st3{fill:#00C9A2;}
	.st4{fill:#F2B700;}
	.st5{fill:#DAA727;}
	.st6{fill:#0FA3CF;}
	.st7{fill:#13B3E2;}
	.st8{clip-path:url(#SVGID_2_);}
	.st9{clip-path:url(#SVGID_4_);}
	.st10{fill:#38BB9C;}
	.st11{enable-background:new    ;}
	.st12{fill:#F2F5F5;}
</style>
<g>
	<title>NC-Mark</title>
	<g>
		<path class="st0" d="M60.2,53.6c0-15,12.2-27.2,27.2-27.2c7.2,0,14.1,2.9,19.2,8L68.1,72.8C63,67.7,60.1,60.8,60.2,53.6"/>
		<path class="st1" d="M87.3,53.6c10.6,10.7,10.5,27.9-0.2,38.5c-10.6,10.5-27.6,10.5-38.2,0L87.3,53.6z"/>
		<path class="st2" d="M68,138.6c-15,0-27.2-12.2-27.2-27.2c0-7.2,2.9-14.2,8-19.3l38.5,38.5C82.2,135.7,75.2,138.6,68,138.6"/>
		<path class="st3" d="M68.3,111.6c10.6-10.7,27.8-10.8,38.5-0.2s10.8,27.8,0.2,38.5c-0.1,0.1-0.2,0.2-0.2,0.2L68.3,111.6z"/>
		<path class="st4" d="M118.1,111.6c0-15,12.2-27.2,27.2-27.2c7.2,0,14.1,2.9,19.3,8l-38.5,38.5C121,125.7,118.1,118.8,118.1,111.6"
			/>
		<path class="st5" d="M145.3,111.6c10.6,10.6,10.6,27.8,0,38.5s-27.8,10.6-38.5,0L145.3,111.6z"/>
		<path class="st6" d="M145.3,45.9c15,0,27.2,12.2,27.2,27.2c0,7.2-2.9,14.1-8,19.3l-38.5-38.5C131.1,48.7,138.1,45.9,145.3,45.9"/>
		<path class="st7" d="M145.1,72.8c-10.6,10.7-27.8,10.8-38.5,0.2s-10.8-27.8-0.2-38.5c0.1-0.1,0.2-0.2,0.2-0.2L145.1,72.8z"/>
	</g>
	<g id="Alpha">
		<g id="AlphaTab">
			<g>
				<defs>
					<rect id="SVGID_1_" x="149.8" y="15.6" width="63.4" height="26"/>
				</defs>
				<clipPath id="SVGID_2_">
					<use xlink:href="#SVGID_1_"  style="overflow:visible;"/>
				</clipPath>
				<g class="st8">
					<g>
						<defs>
							<rect id="SVGID_3_" x="149.8" y="15.6" width="63.4" height="26"/>
						</defs>
						<clipPath id="SVGID_4_">
							<use xlink:href="#SVGID_3_"  style="overflow:visible;"/>
						</clipPath>
						<g class="st9">
							<path class="st10" d="M201.3,41.6h-39.5c-6.6,0-11.9-5.3-11.9-11.9c0,0,0,0,0,0v-2c0-6.6,5.3-12,11.9-12c0,0,0,0,0.1,0h39.5
								c6.6,0,11.9,5.3,11.9,11.9c0,0,0,0,0,0.1v2.1C213.3,36.2,208,41.6,201.3,41.6C201.4,41.7,201.4,41.7,201.3,41.6"/>
						</g>
					</g>
					<g class="st11">
						<path class="st12" d="M169.5,32.2c0,0.2-0.1,0.4-0.2,0.5c-0.1,0.1-0.3,0.2-0.5,0.2c-0.1,0-0.3,0-0.4-0.1s-0.2-0.2-0.3-0.4
							l-0.6-1.5h-3.6l-0.6,1.5c-0.1,0.2-0.1,0.3-0.3,0.4c-0.1,0.1-0.2,0.1-0.4,0.1c-0.2,0-0.4-0.1-0.5-0.2c-0.1-0.1-0.2-0.3-0.2-0.5
							c0-0.1,0-0.1,0-0.2l3-7.2c0.1-0.2,0.2-0.3,0.3-0.4c0.1-0.1,0.3-0.1,0.4-0.1c0.1,0,0.3,0,0.4,0.1s0.2,0.2,0.3,0.4l3,7
							C169.5,32.1,169.5,32.2,169.5,32.2z M164.5,29.6h2.4l-1.2-2.8L164.5,29.6z"/>
						<path class="st12" d="M175.7,31.7c0.1,0.1,0.2,0.3,0.2,0.5c0,0.2-0.1,0.4-0.2,0.5c-0.1,0.1-0.3,0.2-0.5,0.2h-3.9
							c-0.2,0-0.4-0.1-0.5-0.2c-0.1-0.1-0.2-0.3-0.2-0.5v-6.9c0-0.2,0.1-0.4,0.2-0.5c0.1-0.1,0.3-0.2,0.6-0.2c0.2,0,0.4,0.1,0.5,0.2
							c0.1,0.1,0.2,0.3,0.2,0.5v6.3h3.1C175.3,31.5,175.5,31.6,175.7,31.7z"/>
						<path class="st12" d="M181.9,24.9c0.4,0.2,0.7,0.6,0.9,1c0.2,0.4,0.3,0.9,0.3,1.3c0,0.5-0.1,0.9-0.3,1.3
							c-0.2,0.4-0.5,0.7-0.9,1s-0.8,0.4-1.2,0.4h-2.1v2.3c0,0.2-0.1,0.4-0.2,0.5s-0.3,0.2-0.5,0.2c-0.2,0-0.4-0.1-0.5-0.2
							s-0.2-0.3-0.2-0.5v-6.9c0-0.2,0.1-0.4,0.2-0.5c0.1-0.1,0.3-0.2,0.5-0.2h2.7C181.1,24.5,181.5,24.6,181.9,24.9z M181.2,28.3
							c0.1-0.1,0.3-0.3,0.4-0.5c0.1-0.2,0.1-0.4,0.1-0.6c0-0.2,0-0.4-0.1-0.6c-0.1-0.2-0.2-0.4-0.4-0.5c-0.1-0.1-0.3-0.2-0.5-0.2
							h-2.1v2.7h2.1C180.9,28.5,181,28.5,181.2,28.3z"/>
						<path class="st12" d="M191.1,24.7c0.1,0.1,0.2,0.3,0.2,0.5v6.9c0,0.2-0.1,0.4-0.2,0.5s-0.3,0.2-0.6,0.2
							c-0.2,0-0.4-0.1-0.5-0.2c-0.1-0.1-0.2-0.3-0.2-0.5v-2.8H186v2.8c0,0.2-0.1,0.4-0.2,0.5c-0.2,0.1-0.3,0.2-0.5,0.2
							c-0.2,0-0.4-0.1-0.5-0.2c-0.1-0.1-0.2-0.3-0.2-0.5v-6.9c0-0.2,0.1-0.4,0.2-0.5c0.1-0.1,0.3-0.2,0.6-0.2c0.2,0,0.4,0.1,0.5,0.2
							c0.1,0.1,0.2,0.3,0.2,0.5V28h3.8v-2.8c0-0.2,0.1-0.4,0.2-0.5c0.2-0.1,0.3-0.2,0.5-0.2C190.8,24.5,191,24.6,191.1,24.7z"/>
						<path class="st12" d="M199.8,32.2c0,0.2-0.1,0.4-0.2,0.5s-0.3,0.2-0.5,0.2c-0.1,0-0.3,0-0.4-0.1c-0.1-0.1-0.2-0.2-0.3-0.4
							l-0.6-1.5h-3.6l-0.6,1.5c-0.1,0.2-0.1,0.3-0.3,0.4S193.1,33,193,33c-0.2,0-0.4-0.1-0.5-0.2c-0.1-0.1-0.2-0.3-0.2-0.5
							c0-0.1,0-0.1,0-0.2l3-7.2c0.1-0.2,0.2-0.3,0.3-0.4s0.3-0.1,0.4-0.1c0.1,0,0.3,0,0.4,0.1s0.2,0.2,0.3,0.4l3,7
							C199.7,32.1,199.8,32.2,199.8,32.2z M194.8,29.6h2.4l-1.2-2.8L194.8,29.6z"/>
					</g>
				</g>
			</g>
		</g>
	</g>
</g>
</svg>
