<?xml version="1.0" encoding="utf-8"?>
<!-- Generator: Adobe Illustrator 23.0.3, SVG Export Plug-In . SVG Version: 6.00 Build 0)  -->
<svg version="1.1" id="Layer_1" xmlns="http://www.w3.org/2000/svg" xmlns:xlink="http://www.w3.org/1999/xlink" x="0px" y="0px"
	 viewBox="0 0 213.3 158" style="enable-background:new 0 0 213.3 158;" xml:space="preserve">
<style type="text/css">
	.st0{fill:#CE1E55;}
	.st1{fill:#E2215B;}
	.st2{fill:#079B7F;}
	.st3{fill:#00C9A2;}
	.st4{fill:#F2B700;}
	.st5{fill:#DAA727;}
	.st6{fill:#0FA3CF;}
	.st7{fill:#13B3E2;}
	.st8{fill:none;}
	.st9{clip-path:url(#SVGID_2_);}
	.st10{clip-path:url(#SVGID_4_);}
	.st11{fill:#5E65EA;}
	.st12{enable-background:new    ;}
	.st13{fill:#F2F5F5;}
</style>
<title>NC-Mark</title>
<g>
	<path class="st0" d="M60.2,38c0-15,12.2-27.2,27.2-27.2c7.2,0,14.1,2.9,19.2,8L68.1,57.3C63,52.2,60.1,45.3,60.2,38"/>
	<path class="st1" d="M87.3,38.1C97.9,48.8,97.8,66,87.1,76.6C76.5,87,59.4,87,48.8,76.6L87.3,38.1z"/>
	<path class="st2" d="M68,123c-15,0-27.2-12.2-27.2-27.2c0-7.2,2.9-14.2,8-19.3L87.3,115C82.2,120.1,75.2,123,68,123"/>
	<path class="st3" d="M68.3,96c10.6-10.7,27.8-10.8,38.5-0.2s10.8,27.8,0.2,38.5c-0.1,0.1-0.2,0.2-0.2,0.2L68.3,96z"/>
	<path class="st4" d="M118.1,96c0-15,12.2-27.2,27.2-27.2c7.2,0,14.1,2.9,19.3,8l-38.5,38.5C121,110.1,118.1,103.2,118.1,96"/>
	<path class="st5" d="M145.3,96c10.6,10.6,10.6,27.8,0,38.5s-27.8,10.6-38.5,0L145.3,96z"/>
	<path class="st6" d="M145.3,30.3c15,0,27.2,12.2,27.2,27.2c0,7.2-2.9,14.1-8,19.3l-38.5-38.5C131.1,33.2,138.1,30.3,145.3,30.3"/>
	<path class="st7" d="M145.1,57.3c-10.6,10.7-27.8,10.8-38.5,0.2S95.8,29.7,106.4,19c0.1-0.1,0.2-0.2,0.2-0.2L145.1,57.3z"/>
	<rect id="Frame" class="st8" width="213.3" height="158"/>
</g>
<g id="Beta">
	<g id="BetaTab">
		<g>
			<defs>
				<rect id="SVGID_1_" x="149.8" width="63.4" height="26"/>
			</defs>
			<clipPath id="SVGID_2_">
				<use xlink:href="#SVGID_1_"  style="overflow:visible;"/>
			</clipPath>
			<g class="st9">
				<g>
					<defs>
						<rect id="SVGID_3_" x="149.8" width="63.4" height="26"/>
					</defs>
					<clipPath id="SVGID_4_">
						<use xlink:href="#SVGID_3_"  style="overflow:visible;"/>
					</clipPath>
					<g class="st10">
						<path class="st11" d="M201.3,26h-39.5c-6.6,0-11.9-5.4-11.9-11.9V12c0-6.6,5.3-12,11.9-12h39.5c6.6,0,11.9,5.3,11.9,11.9
							c0,0,0,0,0,0.1v2.1C213.3,20.7,208,26.1,201.3,26c0,0.1,0,0.1,0,0.1"/>
					</g>
				</g>
				<g class="st12">
					<path class="st13" d="M173.9,13.5c0.3,0.3,0.4,0.8,0.4,1.3c0,1-0.3,1.6-0.8,2c-0.5,0.4-1.2,0.6-1.9,0.6h-3
						c-0.2,0-0.4-0.1-0.5-0.2c-0.1-0.1-0.2-0.3-0.2-0.5V9.7c0-0.2,0.1-0.4,0.2-0.5c0.1-0.1,0.3-0.2,0.5-0.2h3c1.5,0,2.3,0.7,2.3,2.1
						c0,0.4-0.1,0.7-0.3,1c-0.2,0.3-0.4,0.5-0.7,0.7C173.3,12.9,173.6,13.1,173.9,13.5z M172,10.6c-0.2-0.2-0.4-0.2-0.7-0.2h-2v1.9
						h2c0.2,0,0.5-0.1,0.6-0.2c0.2-0.2,0.3-0.4,0.3-0.6C172.3,11,172.2,10.8,172,10.6z M172.4,15.7c0.2-0.2,0.3-0.5,0.3-0.9
						c0-0.5-0.1-0.8-0.4-0.9c-0.2-0.1-0.6-0.2-0.9-0.2h-2.1V16h2.2C171.9,16,172.2,15.9,172.4,15.7z"/>
					<path class="st13" d="M180.9,16.2c0.1,0.1,0.2,0.3,0.2,0.5c0,0.2-0.1,0.4-0.2,0.5c-0.1,0.1-0.3,0.2-0.5,0.2h-4
						c-0.2,0-0.4-0.1-0.5-0.2c-0.1-0.1-0.2-0.3-0.2-0.5V9.7c0-0.2,0.1-0.4,0.2-0.5c0.1-0.1,0.3-0.2,0.5-0.2h4c0.2,0,0.4,0.1,0.5,0.2
						c0.1,0.1,0.2,0.3,0.2,0.5c0,0.2-0.1,0.4-0.2,0.5c-0.1,0.1-0.3,0.2-0.5,0.2h-3.3v2h2.7c0.2,0,0.4,0.1,0.5,0.2
						c0.1,0.1,0.2,0.3,0.2,0.5c0,0.2-0.1,0.4-0.2,0.5c-0.1,0.1-0.3,0.2-0.5,0.2h-2.7V16h3.3C180.6,16,180.8,16,180.9,16.2z"/>
				</g>
				<g class="st12">
					<path class="st13" d="M188.6,9.1c0.1,0.1,0.2,0.3,0.2,0.5s-0.1,0.4-0.2,0.5s-0.3,0.2-0.5,0.2h-1.9v6.3c0,0.2-0.1,0.4-0.2,0.5
						c-0.2,0.1-0.3,0.2-0.6,0.2s-0.4-0.1-0.6-0.2c-0.1-0.1-0.2-0.3-0.2-0.5v-6.3h-1.9c-0.2,0-0.4-0.1-0.5-0.2
						c-0.1-0.1-0.2-0.3-0.2-0.5c0-0.2,0.1-0.4,0.2-0.5s0.3-0.2,0.5-0.2h5.3C188.3,8.9,188.4,9,188.6,9.1z"/>
				</g>
				<g class="st12">
					<path class="st13" d="M196.1,16.7c0,0.2-0.1,0.4-0.2,0.5c-0.1,0.1-0.3,0.2-0.5,0.2c-0.1,0-0.3,0-0.4-0.1s-0.2-0.2-0.3-0.4
						l-0.6-1.5h-3.6l-0.6,1.5c-0.1,0.2-0.1,0.3-0.3,0.4c-0.1,0.1-0.2,0.1-0.4,0.1c-0.2,0-0.4-0.1-0.5-0.2c-0.1-0.1-0.2-0.3-0.2-0.5
						c0-0.1,0-0.1,0-0.2l3-7.2c0.1-0.2,0.2-0.3,0.3-0.4c0.1-0.1,0.3-0.1,0.4-0.1c0.1,0,0.3,0,0.4,0.1s0.2,0.2,0.3,0.4l3,7
						C196.1,16.5,196.1,16.6,196.1,16.7z M191.2,14.1h2.4l-1.2-2.8L191.2,14.1z"/>
				</g>
			</g>
		</g>
	</g>
</g>
</svg>
