<svg id="Add_A_Person" data-name="Add A Person" xmlns="http://www.w3.org/2000/svg" viewBox="0 0 224 224"><defs><style>.cls-1{fill:#00c9a2;}.cls-2{fill:#fff;}</style></defs><title>next-button</title><path class="cls-1" d="M224,112A112.08,112.08,0,0,1,83.82,220.42h0A112,112,0,1,1,224,112Z"/><circle class="cls-2" cx="86.83" cy="98.73" r="4.19"/><rect class="cls-2" x="96.7" y="92.91" width="8.39" height="39.78" transform="translate(-50.21 104.38) rotate(-45)"/><ellipse class="cls-2" cx="137.22" cy="98.67" rx="4.1" ry="4.19" transform="translate(-29.58 125.93) rotate(-45)"/><rect class="cls-2" x="118.93" y="92.83" width="8.39" height="39.88" transform="translate(130.45 279.56) rotate(-135)"/><circle class="cls-2" cx="112" cy="66.92" r="4.19"/><rect class="cls-2" x="84.38" y="90.34" width="55.23" height="8.39" transform="translate(17.46 206.54) rotate(-90)"/><path class="cls-2" d="M91.94,146.68a.57.57,0,0,1,.16.42v13.42a.63.63,0,0,1-.19.49.65.65,0,0,1-.46.18.67.67,0,0,1-.28-.06A.61.61,0,0,1,91,161l-9-12.12v11.77a.51.51,0,0,1-.18.39.54.54,0,0,1-.41.17.55.55,0,0,1-.42-.17.53.53,0,0,1-.16-.39V147.14a.6.6,0,0,1,.17-.46.63.63,0,0,1,.43-.17.61.61,0,0,1,.51.23l9,12.19V147.1a.57.57,0,0,1,.16-.42.57.57,0,0,1,.42-.17A.56.56,0,0,1,91.94,146.68Z"/><path class="cls-2" d="M109,160.14a.64.64,0,0,1,.18.44.56.56,0,0,1-.18.44.6.6,0,0,1-.45.17h-7.69a.62.62,0,0,1-.46-.18.64.64,0,0,1-.17-.45V147.14a.64.64,0,0,1,.17-.45.62.62,0,0,1,.46-.18h7.69a.62.62,0,0,1,.63.63.57.57,0,0,1-.18.44.64.64,0,0,1-.45.17h-7V153h6.06a.62.62,0,0,1,.63.63.57.57,0,0,1-.18.44.64.64,0,0,1-.45.17h-6.06V160h7A.62.62,0,0,1,109,160.14Z"/><path class="cls-2" d="M126.22,160.25a.64.64,0,0,1,.14.38.61.61,0,0,1-.19.47.69.69,0,0,1-.46.18.61.61,0,0,1-.5-.28l-4.53-6.14L116.17,161a.56.56,0,0,1-.5.3.52.52,0,0,1-.41-.18.61.61,0,0,1-.16-.39.72.72,0,0,1,.15-.42l4.72-6.42-4.74-6.41a.57.57,0,0,1-.15-.38.59.59,0,0,1,.2-.44.63.63,0,0,1,.45-.19.66.66,0,0,1,.53.25l4.51,6.15,4.48-6.13a.67.67,0,0,1,.51-.27.62.62,0,0,1,.43.16.47.47,0,0,1,.17.38.72.72,0,0,1-.14.4l-4.72,6.44Z"/><path class="cls-2" d="M143.05,146.68a.57.57,0,0,1,.17.44.54.54,0,0,1-.17.43.69.69,0,0,1-.45.16h-4.35v12.85a.61.61,0,0,1-.18.45.66.66,0,0,1-.47.18.64.64,0,0,1-.47-.18.61.61,0,0,1-.18-.45V147.71h-4.34a.64.64,0,0,1-.45-.17.57.57,0,0,1-.18-.44.54.54,0,0,1,.18-.42.64.64,0,0,1,.45-.17h10A.64.64,0,0,1,143.05,146.68Z"/></svg>