<svg id="Add_A_Person" data-name="Add A Person" xmlns="http://www.w3.org/2000/svg" viewBox="0 0 224 224"><defs><style>.cls-1{fill:#00c9a2;}.cls-2{fill:#fff;}</style></defs><title>Next Button</title><path class="cls-1" d="M224,112A112.08,112.08,0,0,1,83.82,220.42h0A112,112,0,1,1,224,112Z"/><circle class="cls-2" cx="80.83" cy="95.58" r="5.19"/><rect class="cls-2" x="93.05" y="88.36" width="10.38" height="49.25" transform="translate(-51.12 102.56) rotate(-45)"/><ellipse class="cls-2" cx="143.22" cy="95.49" rx="5.08" ry="5.19" transform="translate(-25.57 129.24) rotate(-45)"/><rect class="cls-2" x="120.58" y="88.26" width="10.38" height="49.37" transform="translate(134.84 281.75) rotate(-135)"/><circle class="cls-2" cx="112" cy="56.19" r="5.19"/><rect class="cls-2" x="77.81" y="85.19" width="68.38" height="10.38" transform="translate(21.62 202.38) rotate(-90)"/><path class="cls-2" d="M87.17,154.94a.7.7,0,0,1,.19.51v16.62a.82.82,0,0,1-.23.61.8.8,0,0,1-.57.22.72.72,0,0,1-.35-.08.85.85,0,0,1-.28-.18l-11.13-15V172.2a.68.68,0,0,1-.22.49.73.73,0,0,1-.51.21.7.7,0,0,1-.52-.21.67.67,0,0,1-.21-.49V155.51a.74.74,0,0,1,.22-.57.76.76,0,0,1,.54-.21.72.72,0,0,1,.62.28L85.91,170.1V155.45a.68.68,0,0,1,.21-.51.69.69,0,0,1,.52-.21A.69.69,0,0,1,87.17,154.94Z"/><path class="cls-2" d="M108.3,171.6a.77.77,0,0,1,.22.55.7.7,0,0,1-.22.54.78.78,0,0,1-.56.21H98.21a.72.72,0,0,1-.55-.22.75.75,0,0,1-.22-.56V155.51a.73.73,0,0,1,.22-.56.72.72,0,0,1,.55-.22h9.53a.75.75,0,0,1,.56.22.73.73,0,0,1,.22.56.7.7,0,0,1-.22.54.78.78,0,0,1-.56.21H99.07v6.52h7.5a.73.73,0,0,1,.56.22.72.72,0,0,1,.22.55.71.71,0,0,1-.22.55.76.76,0,0,1-.56.21h-7.5v7.06h8.67A.75.75,0,0,1,108.3,171.6Z"/><path class="cls-2" d="M129.6,171.73a.87.87,0,0,1,.18.47.74.74,0,0,1-.24.58.81.81,0,0,1-.56.22.71.71,0,0,1-.62-.33l-5.61-7.61-5.58,7.58a.73.73,0,0,1-.63.36.63.63,0,0,1-.5-.22.69.69,0,0,1-.2-.48.93.93,0,0,1,.18-.52l5.85-7.94L116,155.9a.71.71,0,0,1-.18-.47.75.75,0,0,1,.24-.55.82.82,0,0,1,.56-.23.8.8,0,0,1,.65.31l5.58,7.61,5.56-7.58a.81.81,0,0,1,.62-.34.75.75,0,0,1,.53.19.61.61,0,0,1,.22.48,1,1,0,0,1-.18.5l-5.84,8Z"/><path class="cls-2" d="M150.44,154.94a.72.72,0,0,1,.22.54.68.68,0,0,1-.22.53.83.83,0,0,1-.56.2H144.5v15.91a.72.72,0,0,1-.23.56.8.8,0,0,1-.57.22.76.76,0,0,1-.58-.22.75.75,0,0,1-.23-.56V156.21h-5.37A.79.79,0,0,1,137,156a.71.71,0,0,1-.22-.55.65.65,0,0,1,.22-.51.79.79,0,0,1,.56-.21h12.36A.79.79,0,0,1,150.44,154.94Z"/></svg>