<svg xmlns="http://www.w3.org/2000/svg" viewBox="0 0 120 140"><defs><style>.cls-1{fill:#ddd;}.cls-2{fill:#00c9a2;}.cls-3{fill:#00b18f;}</style></defs><title>Trash Bin</title><g id="Trash_Bin" data-name="Trash Bin"><rect class="cls-1" x="64.33" y="43.16" width="16" height="16" rx="7.91" ry="7.91" /><rect class="cls-1" x="97.68" y="29.16" width="16" height="16" rx="7.91" ry="7.91" /><polygon class="cls-2" points="93.62 140 26.38 140 10 52 110 52 93.62 140" /><polygon class="cls-3" points="110 52 93.62 140 26.38 140 24.76 131.24 104 52 110 52" /><rect class="cls-2" x="8.09" y="13.32" width="103.82" height="18.32" transform="translate(-3.3 12.58) rotate(-11.65)" /><polygon class="cls-3" points="112.69 20.97 50.24 33.85 64.48 12.21 108.99 3.03 112.69 20.97" /><circle class="cls-2" cx="9.16" cy="32.97" r="9.16" transform="translate(-6.47 2.53) rotate(-11.65)" /><circle class="cls-3" cx="110.84" cy="12" r="9.16" transform="translate(-0.14 22.63) rotate(-11.65)" /><rect class="cls-2" x="36.61" y="4.35" width="43.08" height="18.32" transform="translate(-1.53 12.02) rotate(-11.65)" /><polygon class="cls-3" points="81.1 18.13 57.34 23.03 71.65 1.38 77.4 0.19 81.1 18.13" /><circle class="cls-2" cx="37.05" cy="17.86" r="9.16" transform="translate(-2.84 7.85) rotate(-11.65)" /><circle class="cls-3" cx="79.25" cy="9.16" r="9.16" transform="translate(-0.22 16.19) rotate(-11.65)" /></g></svg>