<svg xmlns="http://www.w3.org/2000/svg" xmlns:xlink="http://www.w3.org/1999/xlink" viewBox="0 0 398.46 215"><defs><style>.cls-1{fill:none;}.cls-2{fill:#ce1e55;}.cls-3{fill:#e2215b;}.cls-4{fill:#079b7f;}.cls-5{fill:#00c9a2;}.cls-6{fill:#f2b700;}.cls-7{fill:#daa727;}.cls-8{fill:#0fa3cf;}.cls-9{fill:#13b3e2;}.cls-10{fill:#fff;}.cls-11{clip-path:url(#clip-path);}.cls-12{fill:#5e65ea;}.cls-13{font-size:12px;fill:#f2f5f5;font-family:Quicksand-Bold, Quicksand;font-weight:700;}.cls-14{letter-spacing:-0.05em;}</style><clipPath id="clip-path"><rect class="cls-1" x="335.03" y="139.48" width="63.43" height="26"/></clipPath></defs><title>NC-Type and Mark Pos</title><g id="Layer_1" data-name="Layer 1"><path class="cls-2" d="M152.74,48.08a27.2,27.2,0,0,1,46.44-19.24L160.7,67.32a27.13,27.13,0,0,1-8-19.24"/><path class="cls-3" d="M179.88,48.12a27.2,27.2,0,1,1-38.47,38.47Z"/><path class="cls-4" d="M160.61,133a27.2,27.2,0,0,1-19.24-46.44L179.85,125a27.1,27.1,0,0,1-19.24,8"/><path class="cls-5" d="M160.88,106a27.2,27.2,0,1,1,38.47,38.47Z"/><path class="cls-6" d="M210.67,106.05a27.21,27.21,0,0,1,46.44-19.24l-38.47,38.48a27.14,27.14,0,0,1-8-19.24"/><path class="cls-7" d="M237.85,106a27.21,27.21,0,1,1-38.48,38.48Z"/><path class="cls-8" d="M237.85,40.38a27.21,27.21,0,0,1,19.24,46.45L218.61,48.35a27.16,27.16,0,0,1,19.24-8"/><path class="cls-9" d="M237.65,67.32a27.21,27.21,0,1,1-38.48-38.48Z"/><path class="cls-10" d="M35.94,192a1.57,1.57,0,1,1-3.14,0V175.18a1.53,1.53,0,0,1,.64-1.33,1.59,1.59,0,0,1,2.19.34l9.31,12.89V175.2a1.57,1.57,0,0,1,1.56-1.55,1.59,1.59,0,0,1,1.58,1.55V192a1.6,1.6,0,0,1-1.58,1.59,1.56,1.56,0,0,1-1.19-.58,1,1,0,0,1-.14-.17L35.94,180Z"/><path class="cls-10" d="M61.6,186.33a7.15,7.15,0,0,1,7-7.21,6.9,6.9,0,0,1,6.94,6.69V186a1.18,1.18,0,0,1,0,.26,1.4,1.4,0,0,1-1.5,1.15H64.89a3.74,3.74,0,0,0,1,1.9,4.48,4.48,0,0,0,2.77,1.3,4.66,4.66,0,0,0,3-.72,1.64,1.64,0,0,1,2.17-.09,1.33,1.33,0,0,1,0,1.88,7.34,7.34,0,0,1-5.16,1.9A7.16,7.16,0,0,1,61.6,186.33Zm3.14-1.41H72.9a4.71,4.71,0,0,0-4.26-3.06A4.06,4.06,0,0,0,64.74,184.92Z"/><path class="cls-10" d="M93.43,180.71a1.63,1.63,0,0,1-1.61,1.59h-.73v8A1.59,1.59,0,0,1,92.68,192a1.56,1.56,0,0,1-1.59,1.59,3.21,3.21,0,0,1-3.19-3.2v-8h-.84a1.59,1.59,0,0,1-1.59-1.59,1.57,1.57,0,0,1,1.59-1.59h.84v-4.18a1.58,1.58,0,0,1,1.61-1.58,1.56,1.56,0,0,1,1.58,1.58v4.18h.73A1.61,1.61,0,0,1,93.43,180.71Z"/><path class="cls-10" d="M124.94,181.43l-4.76,11.19a2.17,2.17,0,0,1-.11.23,0,0,0,0,1,0,0,1.77,1.77,0,0,1-.14.17.09.09,0,0,1-.06,0,.73.73,0,0,1-.18.14s0,0,0,.06a.82.82,0,0,1-.26.14,0,0,0,0,0,0,0,.78.78,0,0,0-.23.06h-.06a.86.86,0,0,1-.29,0,.77.77,0,0,1-.26,0h-.06a.36.36,0,0,0-.2-.06l0,0h0a.72.72,0,0,1-.26-.17v0a.46.46,0,0,1-.17-.14s-.06,0-.06,0a1.77,1.77,0,0,1-.14-.17,0,0,0,0,1,0,0,1.13,1.13,0,0,1-.11-.23l-2.11-5-2,5a1.77,1.77,0,0,1-.14.23v0l-.17.17a0,0,0,0,1,0,0c-.06.06-.12.11-.17.17a1.11,1.11,0,0,1-.26.17h-.06a0,0,0,0,0,0,0,.29.29,0,0,0-.17.06h-.06a1.06,1.06,0,0,1-.29,0,.89.89,0,0,1-.29,0h-.08a.43.43,0,0,0-.18-.06s0,0-.06,0a.47.47,0,0,1-.25-.17s0,0,0,0a1.26,1.26,0,0,0-.18-.14l0,0c0-.06-.09-.12-.12-.17s0,0,0,0-.08-.18-.14-.23l-4.73-11.19a1.49,1.49,0,0,1,.84-2,1.43,1.43,0,0,1,1.9.87l3.4,7.75,2-4.81a1.54,1.54,0,0,1,1.41-.93,1.47,1.47,0,0,1,1.41.93l2,4.81,3.4-7.75a1.44,1.44,0,0,1,1.93-.87A1.51,1.51,0,0,1,124.94,181.43Z"/><path class="cls-10" d="M139.76,191.43a7.18,7.18,0,0,1-2-5.07,7.46,7.46,0,0,1,2-5.05,6.76,6.76,0,0,1,5-2.19,6.38,6.38,0,0,1,4.81,2.19,7.22,7.22,0,0,1,2,5.05,7,7,0,0,1-2,5.07,6.36,6.36,0,0,1-4.81,2.2A6.73,6.73,0,0,1,139.76,191.43Zm1.15-5.07a4.7,4.7,0,0,0,1,3.06,3.9,3.9,0,0,0,2.77,1.06,3.77,3.77,0,0,0,2.65-1.06,4.44,4.44,0,0,0,1.12-3.06,4.35,4.35,0,0,0-1.12-3,4.08,4.08,0,0,0-2.65-1.09,4.2,4.2,0,0,0-2.77,1.09A4.59,4.59,0,0,0,140.91,186.36Z"/><path class="cls-10" d="M172.68,180.65a1.54,1.54,0,0,1-1.53,1.53,2.73,2.73,0,0,0-1.73.55,4.25,4.25,0,0,0-1.32,1.38,8.77,8.77,0,0,0-1.18,2.42V192a1.57,1.57,0,0,1-1.59,1.53A1.54,1.54,0,0,1,163.8,192V180.65a1.52,1.52,0,0,1,1.53-1.5,1.55,1.55,0,0,1,1.59,1.5v.2a3.57,3.57,0,0,1,.6-.57,6.27,6.27,0,0,1,3.63-1.13A1.5,1.5,0,0,1,172.68,180.65Z"/><path class="cls-10" d="M184.39,192v-17a1.58,1.58,0,0,1,1.58-1.58,1.61,1.61,0,0,1,1.62,1.58v10L193.5,179a1.61,1.61,0,0,1,2.25,0,1.58,1.58,0,0,1,0,2.25l-4.33,4.32,4.44,5.34a1.59,1.59,0,0,1-.23,2.24,1.54,1.54,0,0,1-2.22-.2l-4.24-5.13-1.58,1.59V192a1.61,1.61,0,0,1-1.62,1.59A1.58,1.58,0,0,1,184.39,192Z"/><path class="cls-10" d="M224.46,183.16A10.58,10.58,0,0,1,235,172.78,10.8,10.8,0,0,1,241.7,175a1.71,1.71,0,0,1,.29,2.31,1.69,1.69,0,0,1-2.31.31,7.16,7.16,0,0,0-4.64-1.58,7.68,7.68,0,0,0-5.19,2.07,7.11,7.11,0,0,0-2.1,5,7,7,0,0,0,2.1,5,7.68,7.68,0,0,0,5.19,2.07,7.28,7.28,0,0,0,4.64-1.58A1.75,1.75,0,0,1,242,189a1.71,1.71,0,0,1-.29,2.31,10.8,10.8,0,0,1-6.66,2.25A10.54,10.54,0,0,1,224.46,183.16Z"/><path class="cls-10" d="M267.39,186.36V192a1.54,1.54,0,0,1-1.53,1.53,1.57,1.57,0,0,1-1.5-1.24,6.54,6.54,0,0,1-3.84,1.24,6.71,6.71,0,0,1-4.9-2.11,7.36,7.36,0,0,1-2-5.07,7.25,7.25,0,0,1,2-5.07,6.65,6.65,0,0,1,4.9-2.17,6.57,6.57,0,0,1,3.84,1.27,1.53,1.53,0,0,1,3,.29Zm-3.06,0a4.25,4.25,0,0,0-1.12-3,3.59,3.59,0,0,0-2.69-1.18,3.49,3.49,0,0,0-2.68,1.18,4.23,4.23,0,0,0-1.09,3,4.34,4.34,0,0,0,1.09,3,3.65,3.65,0,0,0,2.68,1.12,3.76,3.76,0,0,0,2.69-1.12A4.36,4.36,0,0,0,264.33,186.36Z"/><path class="cls-10" d="M292.7,185.12V192a1.51,1.51,0,0,1-1.5,1.53,1.56,1.56,0,0,1-1.53-1.53v-6.89a3,3,0,0,0-3-2.91,2.88,2.88,0,0,0-2.88,2.91V192a.56.56,0,0,1-.06.29,1.58,1.58,0,0,1-1.53,1.24,1.52,1.52,0,0,1-1.52-1.53V180.65a1.52,1.52,0,0,1,1.52-1.53,1.57,1.57,0,0,1,1.42.9,5.72,5.72,0,0,1,3.05-.9A6,6,0,0,1,292.7,185.12Z"/><path class="cls-10" d="M317.09,181.43l-4.73,11.19a1.11,1.11,0,0,1-.11.2,0,0,0,0,1,0,0c-.06.05-.12.14-.18.2a0,0,0,0,1,0,0,.91.91,0,0,1-.17.17,0,0,0,0,0,0,0,.48.48,0,0,1-.2.14h-.06v0a.56.56,0,0,0-.23.06h-.06a1,1,0,0,1-.28,0,.93.93,0,0,1-.26,0h-.06a.71.71,0,0,0-.23-.06v0h-.06a2.36,2.36,0,0,1-.26-.14,0,0,0,0,0,0,0,1.36,1.36,0,0,1-.17-.17s0,0-.06,0a.66.66,0,0,0-.14-.2s0,0,0,0-.09-.12-.12-.2l-4.67-11.19a1.49,1.49,0,1,1,2.77-1.12l3.32,7.84,3.34-7.84a1.45,1.45,0,0,1,1.93-.84A1.47,1.47,0,0,1,317.09,181.43Z"/><path class="cls-10" d="M341.88,186.36V192a1.54,1.54,0,0,1-1.53,1.53,1.58,1.58,0,0,1-1.5-1.24,6.51,6.51,0,0,1-3.83,1.24,6.69,6.69,0,0,1-4.9-2.11,7.36,7.36,0,0,1-2-5.07,7.25,7.25,0,0,1,2-5.07,6.63,6.63,0,0,1,4.9-2.17,6.54,6.54,0,0,1,3.83,1.27,1.57,1.57,0,0,1,1.5-1.27,1.55,1.55,0,0,1,1.53,1.56Zm-3.05,0a4.25,4.25,0,0,0-1.13-3,3.55,3.55,0,0,0-2.68-1.18,3.46,3.46,0,0,0-2.68,1.18,4.23,4.23,0,0,0-1.1,3,4.34,4.34,0,0,0,1.1,3,3.62,3.62,0,0,0,2.68,1.12,3.72,3.72,0,0,0,2.68-1.12A4.36,4.36,0,0,0,338.83,186.36Z"/><path class="cls-10" d="M354.77,189.42a1.51,1.51,0,0,1,2.16-.24,5.26,5.26,0,0,0,3.17,1.27,3.92,3.92,0,0,0,2-.54,1.21,1.21,0,0,0,.52-.87.44.44,0,0,0-.09-.29.87.87,0,0,0-.37-.34,6.66,6.66,0,0,0-2.31-.81h0a10.71,10.71,0,0,1-2.5-.75,4.76,4.76,0,0,1-2-1.67,3.49,3.49,0,0,1-.49-1.82,4.06,4.06,0,0,1,1.7-3.17,6.22,6.22,0,0,1,3.54-1.07,7.45,7.45,0,0,1,4.33,1.59,1.59,1.59,0,0,1,.46,2.13,1.52,1.52,0,0,1-2.13.41,4.93,4.93,0,0,0-2.66-1.07,2.94,2.94,0,0,0-1.73.52.89.89,0,0,0-.46.66.29.29,0,0,0,.06.23.76.76,0,0,0,.32.29,5.75,5.75,0,0,0,2.1.69l0,0h0a10.09,10.09,0,0,1,2.68.84,4.42,4.42,0,0,1,2.05,1.7,3.77,3.77,0,0,1,.55,1.9,4.17,4.17,0,0,1-1.82,3.35,6.58,6.58,0,0,1-3.75,1.15,8.38,8.38,0,0,1-5.13-2A1.54,1.54,0,0,1,354.77,189.42Z"/><rect id="Frame" class="cls-1" width="398.46" height="215"/></g><g id="Beta"><g id="BetaTab"><g class="cls-11"><g class="cls-11"><path class="cls-12" d="M386.52,165.48H347a12,12,0,0,1-12-11.95v-2.1a12,12,0,0,1,12-12h39.54a11.94,11.94,0,0,1,11.94,12v2.1a11.94,11.94,0,0,1-11.94,11.95"/></g><text class="cls-13" transform="translate(352.1 156.82)">BE<tspan class="cls-14" x="14.72" y="0">T</tspan><tspan x="21.65" y="0">A</tspan></text></g></g></g></svg>