<?xml version="1.0" encoding="utf-8"?>
<!-- Generator: Adobe Illustrator 23.0.4, SVG Export Plug-In . SVG Version: 6.00 Build 0)  -->
<svg version="1.1" id="Layer_1" xmlns="http://www.w3.org/2000/svg" xmlns:xlink="http://www.w3.org/1999/xlink" x="0px" y="0px"
	 viewBox="0 0 398.5 215" style="enable-background:new 0 0 398.5 215;" xml:space="preserve">
<style type="text/css">
	.st0{fill:#CE1E55;}
	.st1{fill:#E2215B;}
	.st2{fill:#079B7F;}
	.st3{fill:#00C9A2;}
	.st4{fill:#F2B700;}
	.st5{fill:#DAA727;}
	.st6{fill:#0FA3CF;}
	.st7{fill:#13B3E2;}
	.st8{fill:#FFFFFF;}
	.st9{fill:none;}
	.st10{clip-path:url(#SVGID_2_);}
	.st11{clip-path:url(#SVGID_4_);}
	.st12{fill:#5E65EA;}
	.st13{enable-background:new    ;}
	.st14{fill:#F2F5F5;}
</style>
<title>NC-Type and Mark Pos</title>
<g>
	<path class="st0" d="M152.7,48.1c0-15,12.2-27.2,27.2-27.2c7.2,0,14.1,2.9,19.3,8l-38.5,38.5C155.6,62.2,152.7,55.3,152.7,48.1"/>
	<path class="st1" d="M179.9,48.1c10.6,10.6,10.6,27.8,0,38.5s-27.8,10.6-38.5,0L179.9,48.1z"/>
	<path class="st2" d="M160.6,133c-15,0-27.2-12.2-27.2-27.2c0-7.2,2.9-14.1,8-19.3l38.5,38.4C174.8,130.1,167.8,133,160.6,133"/>
	<path class="st3" d="M160.9,106c10.6-10.6,27.8-10.6,38.5,0s10.6,27.8,0,38.5L160.9,106z"/>
	<path class="st4" d="M210.7,106.1c0-15,12.2-27.2,27.2-27.2c7.2,0,14.1,2.9,19.2,8l-38.5,38.5C213.5,120.2,210.6,113.3,210.7,106.1
		"/>
	<path class="st5" d="M237.9,106c10.7,10.6,10.8,27.8,0.2,38.5c-10.6,10.7-27.8,10.8-38.5,0.2c-0.1-0.1-0.2-0.2-0.2-0.2L237.9,106z"
		/>
	<path class="st6" d="M237.9,40.4c15,0,27.2,12.2,27.2,27.2c0,7.2-2.9,14.1-8,19.2l-38.5-38.5C223.7,43.2,230.6,40.4,237.9,40.4"/>
	<path class="st7" d="M237.6,67.3c-10.6,10.7-27.8,10.8-38.5,0.2c-10.7-10.6-10.8-27.8-0.2-38.5c0.1-0.1,0.2-0.2,0.2-0.2L237.6,67.3
		z"/>
	<path class="st8" d="M35.9,192c0,0.9-0.7,1.6-1.6,1.6c-0.9,0-1.6-0.7-1.6-1.6c0,0,0,0,0,0v-16.8c0-0.5,0.2-1,0.6-1.3
		c0.7-0.5,1.7-0.3,2.2,0.3l9.3,12.9v-11.9c0-0.9,0.7-1.5,1.6-1.6c0.9,0,1.6,0.7,1.6,1.6V192c0,0.9-0.7,1.6-1.6,1.6
		c-0.5,0-0.9-0.2-1.2-0.6c-0.1-0.1-0.1-0.1-0.1-0.2L35.9,180V192z"/>
	<path class="st8" d="M61.6,186.3c0-3.9,3.1-7.1,7-7.2c3.7,0,6.8,2.9,6.9,6.7v0.2c0,0.1,0,0.2,0,0.3c-0.1,0.7-0.8,1.2-1.5,1.1h-9.2
		c0.1,0.7,0.5,1.4,1,1.9c0.7,0.7,1.7,1.2,2.8,1.3c1.1,0.1,2.1-0.1,3-0.7c0.6-0.6,1.5-0.6,2.2-0.1c0.5,0.5,0.5,1.4,0,1.9
		c-1.4,1.3-3.3,2-5.2,1.9C64.7,193.5,61.6,190.3,61.6,186.3C61.6,186.3,61.6,186.3,61.6,186.3z M64.7,184.9h8.2
		c-0.7-1.8-2.4-3-4.3-3.1C66.8,181.9,65.2,183.1,64.7,184.9z"/>
	<path class="st8" d="M93.4,180.7c0,0.9-0.7,1.6-1.6,1.6h-0.7v8c0.9,0,1.6,0.7,1.6,1.6c0,0,0,0.1,0,0.1c0,0.9-0.7,1.6-1.5,1.6
		c0,0,0,0-0.1,0c-1.8,0-3.2-1.4-3.2-3.2v-8h-0.8c-0.9,0-1.6-0.7-1.6-1.6c0-0.9,0.7-1.6,1.5-1.6c0,0,0,0,0,0h0.8V175
		c0-0.9,0.7-1.6,1.6-1.6c0,0,0,0,0,0c0.9,0,1.6,0.7,1.6,1.5c0,0,0,0,0,0v4.2h0.7C92.7,179.2,93.4,179.9,93.4,180.7z"/>
	<path class="st8" d="M124.9,181.4l-4.8,11.2c0,0.1-0.1,0.2-0.1,0.2l0,0c0,0.1-0.1,0.1-0.1,0.2c0,0,0,0-0.1,0
		c-0.1,0.1-0.1,0.1-0.2,0.1c0,0,0,0,0,0.1c-0.1,0.1-0.2,0.1-0.3,0.1l0,0c-0.1,0-0.2,0-0.2,0.1h-0.1c-0.1,0-0.2,0-0.3,0
		c-0.1,0-0.2,0-0.3,0h-0.1c-0.1,0-0.1-0.1-0.2-0.1l0,0l0,0c-0.1,0-0.2-0.1-0.3-0.2l0,0c-0.1,0-0.1-0.1-0.2-0.1h-0.1
		c-0.1-0.1-0.1-0.1-0.1-0.2l0,0c0-0.1-0.1-0.1-0.1-0.2l-2.1-5l-2,5c0,0.1-0.1,0.2-0.1,0.2l0,0l-0.2,0.2l0,0
		c-0.1,0.1-0.1,0.1-0.2,0.2c-0.1,0.1-0.2,0.1-0.3,0.2h-0.1l0,0c-0.1,0-0.1,0-0.2,0.1h-0.1c-0.1,0-0.2,0-0.3,0c-0.1,0-0.2,0-0.3,0
		h-0.1c-0.1,0-0.1-0.1-0.2-0.1c0,0,0,0-0.1,0c-0.1,0-0.2-0.1-0.2-0.2l0,0c-0.1-0.1-0.1-0.1-0.2-0.1l0,0c0-0.1-0.1-0.1-0.1-0.2
		s0,0,0,0s-0.1-0.2-0.1-0.2l-4.7-11.2c-0.3-0.8,0-1.6,0.8-2c0,0,0.1,0,0.1,0c0.7-0.3,1.6,0,1.9,0.8c0,0,0,0.1,0,0.1l3.4,7.8l2-4.8
		c0.2-0.6,0.8-0.9,1.4-0.9c0.6,0,1.2,0.4,1.4,0.9l2,4.8l3.4-7.8c0.3-0.8,1.1-1.2,1.8-0.9c0,0,0.1,0,0.1,0
		C125.1,179.9,125.3,180.7,124.9,181.4z"/>
	<path class="st8" d="M139.8,191.4c-1.3-1.4-2-3.2-2-5.1c0-1.9,0.7-3.7,2-5.1c1.3-1.4,3.1-2.2,5-2.2c1.8,0,3.6,0.8,4.8,2.2
		c1.3,1.4,2,3.2,2,5.1c0,1.9-0.7,3.7-2,5.1c-1.2,1.4-3,2.2-4.8,2.2C142.9,193.6,141,192.8,139.8,191.4z M140.9,186.4
		c0,1.1,0.3,2.2,1,3.1c0.7,0.7,1.7,1.1,2.8,1.1c1,0,1.9-0.4,2.6-1.1c0.7-0.8,1.1-1.9,1.1-3.1c0-1.1-0.4-2.2-1.1-3
		c-0.7-0.7-1.7-1.1-2.6-1.1c-1,0-2,0.4-2.8,1.1C141.2,184.2,140.9,185.3,140.9,186.4L140.9,186.4z"/>
	<path class="st8" d="M172.7,180.6c0,0.8-0.7,1.5-1.5,1.5c-0.6,0-1.2,0.2-1.7,0.6c-0.5,0.4-1,0.8-1.3,1.4c-0.5,0.7-0.9,1.6-1.2,2.4
		v5.5c0,0.9-0.7,1.5-1.6,1.5c-0.8,0-1.5-0.7-1.5-1.5v-11.4c0-0.8,0.7-1.5,1.5-1.5c0.9,0,1.6,0.6,1.6,1.5v0.2
		c0.2-0.2,0.4-0.4,0.6-0.6c1.1-0.7,2.3-1.1,3.6-1.1C172,179.1,172.7,179.8,172.7,180.6C172.7,180.6,172.7,180.6,172.7,180.6z"/>
	<path class="st8" d="M184.4,192v-17c0-0.9,0.7-1.6,1.6-1.6l0,0c0.9,0,1.6,0.7,1.6,1.6v10l5.9-6c0.6-0.6,1.6-0.6,2.2,0
		c0.6,0.6,0.6,1.6,0,2.2c0,0,0,0,0,0l-4.3,4.3l4.4,5.3c0.6,0.7,0.5,1.7-0.2,2.2c0,0,0,0,0,0c-0.6,0.6-1.6,0.5-2.2-0.1c0,0,0,0,0-0.1
		l-4.2-5.1l-1.6,1.6v2.6c0,0.9-0.7,1.6-1.6,1.6C185.1,193.6,184.4,192.9,184.4,192C184.4,192,184.4,192,184.4,192z"/>
	<path class="st8" d="M224.5,183.2c0.1-5.7,4.8-10.4,10.5-10.4c2.4,0,4.8,0.8,6.7,2.2c0.7,0.6,0.8,1.6,0.3,2.3
		c-0.6,0.7-1.6,0.8-2.3,0.3c-1.3-1.1-3-1.6-4.6-1.6c-1.9,0-3.8,0.8-5.2,2.1c-1.3,1.3-2.1,3.1-2.1,5c0,1.9,0.8,3.7,2.1,5
		c1.4,1.3,3.3,2.1,5.2,2.1c1.7,0,3.3-0.5,4.6-1.6c0.8-0.5,1.8-0.3,2.3,0.4c0.5,0.7,0.4,1.7-0.3,2.3c-1.9,1.5-4.3,2.3-6.7,2.2
		C229.3,193.6,224.5,188.9,224.5,183.2z"/>
	<path class="st8" d="M267.4,186.4v5.6c0,0.8-0.7,1.5-1.5,1.5c-0.7,0-1.3-0.5-1.5-1.2c-1.1,0.8-2.5,1.2-3.8,1.2
		c-1.9,0-3.6-0.8-4.9-2.1c-1.3-1.4-2-3.2-2-5.1c0-1.9,0.7-3.7,2-5.1c1.3-1.4,3-2.2,4.9-2.2c1.4,0,2.7,0.5,3.8,1.3
		c0.2-0.8,1.1-1.3,1.9-1.1c0.6,0.2,1.1,0.7,1.1,1.4L267.4,186.4z M264.3,186.4c0-1.1-0.4-2.2-1.1-3c-0.7-0.8-1.7-1.2-2.7-1.2
		c-1,0-2,0.4-2.7,1.2c-0.7,0.8-1.1,1.9-1.1,3c0,1.1,0.4,2.2,1.1,3c0.7,0.7,1.7,1.1,2.7,1.1c1,0,2-0.4,2.7-1.1
		C264,188.5,264.4,187.5,264.3,186.4L264.3,186.4z"/>
	<path class="st8" d="M292.7,185.1v6.9c0,0.8-0.7,1.5-1.5,1.5c0,0,0,0,0,0c-0.8,0-1.5-0.7-1.5-1.5v-6.9c0-1.6-1.4-2.9-3-2.9
		c-1.6,0-2.9,1.3-2.9,2.9c0,0,0,0,0,0v6.9c0,0.1,0,0.2-0.1,0.3c-0.2,0.7-0.8,1.2-1.5,1.2c-0.8,0-1.5-0.7-1.5-1.5c0,0,0,0,0,0v-11.4
		c0-0.8,0.7-1.5,1.5-1.5c0,0,0,0,0,0c0.6,0,1.2,0.4,1.4,0.9c0.9-0.6,2-0.9,3-0.9C290,179.1,292.7,181.8,292.7,185.1
		C292.7,185.1,292.7,185.1,292.7,185.1z"/>
	<path class="st8" d="M317.1,181.4l-4.7,11.2c0,0.1-0.1,0.1-0.1,0.2l0,0c-0.1,0.1-0.1,0.1-0.2,0.2l0,0c0,0.1-0.1,0.1-0.2,0.2l0,0
		c-0.1,0.1-0.1,0.1-0.2,0.1h-0.1l0,0c-0.1,0-0.2,0-0.2,0.1h-0.1c-0.1,0-0.2,0-0.3,0c-0.1,0-0.2,0-0.3,0h-0.1c-0.1,0-0.2-0.1-0.2-0.1
		l0,0h-0.1c-0.1,0-0.2-0.1-0.3-0.1l0,0c-0.1-0.1-0.1-0.1-0.2-0.2c0,0,0,0-0.1,0c0-0.1-0.1-0.1-0.1-0.2l0,0c0,0-0.1-0.1-0.1-0.2
		l-4.7-11.2c-0.3-0.8,0.1-1.6,0.8-1.9c0.8-0.3,1.6,0.1,1.9,0.8l3.3,7.8l3.3-7.8c0.3-0.8,1.1-1.1,1.9-0.9c0,0,0,0,0.1,0
		C317.1,179.8,317.4,180.7,317.1,181.4z"/>
	<path class="st8" d="M341.9,186.4v5.6c0,0.8-0.7,1.5-1.5,1.5c-0.7,0-1.3-0.5-1.5-1.2c-1.1,0.8-2.5,1.2-3.8,1.2
		c-1.9,0-3.6-0.8-4.9-2.1c-1.3-1.4-2-3.2-2-5.1c0-1.9,0.7-3.7,2-5.1c1.3-1.4,3-2.2,4.9-2.2c1.4,0,2.7,0.5,3.8,1.3
		c0.1-0.7,0.8-1.3,1.5-1.3c0.9,0,1.5,0.7,1.5,1.6V186.4z M338.8,186.4c0-1.1-0.4-2.2-1.1-3c-0.7-0.8-1.7-1.2-2.7-1.2
		c-1,0-2,0.4-2.7,1.2c-0.7,0.8-1.1,1.9-1.1,3c0,1.1,0.4,2.2,1.1,3c0.7,0.7,1.7,1.1,2.7,1.1c1,0,2-0.4,2.7-1.1
		C338.4,188.5,338.8,187.5,338.8,186.4L338.8,186.4z"/>
	<path class="st8" d="M354.8,189.4c0.5-0.7,1.5-0.8,2.1-0.3c0,0,0,0,0,0c0.9,0.8,2,1.2,3.2,1.3c0.7,0,1.4-0.2,2-0.5
		c0.3-0.2,0.5-0.5,0.5-0.9c0-0.1,0-0.2-0.1-0.3c-0.1-0.1-0.2-0.3-0.4-0.3c-0.7-0.4-1.5-0.7-2.3-0.8l0,0c-0.9-0.1-1.7-0.4-2.5-0.8
		c-0.8-0.4-1.5-0.9-2-1.7c-0.3-0.6-0.5-1.2-0.5-1.8c0-1.3,0.7-2.4,1.7-3.2c1-0.7,2.3-1.1,3.5-1.1c1.6,0.1,3.1,0.6,4.3,1.6
		c0.7,0.5,0.9,1.4,0.5,2.1c-0.5,0.7-1.4,0.9-2.1,0.4c0,0,0,0,0,0c-0.8-0.6-1.7-1-2.7-1.1c-0.6,0-1.2,0.2-1.7,0.5
		c-0.2,0.1-0.4,0.4-0.5,0.7c0,0.1,0,0.2,0.1,0.2c0.1,0.1,0.2,0.2,0.3,0.3c0.6,0.4,1.4,0.6,2.1,0.7l0,0l0,0c0.9,0.2,1.8,0.4,2.7,0.8
		c0.8,0.3,1.6,0.9,2,1.7c0.3,0.6,0.5,1.2,0.5,1.9c0,1.3-0.7,2.6-1.8,3.4c-1.1,0.8-2.4,1.2-3.8,1.1c-1.9-0.1-3.7-0.8-5.1-2
		C354.4,191,354.3,190.1,354.8,189.4z"/>
	<rect id="Frame" class="st9" width="398.5" height="215"/>
</g>
<g id="Beta">
	<g id="BetaTab">
		<g>
			<defs>
				<rect id="SVGID_1_" x="335" y="139.5" width="63.4" height="26"/>
			</defs>
			<clipPath id="SVGID_2_">
				<use xlink:href="#SVGID_1_"  style="overflow:visible;"/>
			</clipPath>
			<g class="st10">
				<g>
					<defs>
						<rect id="SVGID_3_" x="335" y="139.5" width="63.4" height="26"/>
					</defs>
					<clipPath id="SVGID_4_">
						<use xlink:href="#SVGID_3_"  style="overflow:visible;"/>
					</clipPath>
					<g class="st11">
						<path class="st12" d="M386.5,165.5H347c-6.6,0-12-5.3-12-11.9v-2.1c0-6.6,5.4-12,12-12h39.5c6.6,0,11.9,5.3,11.9,11.9
							c0,0,0,0,0,0.1v2.1C398.5,160.1,393.1,165.5,386.5,165.5C386.5,165.5,386.5,165.5,386.5,165.5"/>
					</g>
				</g>
				<g class="st13">
					<path class="st14" d="M359.1,152.9c0.3,0.3,0.4,0.8,0.4,1.3c0,1-0.3,1.6-0.8,2c-0.5,0.4-1.2,0.6-1.9,0.6h-3
						c-0.2,0-0.4-0.1-0.5-0.2c-0.1-0.1-0.2-0.3-0.2-0.5v-6.9c0-0.2,0.1-0.4,0.2-0.5c0.1-0.1,0.3-0.2,0.5-0.2h3
						c1.5,0,2.3,0.7,2.3,2.1c0,0.4-0.1,0.7-0.3,1c-0.2,0.3-0.4,0.5-0.7,0.7C358.5,152.3,358.8,152.6,359.1,152.9z M357.2,150.1
						c-0.2-0.2-0.4-0.2-0.7-0.2h-2v1.9h2c0.2,0,0.4-0.1,0.6-0.2c0.2-0.2,0.3-0.4,0.3-0.6C357.5,150.5,357.4,150.2,357.2,150.1z
						 M357.6,155.1c0.2-0.2,0.3-0.5,0.3-0.9c0-0.5-0.1-0.8-0.4-0.9c-0.2-0.1-0.6-0.2-0.9-0.2h-2.1v2.3h2.2
						C357.1,155.4,357.4,155.3,357.6,155.1z"/>
					<path class="st14" d="M366.1,155.7c0.1,0.1,0.2,0.3,0.2,0.5c0,0.2-0.1,0.4-0.2,0.5c-0.1,0.1-0.3,0.2-0.5,0.2h-4
						c-0.2,0-0.4-0.1-0.5-0.2c-0.1-0.1-0.2-0.3-0.2-0.5v-6.9c0-0.2,0.1-0.4,0.2-0.5c0.1-0.1,0.3-0.2,0.5-0.2h4
						c0.2,0,0.4,0.1,0.5,0.2s0.2,0.3,0.2,0.5c0,0.2-0.1,0.4-0.2,0.5s-0.3,0.2-0.5,0.2h-3.3v2h2.7c0.2,0,0.4,0.1,0.5,0.2
						s0.2,0.3,0.2,0.5c0,0.2-0.1,0.4-0.2,0.5s-0.3,0.2-0.5,0.2h-2.7v2.2h3.3C365.8,155.4,366,155.5,366.1,155.7z"/>
				</g>
				<g class="st13">
					<path class="st14" d="M373.8,148.6c0.1,0.1,0.2,0.3,0.2,0.5s-0.1,0.4-0.2,0.5c-0.1,0.1-0.3,0.2-0.5,0.2h-1.9v6.3
						c0,0.2-0.1,0.4-0.2,0.5s-0.3,0.2-0.6,0.2c-0.2,0-0.4-0.1-0.6-0.2c-0.1-0.1-0.2-0.3-0.2-0.5v-6.3h-1.9c-0.2,0-0.4-0.1-0.5-0.2
						s-0.2-0.3-0.2-0.5c0-0.2,0.1-0.4,0.2-0.5c0.1-0.1,0.3-0.2,0.5-0.2h5.3C373.5,148.4,373.6,148.5,373.8,148.6z"/>
				</g>
				<g class="st13">
					<path class="st14" d="M381.3,156.2c0,0.2-0.1,0.4-0.2,0.5c-0.1,0.1-0.3,0.2-0.5,0.2c-0.1,0-0.3,0-0.4-0.1
						c-0.1-0.1-0.2-0.2-0.3-0.4l-0.6-1.5h-3.6l-0.6,1.5c-0.1,0.2-0.1,0.3-0.3,0.4s-0.2,0.1-0.4,0.1c-0.2,0-0.4-0.1-0.5-0.2
						c-0.1-0.1-0.2-0.3-0.2-0.5c0-0.1,0-0.1,0-0.2l3-7.2c0.1-0.2,0.2-0.3,0.3-0.4c0.1-0.1,0.3-0.1,0.4-0.1c0.1,0,0.3,0,0.4,0.1
						c0.1,0.1,0.2,0.2,0.3,0.4l3,7C381.3,156,381.3,156.1,381.3,156.2z M376.4,153.6h2.4l-1.2-2.8L376.4,153.6z"/>
				</g>
			</g>
		</g>
	</g>
</g>
</svg>
