<?xml version="1.0" encoding="utf-8"?>
<!-- Generator: Adobe Illustrator 26.0.3, SVG Export Plug-In . SVG Version: 6.00 Build 0)  -->
<svg version="1.1" id="Layer_1" xmlns="http://www.w3.org/2000/svg" xmlns:xlink="http://www.w3.org/1999/xlink" x="0px" y="0px"
	 viewBox="0 0 288.4 309.5" style="enable-background:new 0 0 288.4 309.5;" xml:space="preserve">
<style type="text/css">
	.st0{fill:#DCDDDD;}
	.st1{fill:#CACBCC;}
	.st2{fill:#EDB1B5;}
	.st3{fill:#5E65EA;}
	.st4{fill:#302E41;}
	.st5{opacity:0.2;}
	.st6{fill:#010101;}
</style>
<path class="st0" d="M104.3,15C77.5-7.6,37.5-4.2,14.9,22.6s-19.2,66.8,7.6,89.3c25,21.1,62,19.7,85.4-3.3l77.8,65.6
	c2.5,2.1,6.2,1.8,8.2-0.7s1.8-6.2-0.7-8.2l0,0l-77.8-65.7C134.1,72.8,129.3,36.1,104.3,15z M99.3,93.4c-16.9,20-46.9,22.6-66.9,5.6
	S9.8,52.1,26.7,32.1c16.9-20,46.8-22.6,66.9-5.7l0,0C113.6,43.3,116.2,73.3,99.3,93.4L99.3,93.4z"/>
<path class="st1" d="M32.3,99C13.4,83.1,9.9,55.3,24.3,35.2c-0.9,0.9-1.8,1.9-2.6,2.9C4.7,58,8.4,85.8,28.5,102.7
	s48.9,16.6,65.8-3.4c0.8-1,1.6-2,2.4-3.1C79.2,113.7,51.2,114.9,32.3,99z"/>
<path class="st2" d="M261,176.6c2.3-2.8,1.9-6.9-0.9-9.2c0,0,0,0,0,0c-0.3-0.2-0.6-0.5-1-0.6l-14.2-58l-10.3,3.2l15.3,57.7
	c-1.6,3.3-0.3,7.2,3,8.8C255.8,179.9,259.2,179.1,261,176.6L261,176.6z"/>
<polygon class="st3" points="253.7,139.5 246.2,146.1 235.6,155.2 230.9,131.3 230.4,128.8 230.1,126.8 240.8,108.2 249.7,108.7 
	250.3,108.7 250.3,108.8 250.4,110.1 252.3,126.6 252.3,126.9 "/>
<polygon class="st2" points="204.3,301.7 196.8,301.7 193.3,272.8 204.3,272.8 "/>
<path class="st4" d="M206.2,308.9h-24.1v-0.3c0-5.2,4.2-9.4,9.4-9.4h0h14.7V308.9z"/>
<polygon class="st2" points="282.5,302.3 275,302.3 271.4,273.4 282.5,273.4 "/>
<path class="st4" d="M284.4,309.5h-24.1v-0.3c0-5.2,4.2-9.4,9.4-9.4h14.7L284.4,309.5z"/>
<path class="st4" d="M288.4,290.8l-20.1,3L239,194.7l-31.1,99.8l-22.6-3l29.3-116v-9.2l4-13.7l-0.4-3.7l-2.9-26l-1.3-11.2l-0.1-0.7
	c-0.1-1.3,0.7-2.4,2-2.7l0,0l9.4-2h15.4l9.1,2.5l0.6,0.2l0.3,0.1l-0.1,1.2l-2.1,17.8l-0.1,1l-2.1,17.2l-0.4,3.8
	c17.7,12.8,18.3,25.6,18.3,25.6L288.4,290.8z"/>
<circle class="st2" cx="231.1" cy="83.5" r="15"/>
<rect x="217.3" y="148.3" transform="matrix(0.9916 -0.1297 0.1297 0.9916 -17.5436 31.3886)" class="st3" width="29.9" height="4.3"/>
<path class="st2" d="M177.4,151.5c0.3,0.2,0.5,0.4,0.8,0.6l29.3-7.5l2-7.1l11.1,1.6l-2.3,12.9c-0.4,2.1-2.1,3.8-4.3,4l-34.2,3.6
	c-1.5,3.2-5.3,4.5-8.5,3c-3.2-1.5-4.5-5.3-3-8.5c1.5-3.2,5.3-4.5,8.5-3c0,0,0,0,0,0C177,151.3,177.2,151.4,177.4,151.5z"/>
<path class="st3" d="M222.5,112l-5.2-4c-1.4-0.5-3.3,1-3.7,2.4l-7.3,29.9l15.3,11l2.1-3.4L222.5,112z"/>
<g class="st5">
	<path class="st6" d="M252.3,126.6c-1.3,0.5-2.6,1-3.9,1.3l-1.3,0.4c-2.9,0.8-5.8,1.3-8.8,1.4c-1.3,0.1-2.6,0-3.8-0.1
		c-1.4-0.1-2.7-0.4-4-0.8h-0.1c-2.7-0.8-5.2-2.2-7.3-4.2c-0.5-0.4-0.9-0.9-1.3-1.4c-2.3-2.8-3.3-6.5-2.8-10.1c0-0.3,0.1-0.7,0.2-1
		c0.2-0.9,0.5-1.7,0.9-2.5c0.2-0.4,0.4-0.8,0.5-1.1l6.9-2.3h13.1l9.1,2.5h0.6v0.1l0.3,0.1l-0.1,1.2L252.3,126.6z"/>
</g>
<path class="st4" d="M219.6,71.1c-2.8-0.3-5.9-0.1-8.1,1.7s-2.9,5.5-0.8,7.4c1.8,1.7,4.7,1.3,7.1,1.8c4.4,1,7.5,4.8,7.6,9.3
	c0,6.2-6,10.9-7.1,17c-0.6,4.3,0.9,8.6,4.1,11.5c3.1,2.9,7.2,4.7,11.4,5c4.2,0.3,8.5-0.1,12.6-1.3c4.2-1,8.1-2.7,11.6-5.1
	c3.5-2.4,6.1-6,7.4-10.1c1.2-4.2,0.3-8.7-2.5-12c-3.3-3.6-8.7-4.9-11.5-8.8c-3.2-4.4-2-10.8-4.6-15.6c-1.9-3.2-4.9-5.5-8.4-6.6
	c-3.5-1-7.1-1.5-10.8-1.5c-1.9-0.2-3.8,0-5.7,0.6c-1.9,0.6-3.2,2.3-3.4,4.2C218.3,69.5,218.7,70.5,219.6,71.1z"/>
</svg>
