<svg xmlns="http://www.w3.org/2000/svg" width="288.44" height="309.55" viewBox="0 0 288.44 309.55"><path d="M104.28,15a63.4,63.4,0,1,0,3.59,93.62l77.76,65.61a5.84,5.84,0,0,0,7.55-8.92h0L115.41,99.64A63.4,63.4,0,0,0,104.28,15Zm-5,78.37A47.5,47.5,0,1,1,93.6,26.39h0a47.51,47.51,0,0,1,5.67,66.93Z" style="fill:#403e56"/><path d="M32.34,99a47.49,47.49,0,0,1-8.06-63.85c-.91.92-1.79,1.87-2.64,2.88-16.91,20-13.23,47.78,6.82,64.7s48.87,16.6,65.78-3.45c.85-1,1.64-2,2.39-3.08A47.48,47.48,0,0,1,32.34,99Z" style="fill:#353447;isolation:isolate"/><path d="M261,176.64a6.55,6.55,0,0,0-.91-9.23,6.23,6.23,0,0,0-1-.65l-14.17-58L234.66,112,250,169.66a6.59,6.59,0,0,0,11.08,7Z" style="fill:#edb1b5"/><polygon points="253.72 139.53 246.16 146.05 235.59 155.16 230.92 131.27 230.43 128.78 230.05 126.81 240.76 108.16 249.69 108.67 250.3 108.7 250.31 108.84 250.45 110.09 252.28 126.56 252.33 126.95 253.72 139.53" style="fill:#5e65ea"/><polygon points="204.33 301.69 196.84 301.69 193.28 272.82 204.33 272.82 204.33 301.69" style="fill:#edb1b5"/><path d="M206.24,308.94H182.11v-.31a9.39,9.39,0,0,1,9.39-9.39h14.74Z" style="fill:#302e41"/><polygon points="282.45 302.3 274.97 302.3 271.41 273.43 282.46 273.43 282.45 302.3" style="fill:#edb1b5"/><path d="M284.36,309.55H260.23v-.31a9.4,9.4,0,0,1,9.4-9.39h14.73Z" style="fill:#302e41"/><path d="M288.44,290.81l-20.15,3.05L239,194.69l-31.12,99.78-22.59-3.05,29.3-116v-9.16l4-13.73-.42-3.72-2.88-26L214,111.57l-.09-.73a2.48,2.48,0,0,1,2-2.69h0l9.4-2h15.37l9.06,2.5.62.17.28.08-.14,1.17-2.12,17.81-.12,1-2.05,17.17-.45,3.76c17.7,12.82,18.31,25.64,18.31,25.64Z" style="fill:#302e41"/><circle cx="231.09" cy="83.46" r="14.99" style="fill:#edb1b5"/><rect x="217.33" y="148.29" width="29.91" height="4.27" transform="translate(-17.54 31.39) rotate(-7.45)" style="fill:#5e65ea"/><path d="M177.4,151.52a6.84,6.84,0,0,1,.8.62l29.33-7.48,2-7.08,11.07,1.63-2.33,12.87a4.88,4.88,0,0,1-4.29,4l-34.25,3.6a6.4,6.4,0,1,1-3-8.53A5.9,5.9,0,0,1,177.4,151.52Z" style="fill:#edb1b5"/><path d="M222.52,112l-5.19-4c-1.41-.53-3.33,1-3.66,2.44l-7.33,29.91,15.26,11,2.14-3.36Z" style="fill:#5e65ea"/><g style="opacity:0.20000000298023224"><path d="M252.28,126.56a41.7,41.7,0,0,1-3.95,1.34l-1.3.37a40.54,40.54,0,0,1-8.75,1.41,27.19,27.19,0,0,1-3.83-.1,21.2,21.2,0,0,1-4-.8l-.13,0a17.75,17.75,0,0,1-7.3-4.15,13.34,13.34,0,0,1-1.28-1.43,13,13,0,0,1-2.79-10.09,8.24,8.24,0,0,1,.21-1,15,15,0,0,1,.91-2.5c.16-.38.35-.75.54-1.12l6.9-2.33h13.14l9.06,2.5.61,0v.14l.28.08-.14,1.17Z" style="fill:#010101"/></g><path d="M219.6,71.05c-2.8-.35-5.88-.1-8.07,1.69s-2.89,5.51-.82,7.43c1.83,1.7,4.7,1.3,7.15,1.78a9.69,9.69,0,0,1,7.56,9.26c0,6.21-6,10.91-7.07,17a13.26,13.26,0,0,0,4.08,11.51,19.2,19.2,0,0,0,11.44,5,35.5,35.5,0,0,0,12.58-1.31,35,35,0,0,0,11.62-5.12,18.91,18.91,0,0,0,7.39-10.11,13,13,0,0,0-2.55-12c-3.27-3.62-8.71-4.86-11.54-8.83-3.17-4.45-2-10.78-4.56-15.6a14.63,14.63,0,0,0-8.42-6.58,37.71,37.71,0,0,0-10.8-1.49,14.28,14.28,0,0,0-5.68.62,5.12,5.12,0,0,0-3.44,4.2A2.5,2.5,0,0,0,219.6,71.05Z" style="fill:#302e41"/></svg>