<svg version="1.1" xmlns="http://www.w3.org/2000/svg" viewBox="0 0 465 464.9">
<style type="text/css">
	.st0{fill:none;}
	.st1{fill:#FFFFFF;}
	.st2{fill:#DAA628;}
	.st3{fill:#F2B700;}
	.st4{fill:#DBDDDD;}
	.st5{fill:#ED448A;}
	.st6{fill:#D4127F;}
</style>
<rect x="226.1" y="229.2" class="st0" width="12.8" height="7.2"/>
<rect x="168" y="219.5" class="st1" width="129.1" height="26.5"/>
<path class="st2" d="M396.9,68.1L68.1,396.9c14.5,14.5,30.8,27,48.6,37.2v-42.6h216.9v50.4c23.5-11.3,44.9-26.5,63.3-45
	C487.7,306.1,487.7,158.9,396.9,68.1z"/>
<path class="st1" d="M116.7,391.5v42.6c66.6,38.2,147.7,41.1,216.9,7.8v-50.4H116.7z"/>
<path class="st3" d="M68.1,396.9c-90.8-90.8-90.8-238,0-328.8s238-90.8,328.8,0"/>
<rect x="158" y="57.7" class="st4" width="138.1" height="308.7"/>
<rect x="220.1" y="315.7" class="st0" width="15.4" height="8.7"/>
<rect x="220.1" y="297.7" class="st0" width="15.4" height="9"/>
<rect x="146.3" y="39.7" class="st1" width="71.2" height="246.4"/>
<rect x="148.9" y="308" class="st1" width="155.9" height="32"/>
<rect x="149.8" y="366.4" class="st1" width="155.9" height="32"/>
<rect x="236.6" y="39.1" class="st1" width="69.3" height="247.3"/>
<path class="st5" d="M257.6,118c-7.3-7.3-7.3-19.1,0-26.3s19.1-7.3,26.3,0"/>
<path class="st6" d="M284,91.6c7.3,7.3,7.3,19.1,0,26.3c-7.3,7.3-19.1,7.3-26.3,0l0,0"/>
</svg>
