<svg xmlns="http://www.w3.org/2000/svg" viewBox="0 0 280 240"><defs><style>.cls-1{fill:#00c9a2;}.cls-2{fill:#2bb59a;}.cls-3{fill:#2dbca0;}.cls-4{fill:#fff;}.cls-5{fill:#cecece;}.cls-6{fill:#e5e5e5;}.cls-7{fill:#f22f66;}.cls-8{fill:#e2205c;}</style></defs><title>Add A Context</title><g id="Add_A_Context" data-name="Add A Context"><circle class="cls-1" cx="112" cy="128" r="112"/><circle class="cls-1" cx="112" cy="128" r="112"/><path class="cls-2" d="M156.88,89.93,60.69,186.12H164.46a27.69,27.69,0,0,0,24-41.53Z"/><path class="cls-3" d="M136,53.73a27.69,27.69,0,0,0-48,0L35.56,144.59a27.69,27.69,0,0,0,24,41.53h1.15l96.19-96.19Z"/><ellipse class="cls-4" cx="224.5" cy="56" rx="55.5" ry="56"/><rect class="cls-1" x="220.5" y="38" width="8" height="36"/><rect class="cls-1" x="220.5" y="38" width="8" height="36" transform="translate(168.5 280.5) rotate(-90)"/><path class="cls-5" d="M107.55,82.17a2.77,2.77,0,0,0,.74-2.81h7.42a2.77,2.77,0,0,0,.74,2.81Z"/><path class="cls-6" d="M112,55.29c-6.18,0-11.19,5.55-11.19,12.4A13.13,13.13,0,0,0,103.69,76l16.61-16.61A10.71,10.71,0,0,0,112,55.29Z"/><path class="cls-5" d="M103.69,76A10.71,10.71,0,0,0,112,80.09c6.18,0,11.19-5.55,11.19-12.4a13.13,13.13,0,0,0-2.88-8.31Z"/><path class="cls-7" d="M112,80.76c-9.21,0-16.68,7.14-16.68,16H104l14.63-14.63A17.28,17.28,0,0,0,112,80.76Z"/><path class="cls-8" d="M118.65,82.08,104,96.71h24.66A16,16,0,0,0,118.65,82.08Z"/><path class="cls-5" d="M151.92,156.15a2.77,2.77,0,0,0,.74-2.81h7.42a2.77,2.77,0,0,0,.74,2.81Z"/><path class="cls-6" d="M156.36,129.27c-6.18,0-11.19,5.55-11.19,12.4a13.13,13.13,0,0,0,2.88,8.31l16.61-16.61A10.71,10.71,0,0,0,156.36,129.27Z"/><path class="cls-5" d="M148.06,150a10.71,10.71,0,0,0,8.31,4.09c6.18,0,11.19-5.55,11.19-12.4a13.13,13.13,0,0,0-2.88-8.31Z"/><path class="cls-7" d="M156.36,154.73c-9.21,0-16.68,7.14-16.68,16h8.71L163,156.06A17.28,17.28,0,0,0,156.36,154.73Z"/><path class="cls-8" d="M163,156.06l-14.63,14.63H173A16,16,0,0,0,163,156.06Z"/><path class="cls-5" d="M63.19,156.15a2.77,2.77,0,0,0,.74-2.81h7.42a2.77,2.77,0,0,0,.74,2.81Z"/><path class="cls-6" d="M67.64,129.27c-6.18,0-11.19,5.55-11.19,12.4A13.13,13.13,0,0,0,59.33,150l16.61-16.61A10.71,10.71,0,0,0,67.64,129.27Z"/><path class="cls-5" d="M59.33,150a10.71,10.71,0,0,0,8.31,4.09c6.18,0,11.19-5.55,11.19-12.4a13.13,13.13,0,0,0-2.88-8.31Z"/><path class="cls-7" d="M67.64,154.73c-9.21,0-16.68,7.14-16.68,16h8.71l14.63-14.63A17.28,17.28,0,0,0,67.64,154.73Z"/><path class="cls-8" d="M74.29,156.06,59.66,170.69H84.32A16,16,0,0,0,74.29,156.06Z"/></g></svg>