<svg xmlns="http://www.w3.org/2000/svg" viewBox="0 0 280 240"><defs><style>.cls-1{fill:#00c9a2;}.cls-2{fill:#fff;}.cls-3{fill:#f22f66;}.cls-4{fill:#e2205c;}.cls-5{fill:#ededed;}.cls-6{fill:#f9f9f9;}</style></defs><title>Add A Screen</title><g id="Add_A_Screen" data-name="Add A Screen"><circle class="cls-1" cx="112" cy="128" r="112"/><ellipse class="cls-2" cx="224.5" cy="56" rx="55.5" ry="56"/><rect class="cls-1" x="220.5" y="38" width="8" height="36"/><rect class="cls-1" x="220.5" y="38" width="8" height="36" transform="translate(168.5 280.5) rotate(-90)"/><rect class="cls-3" x="70.57" y="78" width="20" height="100"/><rect class="cls-3" x="62" y="86.57" width="15.71" height="82.86"/><rect class="cls-3" x="82" y="86.57" width="17.14" height="82.86"/><polygon class="cls-4" points="99.14 169.43 82 169.43 82 123.71 99.14 106.57 99.14 169.43"/><circle class="cls-3" cx="90.57" cy="86.57" r="8.57"/><circle class="cls-3" cx="70.57" cy="86.57" r="8.57"/><circle class="cls-4" cx="70.57" cy="169.43" r="8.57"/><circle class="cls-4" cx="90.57" cy="169.43" r="8.57"/><circle class="cls-5" cx="142" cy="98" r="20"/><path class="cls-6" d="M142,78a20,20,0,0,0-14.14,34.14l28.28-28.28A19.94,19.94,0,0,0,142,78Z"/><circle class="cls-5" cx="142" cy="158" r="20"/><path class="cls-6" d="M142,138a20,20,0,0,0-14.14,34.14l28.28-28.28A19.94,19.94,0,0,0,142,138Z"/><polygon class="cls-4" points="90.57 178 70.57 178 70.57 135.14 90.57 115.14 90.57 178"/><polygon class="cls-4" points="77.71 169.43 62 169.43 62 143.71 77.71 128 77.71 169.43"/></g></svg>