<svg xmlns="http://www.w3.org/2000/svg" viewBox="0 0 280 240"><defs><style>.cls-1{fill:#00c9a2;}.cls-2{fill:#e5e5e5;}.cls-3{fill:#d6d6d6;}.cls-4{fill:#f22f66;}.cls-5{fill:#e2205c;}.cls-6{fill:#fff;}</style></defs><title>Add A Relationship</title><g id="Add_A_Relationship" data-name="Add A Relationship"><circle class="cls-1" cx="112" cy="128" r="112"/><rect class="cls-2" x="186.13" y="84.7" width="6.15" height="56.73" transform="translate(203.79 332.99) rotate(-124.66)"/><rect class="cls-2" x="97.86" y="84.7" width="6.15" height="56.73" transform="translate(-49.47 131.8) rotate(-55.34)"/><path class="cls-3" d="M127.72,196.5c3.26-3.12,7.4-10.69,6.55-12.81h21.61c-.85,2.12,3.29,9.69,6.55,12.81Z"/><path class="cls-2" d="M145.07,110.06c-19.41,0-35.15,17.44-35.15,39A41.25,41.25,0,0,0,119,175.11l52.19-52.19C164.73,115,155.42,110.06,145.07,110.06Z"/><path class="cls-3" d="M119,175.11C125.41,183,134.71,188,145.07,188c19.41,0,35.15-17.44,35.15-39a41.25,41.25,0,0,0-9.05-26.09Z"/><path class="cls-4" d="M166,194.21,120.5,239.68a113.18,113.18,0,0,1-27.81-1.34c.83-22.28,16.9-40.85,38.52-46.51,4.47,4.47,23.22,4.49,27.7,0A53.68,53.68,0,0,1,166,194.21Z"/><path class="cls-5" d="M187.48,210.74a111.49,111.49,0,0,1-67,28.94L166,194.21A52.21,52.21,0,0,1,187.48,210.74Z"/><ellipse class="cls-6" cx="224.5" cy="56" rx="55.5" ry="56"/><rect class="cls-1" x="220.5" y="38" width="8" height="36"/><rect class="cls-1" x="220.5" y="38" width="8" height="36" transform="translate(168.5 280.5) rotate(-90)"/><path class="cls-3" d="M57.56,120.76c1.63-1.56,3.7-5.34,3.27-6.41H71.64c-.42,1.06,1.65,4.84,3.27,6.41Z"/><path class="cls-2" d="M66.23,77.54c-9.71,0-17.57,8.72-17.57,19.48a20.62,20.62,0,0,0,4.53,13L79.28,84A16.83,16.83,0,0,0,66.23,77.54Z"/><path class="cls-3" d="M53.19,110.06a16.83,16.83,0,0,0,13,6.43c9.71,0,17.57-8.72,17.57-19.48a20.62,20.62,0,0,0-4.53-13Z"/><path class="cls-4" d="M76.69,119.61l-23,23H40c0-11.55,8.18-21.27,19.28-24.17a15.13,15.13,0,0,0,13.85,0A26.84,26.84,0,0,1,76.69,119.61Z"/><path class="cls-5" d="M76.69,119.61l-23,23H92.44A25.05,25.05,0,0,0,76.69,119.61Z"/></g></svg>