<svg xmlns="http://www.w3.org/2000/svg" viewBox="0 0 226 30"><defs><style>.cls-1{fill:#2d2955;}.cls-2{fill:#fff;}</style></defs><title>Cancel</title><g id="Cancel"><rect class="cls-1" width="226" height="30"/><path class="cls-2" d="M68.4,4.06a1.53,1.53,0,0,1-.28.8,1.13,1.13,0,0,1-.92.44,1.19,1.19,0,0,1-.64-.2,12.42,12.42,0,0,0-7-2.12A11.47,11.47,0,0,0,53.7,4.5a10.83,10.83,0,0,0-4.12,4.26A12.74,12.74,0,0,0,48.08,15a12.76,12.76,0,0,0,1.52,6.3,10.82,10.82,0,0,0,4.14,4.24A11.51,11.51,0,0,0,59.56,27a12.4,12.4,0,0,0,7-2.08,1.26,1.26,0,0,1,.68-.2,1.1,1.1,0,0,1,.92.48,1.12,1.12,0,0,1,.28.76,1,1,0,0,1-.56,1A14.64,14.64,0,0,1,64,28.68a15.12,15.12,0,0,1-4.44.7,14,14,0,0,1-7-1.82,13.51,13.51,0,0,1-5.12-5.1A14.64,14.64,0,0,1,45.52,15,14.56,14.56,0,0,1,47.4,7.64a13.68,13.68,0,0,1,5.08-5.16A13.83,13.83,0,0,1,59.56.62a15.22,15.22,0,0,1,4.38.64,14.08,14.08,0,0,1,3.86,1.8A1.11,1.11,0,0,1,68.4,4.06Z"/><path class="cls-2" d="M100.84,27.86a1.07,1.07,0,0,1-.36.84,1.23,1.23,0,0,1-.84.32,1.15,1.15,0,0,1-.7-.22,1.4,1.4,0,0,1-.46-.58l-3-7.32h-13l-3,7.32a1.11,1.11,0,0,1-1.08.8,1.14,1.14,0,0,1-.84-.28,1.16,1.16,0,0,1-.32-.76v-.12a1.19,1.19,0,0,1,0-.36L87.88,1.66a1.19,1.19,0,0,1,1.2-.8,1.15,1.15,0,0,1,.7.22,1.42,1.42,0,0,1,.46.58l10.52,25.72A2.18,2.18,0,0,1,100.84,27.86ZM83.4,18.54H94.52L88.92,4.86Z"/><path class="cls-2" d="M133.46,1.3a1.13,1.13,0,0,1,.3.8V27.7A1.2,1.2,0,0,1,132.52,29a1.27,1.27,0,0,1-.54-.12,1.43,1.43,0,0,1-.42-.28L114.4,5.46V27.9a1,1,0,0,1-.34.76,1.11,1.11,0,0,1-.78.32,1.08,1.08,0,0,1-.8-.32,1,1,0,0,1-.32-.76V2.18A1.13,1.13,0,0,1,113.32,1a1.11,1.11,0,0,1,1,.44l17.24,23.24V2.1A1.09,1.09,0,0,1,132.64,1,1.07,1.07,0,0,1,133.46,1.3Z"/><path class="cls-2" d="M168.72,4.06a1.53,1.53,0,0,1-.28.8,1.13,1.13,0,0,1-.92.44,1.19,1.19,0,0,1-.64-.2,12.42,12.42,0,0,0-7-2.12A11.47,11.47,0,0,0,154,4.5a10.83,10.83,0,0,0-4.12,4.26A12.74,12.74,0,0,0,148.4,15a12.76,12.76,0,0,0,1.52,6.3,10.82,10.82,0,0,0,4.14,4.24,11.51,11.51,0,0,0,5.82,1.5,12.4,12.4,0,0,0,7-2.08,1.26,1.26,0,0,1,.68-.2,1.1,1.1,0,0,1,.92.48,1.12,1.12,0,0,1,.28.76,1,1,0,0,1-.56,1,14.64,14.64,0,0,1-3.84,1.74,15.12,15.12,0,0,1-4.44.7,14,14,0,0,1-7-1.82,13.51,13.51,0,0,1-5.12-5.1,14.64,14.64,0,0,1-1.9-7.48,14.56,14.56,0,0,1,1.88-7.34,13.68,13.68,0,0,1,5.08-5.16A13.83,13.83,0,0,1,159.88.62a15.22,15.22,0,0,1,4.38.64,14.08,14.08,0,0,1,3.86,1.8A1.11,1.11,0,0,1,168.72,4.06Z"/><path class="cls-2" d="M196.94,27a1.19,1.19,0,0,1,.34.84,1.1,1.1,0,0,1-.34.84,1.21,1.21,0,0,1-.86.32H181.4a1.16,1.16,0,0,1-1.2-1.2V2.18A1.16,1.16,0,0,1,181.4,1h14.68a1.16,1.16,0,0,1,1.2,1.2,1.1,1.1,0,0,1-.34.84,1.2,1.2,0,0,1-.86.32H182.72v10h11.56a1.16,1.16,0,0,1,1.2,1.2,1.1,1.1,0,0,1-.34.84,1.2,1.2,0,0,1-.86.32H182.72V26.62h13.36A1.13,1.13,0,0,1,196.94,27Z"/><path class="cls-2" d="M225.66,26.94a1.1,1.1,0,0,1,.34.84,1.16,1.16,0,0,1-1.2,1.2H210.52a1.16,1.16,0,0,1-1.2-1.2V2.18a1.13,1.13,0,0,1,.36-.86A1.29,1.29,0,0,1,210.6,1a1.24,1.24,0,0,1,.88.34,1.13,1.13,0,0,1,.36.86V26.62h13A1.21,1.21,0,0,1,225.66,26.94Z"/><rect class="cls-2" x="-5.23" y="14" width="40.45" height="2" transform="translate(-6.21 15.02) rotate(-45.04)"/><rect class="cls-2" x="14" y="-5.23" width="2" height="40.45" transform="translate(-6.21 14.99) rotate(-44.96)"/></g></svg>