<svg xmlns="http://www.w3.org/2000/svg" viewBox="0 0 66 60"><defs><style>.cls-1{fill:#4dc7eb;}.cls-2{fill:#00aee2;}.cls-3{fill:#2d2955;}.cls-4{fill:#3e3b63;}</style></defs><title>Contexts - Sea Serpent</title><g id="Contexts_-_Sea_Serpent" data-name="Contexts - Sea Serpent"><circle class="cls-1" cx="33" cy="9.4" r="9.4"/><circle class="cls-1" cx="9.4" cy="50.6" r="9.4"/><circle class="cls-2" cx="56.6" cy="50.6" r="9.4"/><polygon class="cls-1" points="47.36 15.52 4.53 58.51 0.97 46.45 24.84 4.72 41.15 4.72 47.36 15.52"/><polygon class="cls-2" points="47.36 15.52 4.45 58.59 9.43 60 56.57 60 64.72 45.76 47.36 15.52"/><path class="cls-2" d="M9.4,60a9.35,9.35,0,0,1-4.95-1.4Z"/><circle class="cls-3" cx="33" cy="20.54" r="7.5"/><path class="cls-4" d="M33,13a7.5,7.5,0,0,0-5.3,12.8L38.3,15.24A7.48,7.48,0,0,0,33,13Z"/><circle class="cls-3" cx="20.36" cy="44.98" r="7.5"/><path class="cls-4" d="M20.36,37.48a7.5,7.5,0,0,0-5.3,12.8L25.66,39.68A7.48,7.48,0,0,0,20.36,37.48Z"/><circle class="cls-3" cx="45.64" cy="44.98" r="7.5"/><path class="cls-4" d="M45.64,37.48a7.5,7.5,0,0,0-5.3,12.8L50.94,39.68A7.48,7.48,0,0,0,45.64,37.48Z"/></g></svg>