<svg xmlns="http://www.w3.org/2000/svg" viewBox="0 0 160 160"><defs><style>.cls-1{fill:#2d2955;}.cls-2{fill:#3b3a76;opacity:0.5;}.cls-3{fill:#00c9a2;}</style></defs><title>Form Arrow - Left</title><g id="Form_Arrow_-_Left" data-name="Form Arrow - Left"><rect class="cls-1" width="160" height="160"/><path class="cls-2" d="M80,0h80a0,0,0,0,1,0,0V160a0,0,0,0,1,0,0H80A80,80,0,0,1,0,80v0A80,80,0,0,1,80,0Z" transform="translate(160 160) rotate(180)"/><circle class="cls-3" cx="102.47" cy="80" r="4.53"/><rect class="cls-3" x="62.06" y="58.14" width="8.85" height="29.28" transform="translate(70.93 -25.69) rotate(45)"/><circle class="cls-3" cx="76.83" cy="62.42" r="4.42" transform="translate(-21.64 72.61) rotate(-45)"/><rect class="cls-3" x="65.18" y="80.11" width="8.85" height="20.46" transform="translate(-43.5 75.68) rotate(-45)"/><circle class="cls-3" cx="76.83" cy="97.58" r="4.42" transform="translate(-46.49 82.91) rotate(-45)"/><rect class="cls-3" x="77.4" y="59.46" width="9.06" height="41.08" transform="translate(1.93 161.93) rotate(-90)"/></g></svg>