<svg xmlns="http://www.w3.org/2000/svg" viewBox="0 0 160 160"><defs><style>.cls-1{fill:#2d2955;}.cls-2{fill:#3b3a76;opacity:0.5;}.cls-3{fill:#00c9a2;}</style></defs><title>Form Arrow - Right</title><g id="Form_Arrow_-_Right" data-name="Form Arrow - Right"><rect class="cls-1" width="160" height="160"/><path class="cls-2" d="M80,0h80a0,0,0,0,1,0,0V160a0,0,0,0,1,0,0H80A80,80,0,0,1,0,80v0A80,80,0,0,1,80,0Z"/><circle class="cls-3" cx="57.53" cy="80" r="4.53"/><rect class="cls-3" x="89.09" y="58.14" width="8.85" height="29.28" transform="translate(211.11 58.11) rotate(135)"/><circle class="cls-3" cx="83.17" cy="62.42" r="4.42" transform="translate(-19.78 77.09) rotate(-45)"/><rect class="cls-3" x="85.98" y="80.11" width="8.85" height="20.46" transform="translate(90.44 218.15) rotate(-135)"/><circle class="cls-3" cx="83.17" cy="97.58" r="4.42" transform="translate(-44.64 87.39) rotate(-45)"/><rect class="cls-3" x="73.54" y="59.46" width="9.06" height="41.08" transform="translate(-1.93 158.07) rotate(-90)"/></g></svg>