<svg xmlns="http://www.w3.org/2000/svg" viewBox="0 0 180 180"><defs><style>.cls-1{fill:#f22f66;}.cls-2{fill:#e2205c;}.cls-3{fill:#f9f9f9;}.cls-4{fill:#ededed;}.cls-5{fill:#00c9a2;}</style></defs><title>Info</title><g id="Info"><circle class="cls-1" cx="90" cy="155.78" r="24"/><path class="cls-2" d="M106.77,138.62,72.84,172.55a24,24,0,1,0,33.93-33.93Z"/><circle class="cls-3" cx="90" cy="81.8" r="49.45"/><path class="cls-3" d="M90,103.4v48.16H65.88c-2.93-16.78-13-33.86-19-45.53-.47-.9-.92-1.77-1.38-2.6a0,0,0,0,0,0,0Z"/><path class="cls-3" d="M134.49,103.4c-.5.93-1,1.91-1.54,2.92a.41.41,0,0,1-.05.09c-6,11.66-15.88,28.56-18.78,45.15H90V103.4Z"/><path class="cls-3" d="M90,103.4v48.16H65.88c-2.93-16.78-13-33.86-19-45.53-.47-.9-.92-1.77-1.38-2.6a0,0,0,0,0,0,0Z"/><path class="cls-4" d="M131.65,55.17,83.43,103.4h51.06c-.47.88-1,1.81-1.46,2.77a49.4,49.4,0,0,0-1.37-51Z"/><path class="cls-4" d="M90,131.25h0v20.31h24.12c2.9-16.59,12.8-33.49,18.78-45.15a.41.41,0,0,0,.05-.09l.08-.15A49.42,49.42,0,0,1,90,131.25Z"/><path class="cls-4" d="M90,103.4v27.85h0a49.42,49.42,0,0,0,43-25.09c.49-1,1-1.88,1.46-2.77Z"/><path class="cls-4" d="M63.37,123.46l-5.07,5.07a98.57,98.57,0,0,1,7.58,23H90V131.25A49.2,49.2,0,0,1,63.37,123.46Z"/><path class="cls-4" d="M90,131.25V103.4H83.43L63.37,123.46A49.2,49.2,0,0,0,90,131.25Z"/><rect class="cls-1" x="64" y="147.56" width="52" height="8"/><circle class="cls-2" cx="116" cy="151.56" r="4"/><circle class="cls-1" cx="64" cy="151.56" r="4"/><polygon class="cls-2" points="116 155.56 89.83 155.56 97.83 147.56 116 147.56 116 155.56"/><path class="cls-1" d="M107.59,79.24a11,11,0,0,0-11,11v6H83.46v-6a11,11,0,1,0-11,11h6v46.24h5V101.32H96.55v46.24h5V101.32h6a11,11,0,1,0,0-22.08Zm-29.15,17h-6a6,6,0,1,1,6-6Zm29.15,0h-6v-6a6,6,0,1,1,6,6Z"/><path class="cls-3" d="M46.89,106c-.42-.8-.82-1.57-1.23-2.32Q46.25,104.88,46.89,106Z"/><path class="cls-3" d="M45.51,103.4a0,0,0,0,1,0,0l.15.28-.16-.31Z"/><circle class="cls-5" cx="90" cy="4" r="4"/><circle class="cls-5" cx="90" cy="16" r="4"/><rect class="cls-5" x="86" y="4" width="8" height="12"/><circle class="cls-5" cx="47" cy="15.52" r="4" transform="translate(-1.46 25.58) rotate(-30)"/><circle class="cls-5" cx="53" cy="25.91" r="4" transform="translate(-5.86 29.97) rotate(-30)"/><rect class="cls-5" x="46" y="14.72" width="8" height="12" transform="translate(-3.66 27.78) rotate(-30)"/><circle class="cls-5" cx="15.52" cy="47" r="4" transform="translate(-32.94 36.94) rotate(-60)"/><circle class="cls-5" cx="25.91" cy="53" r="4" transform="translate(-32.94 48.94) rotate(-60)"/><rect class="cls-5" x="16.72" y="44" width="8" height="12" transform="translate(-32.94 42.94) rotate(-60)"/><circle class="cls-5" cx="4" cy="90" r="4"/><circle class="cls-5" cx="16" cy="90" r="4"/><rect class="cls-5" x="6" y="84" width="8" height="12" transform="translate(-80 100) rotate(-90)"/><circle class="cls-5" cx="15.52" cy="133" r="4" transform="translate(-64.42 25.58) rotate(-30)"/><circle class="cls-5" cx="25.91" cy="127" r="4" transform="translate(-60.03 29.97) rotate(-30)"/><rect class="cls-5" x="16.72" y="124" width="8" height="12" transform="translate(-81.51 212.94) rotate(-120)"/><circle class="cls-5" cx="164.48" cy="133" r="4" transform="translate(-32.94 208.94) rotate(-60)"/><circle class="cls-5" cx="154.09" cy="127" r="4" transform="translate(-32.94 196.94) rotate(-60)"/><rect class="cls-5" x="155.28" y="124" width="8" height="12" transform="translate(351.51 57.06) rotate(120)"/><circle class="cls-5" cx="176" cy="90" r="4"/><circle class="cls-5" cx="164" cy="90" r="4"/><rect class="cls-5" x="166" y="84" width="8" height="12" transform="translate(260 -80) rotate(90)"/><circle class="cls-5" cx="164.48" cy="47" r="4" transform="translate(-1.46 88.54) rotate(-30)"/><circle class="cls-5" cx="154.09" cy="53" r="4" transform="translate(-5.86 84.14) rotate(-30)"/><rect class="cls-5" x="155.28" y="44" width="8" height="12" transform="translate(122.94 -112.94) rotate(60)"/><circle class="cls-5" cx="133" cy="15.52" r="4" transform="matrix(0.5, -0.87, 0.87, 0.5, 53.06, 122.94)"/><circle class="cls-5" cx="127" cy="25.91" r="4" transform="translate(41.06 122.94) rotate(-60)"/><rect class="cls-5" x="126" y="14.72" width="8" height="12" transform="matrix(0.87, 0.5, -0.5, 0.87, 27.78, -62.22)"/></g></svg>