<svg xmlns="http://www.w3.org/2000/svg" viewBox="0 0 60 70"><defs><style>.cls-1{fill:#f7f7f7;}.cls-2{fill:#e8e8e8;}</style></defs><title>Menu - Download Data Selected</title><g id="Menu_-_Download_Data_Selected" data-name="Menu - Download Data Selected"><rect class="cls-1" x="26.5" y="40" width="7" height="53" transform="translate(-36.5 96.5) rotate(-90)"/><polygon class="cls-2" points="56.5 63 56.5 70 24.32 70 31.31 63 56.5 63"/><circle class="cls-1" cx="3.5" cy="66.5" r="3.5"/><circle class="cls-2" cx="56.5" cy="66.5" r="3.5"/><path class="cls-2" d="M60,30.08H53a23,23,0,1,0-46,0H0a30,30,0,1,1,60,0Z"/><path class="cls-1" d="M30,0A30.07,30.07,0,0,0,0,30.08H7a23,23,0,0,1,30-22l5.4-5.4A29.75,29.75,0,0,0,30,0Z"/><circle class="cls-2" cx="56.5" cy="30.08" r="3.5"/><circle class="cls-1" cx="3.5" cy="30.08" r="3.5"/><rect class="cls-2" x="26.4" y="19.88" width="7" height="29.7"/><polygon class="cls-1" points="33.4 35.81 26.4 42.81 26.4 19.88 33.4 19.88 33.4 35.81"/><circle class="cls-1" cx="29.9" cy="19.88" r="3.5"/><rect class="cls-2" x="32.06" y="35.65" width="6.84" height="22.63" transform="translate(27.36 105.26) rotate(-135)"/><circle class="cls-2" cx="43.48" cy="38.96" r="3.42" transform="translate(-14.82 42.16) rotate(-45)"/><rect class="cls-2" x="18.49" y="36.65" width="6.84" height="15.81" transform="translate(-25.09 28.54) rotate(-45)"/><rect class="cls-1" x="16.37" y="37.53" width="6.84" height="9.82" transform="translate(-24.21 26.42) rotate(-45)"/><circle class="cls-1" cx="16.32" cy="38.96" r="3.42" transform="translate(-22.77 22.95) rotate(-45)"/></g></svg>