<svg xmlns="http://www.w3.org/2000/svg" viewBox="0 0 80 70"><defs><style>.cls-1{fill:#ccc;}.cls-2{fill:#e8e8e8;}</style></defs><title>Menu</title><g id="Menu"><path class="cls-1" d="M75,0H45L35,10H75A5,5,0,0,0,75,0Z"/><path class="cls-2" d="M5,0A5,5,0,0,0,5,10H35L45,0Z"/><circle class="cls-1" cx="75" cy="5" r="5"/><circle class="cls-2" cx="5" cy="5" r="5"/><rect class="cls-2" x="5" width="70" height="10"/><polygon class="cls-1" points="45 0 75 0 75 10 35 10 45 0"/><path class="cls-1" d="M75,60H45L35,70H75a5,5,0,0,0,0-10Z"/><path class="cls-2" d="M5,60A5,5,0,0,0,5,70H35L45,60Z"/><circle class="cls-1" cx="75" cy="65" r="5"/><circle class="cls-2" cx="5" cy="65" r="5"/><rect class="cls-2" x="5" y="60" width="70" height="10"/><polygon class="cls-1" points="45 60 75 60 75 70 35 70 45 60"/><path class="cls-1" d="M75,30H45L35,40H75a5,5,0,0,0,0-10Z"/><path class="cls-2" d="M5,30A5,5,0,0,0,5,40H35L45,30Z"/><circle class="cls-1" cx="75" cy="35" r="5"/><circle class="cls-2" cx="5" cy="35" r="5"/><rect class="cls-2" x="5" y="30" width="70" height="10"/><polygon class="cls-1" points="45 30 75 30 75 40 35 40 45 30"/></g></svg>