<svg xmlns="http://www.w3.org/2000/svg" viewBox="0 0 70 70"><defs><style>.cls-1{fill:#f7f7f7;}.cls-2{fill:#e8e8e8;}</style></defs><title>Menu - Sociogram Selected</title><g id="Menu_-_Sociogram_Selected" data-name="Menu - Sociogram Selected"><rect class="cls-1" x="13.77" y="30" width="27.46" height="3" transform="translate(-13.91 37.33) rotate(-56.9)"/><rect class="cls-1" x="41" y="17.77" width="3" height="27.46" transform="translate(-10.31 28.33) rotate(-33.11)"/><rect class="cls-1" x="20" y="42" width="30" height="3"/><path class="cls-2" d="M35,4A31,31,0,1,1,4,35,31,31,0,0,1,35,4m0-4A35,35,0,1,0,70,35,35,35,0,0,0,35,0Z"/><circle class="cls-2" cx="35" cy="20.5" r="7.5"/><path class="cls-1" d="M35,13a7.5,7.5,0,0,0-5.3,12.8L40.3,15.2A7.48,7.48,0,0,0,35,13Z"/><circle class="cls-2" cx="20.5" cy="43.5" r="7.5"/><path class="cls-1" d="M20.5,36a7.5,7.5,0,0,0-5.3,12.8L25.8,38.2A7.48,7.48,0,0,0,20.5,36Z"/><circle class="cls-2" cx="49.5" cy="43.5" r="7.5"/><path class="cls-1" d="M49.5,36a7.5,7.5,0,0,0-5.3,12.8L54.8,38.2A7.48,7.48,0,0,0,49.5,36Z"/></g></svg>