<svg xmlns="http://www.w3.org/2000/svg" viewBox="0 0 70 60"><defs><style>.cls-1{fill:#00c9a2;}.cls-2{fill:#00b18f;}</style></defs><title>Menu - NG</title><g id="Menu_-_NG" data-name="Menu - NG"><path class="cls-1" d="M33.69,37c-1.46,0-4.87-2.69-3.91-4h-9.5c1,1.35-2.44,4-3.91,4L25,40.89Z"/><path class="cls-1" d="M35.94,37.73l-21,21A40,40,0,0,1,0,51.22,27.09,27.09,0,0,1,18,36.44,13.06,13.06,0,0,0,25,38.54a13.29,13.29,0,0,0,7.05-2.1A28.24,28.24,0,0,1,35.94,37.73Z"/><path class="cls-2" d="M50.1,51.22A40.19,40.19,0,0,1,15,58.72l21-21A26.86,26.86,0,0,1,50.1,51.22Z"/><path class="cls-1" d="M25,0C16.52,0,9.61,7.66,9.61,17.11a18.12,18.12,0,0,0,4,11.46L36.51,5.65A14.78,14.78,0,0,0,25,0Z"/><path class="cls-2" d="M13.58,28.58A14.78,14.78,0,0,0,25,34.23c8.53,0,15.44-7.66,15.44-17.11a18.12,18.12,0,0,0-4-11.46Z"/><path class="cls-1" d="M62.47,28.23c-.67,0-2.23-1.24-1.79-1.85H56.31c.44.62-1.12,1.85-1.79,1.85l4,1.77Z"/><path class="cls-1" d="M63.5,28.55l-9.64,9.64A18.35,18.35,0,0,1,47,34.74,12.44,12.44,0,0,1,55.26,28a6,6,0,0,0,3.24,1,6.1,6.1,0,0,0,3.24-1A13,13,0,0,1,63.5,28.55Z"/><path class="cls-2" d="M70,34.74a18.45,18.45,0,0,1-16.13,3.44l9.64-9.64A12.33,12.33,0,0,1,70,34.74Z"/><path class="cls-1" d="M58.5,11.23c-3.92,0-7.09,3.52-7.09,7.86a8.32,8.32,0,0,0,1.83,5.26L63.76,13.82A6.79,6.79,0,0,0,58.5,11.23Z"/><path class="cls-2" d="M53.24,24.35a6.79,6.79,0,0,0,5.26,2.59c3.92,0,7.09-3.52,7.09-7.86a8.32,8.32,0,0,0-1.83-5.26Z"/></g></svg>