<svg xmlns="http://www.w3.org/2000/svg" viewBox="0 0 60 70"><defs><style>.cls-1{fill:#5960dd;}.cls-2{fill:#6b72ec;}</style></defs><title>Menu - Purge Data</title><g id="Menu_-_Purge" data-name="Menu - Purge"><rect class="cls-1" x="32.16" y="21.58" width="8" height="8" rx="3.95" ry="3.95"/><rect class="cls-1" x="48.84" y="14.58" width="8" height="8" rx="3.95" ry="3.95"/><polygon class="cls-2" points="46.81 70 13.19 70 5 26 55 26 46.81 70"/><polygon class="cls-1" points="55 26 46.81 70 13.19 70 12.38 65.62 52 26 55 26"/><rect class="cls-2" x="4.05" y="6.66" width="51.91" height="9.16" transform="translate(-1.65 6.29) rotate(-11.65)"/><polygon class="cls-1" points="56.34 10.49 25.12 16.93 32.24 6.1 54.49 1.51 56.34 10.49"/><circle class="cls-2" cx="4.58" cy="16.48" r="4.58" transform="translate(-3.23 1.26) rotate(-11.65)"/><circle class="cls-1" cx="55.42" cy="6" r="4.58" transform="translate(-0.07 11.32) rotate(-11.65)"/><rect class="cls-2" x="18.31" y="2.18" width="21.54" height="9.16" transform="translate(-0.77 6.01) rotate(-11.65)"/><polygon class="cls-1" points="40.55 9.07 28.67 11.52 35.83 0.69 38.7 0.1 40.55 9.07"/><circle class="cls-2" cx="18.53" cy="8.93" r="4.58" transform="translate(-1.42 3.93) rotate(-11.65)"/><circle class="cls-1" cx="39.62" cy="4.58" r="4.58" transform="translate(-0.11 8.1) rotate(-11.65)"/></g></svg>