<svg xmlns="http://www.w3.org/2000/svg" viewBox="0 0 70 60"><defs><style>.cls-1{fill:#f7f7f7;}.cls-2{fill:#e8e8e8;}</style></defs><title>Menu - ORD Selected</title><g id="Menu_-_ORD_Selected" data-name="Menu - ORD Selected"><polygon class="cls-1" points="63.73 0 57.46 9.38 70 9.38 63.73 0"/><rect class="cls-1" x="62.23" y="8" width="3" height="52"/><rect class="cls-1" x="19" y="27" width="12" height="20"/><circle class="cls-1" cx="25" cy="27" r="6"/><circle class="cls-2" cx="25" cy="54" r="6"/><rect class="cls-2" x="19" y="42" width="12" height="12"/><polygon class="cls-2" points="31 42 19 42 31 30.34 31 42"/><rect class="cls-1" y="39" width="12" height="12"/><circle class="cls-1" cx="6" cy="39" r="6"/><circle class="cls-2" cx="6" cy="54" r="6"/><polygon class="cls-2" points="12 54 0 54 0 51 3.09 48 12 48 12 54"/><polygon class="cls-2" points="12 51 0 51 12 39.34 12 51"/><rect class="cls-1" x="38" y="16" width="12" height="31"/><circle class="cls-1" cx="44" cy="16" r="6"/><circle class="cls-2" cx="44" cy="54" r="6"/><rect class="cls-2" x="38" y="34.18" width="12" height="19.82"/><polygon class="cls-2" points="50 34.18 38 34.18 50 22.52 50 34.18"/></g></svg>