<svg xmlns="http://www.w3.org/2000/svg" viewBox="0 0 60 60"><defs><style>.cls-1{fill:#00c9a2;}.cls-2{fill:#00b18f;}</style></defs><title>Menu - Default Interface</title><g id="Menu_-_Default_Interface" data-name="Menu - Default Interface"><rect class="cls-1" x="5.14" width="12" height="60"/><rect class="cls-1" y="5.14" width="9.43" height="49.71"/><rect class="cls-1" x="12" y="5.14" width="10.29" height="49.71"/><polygon class="cls-2" points="22.29 54.86 12 54.86 12 27.43 22.29 17.14 22.29 54.86"/><circle class="cls-1" cx="17.14" cy="5.14" r="5.14"/><circle class="cls-1" cx="5.14" cy="5.14" r="5.14"/><circle class="cls-2" cx="5.14" cy="54.86" r="5.14"/><circle class="cls-2" cx="17.14" cy="54.86" r="5.14"/><polygon class="cls-2" points="17.14 60 5.14 60 5.14 34.29 17.14 22.29 17.14 60"/><polygon class="cls-2" points="9.43 54.86 0 54.86 0 39.43 9.43 30 9.43 54.86"/><circle class="cls-2" cx="48.86" cy="48.86" r="11.14"/><path class="cls-1" d="M48.86,37.71a11.14,11.14,0,0,0-7.88,19L56.74,41A11.11,11.11,0,0,0,48.86,37.71Z"/><circle class="cls-2" cx="48.86" cy="11.14" r="11.14"/><path class="cls-1" d="M48.86,0A11.14,11.14,0,0,0,41,19L56.74,3.26A11.11,11.11,0,0,0,48.86,0Z"/></g></svg>