<svg xmlns="http://www.w3.org/2000/svg" viewBox="0 0 70 70"><defs><style>.cls-1{fill:#f7f7f7;}.cls-2{fill:#e8e8e8;}</style></defs><title>Menu - Custom Interface Selected</title><g id="Menu_-_Custom_Interface_Selected" data-name="Menu - Custom Interface Selected"><rect class="cls-1" x="7" y="-7" width="5" height="19" transform="translate(12 -7) rotate(90)"/><circle class="cls-1" cx="18.5" cy="2.5" r="2.5"/><rect class="cls-1" width="5" height="19" transform="translate(5 19) rotate(180)"/><circle class="cls-1" cx="2.5" cy="18.5" r="2.5"/><rect class="cls-1" x="65" width="5" height="19" transform="translate(135 19) rotate(180)"/><circle class="cls-1" cx="67.5" cy="18.5" r="2.5"/><rect class="cls-1" x="58" y="-7" width="5" height="19" transform="translate(58 63) rotate(-90)"/><circle class="cls-1" cx="51.5" cy="2.5" r="2.5"/><rect class="cls-1" x="58" y="58" width="5" height="19" transform="translate(-7 128) rotate(-90)"/><circle class="cls-1" cx="51.5" cy="67.5" r="2.5"/><rect class="cls-1" x="65" y="51" width="5" height="19"/><circle class="cls-1" cx="67.5" cy="51.5" r="2.5"/><rect class="cls-1" y="51" width="5" height="19"/><circle class="cls-1" cx="2.5" cy="51.5" r="2.5"/><rect class="cls-1" x="7" y="58" width="5" height="19" transform="translate(77 58) rotate(90)"/><circle class="cls-1" cx="18.5" cy="67.5" r="2.5"/><polygon class="cls-2" points="35 16.91 41.47 28.01 54.02 30.73 45.46 40.31 46.76 53.09 35 47.91 23.24 53.09 24.54 40.31 15.98 30.73 28.53 28.01 35 16.91"/><polygon class="cls-1" points="41.47 28.01 35 16.91 28.53 28.01 15.98 30.73 24.54 40.31 23.96 46.04 41.9 28.1 41.47 28.01"/></g></svg>