<svg xmlns="http://www.w3.org/2000/svg" viewBox="0 0 60 60"><defs><style>.cls-1{fill:#e8e8e8;}.cls-2{fill:#f7f7f7;}</style></defs><title>Menu - CAT Selected</title><g id="Menu_-_CAT_Selected" data-name="Menu - CAT Selected"><circle class="cls-1" cx="11.14" cy="11.14" r="11.14"/><path class="cls-2" d="M11.14,0A11.14,11.14,0,0,0,3.26,19L19,3.26A11.11,11.11,0,0,0,11.14,0Z"/><circle class="cls-1" cx="11.14" cy="48.86" r="11.14"/><path class="cls-2" d="M11.14,37.71a11.14,11.14,0,0,0-7.88,19L19,41A11.11,11.11,0,0,0,11.14,37.71Z"/><circle class="cls-1" cx="48.86" cy="48.86" r="11.14"/><path class="cls-2" d="M48.86,37.71a11.14,11.14,0,0,0-7.88,19L56.74,41A11.11,11.11,0,0,0,48.86,37.71Z"/><circle class="cls-1" cx="48.86" cy="11.14" r="11.14"/><path class="cls-2" d="M48.86,0A11.14,11.14,0,0,0,41,19L56.74,3.26A11.11,11.11,0,0,0,48.86,0Z"/></g></svg>