<svg xmlns="http://www.w3.org/2000/svg" viewBox="0 0 196 34"><defs><style>.cls-1{fill:#2d2955;}.cls-2{fill:#fff;}</style></defs><title>Reset</title><g id="Reset"><rect class="cls-1" width="196" height="34"/><path class="cls-2" d="M30.22,26.51A16.39,16.39,0,0,1,16.52,34,16.78,16.78,0,0,1,0,17,16.79,16.79,0,0,1,16.52,0,16.31,16.31,0,0,1,30,7.18L28.27,8.27A14.3,14.3,0,0,0,16.52,2.1,14.7,14.7,0,0,0,2,17,14.71,14.71,0,0,0,16.52,31.91a14.36,14.36,0,0,0,12-6.58Z"/><polygon class="cls-2" points="23.81 11.04 34 4.7 32.79 14.48 23.81 11.04"/><path class="cls-2" d="M77.68,29.84a1.25,1.25,0,0,1-.16.52,1.16,1.16,0,0,1-.44.44,1.19,1.19,0,0,1-.6.16,1.34,1.34,0,0,1-.68-.16A4.5,4.5,0,0,1,74,28.72a11.46,11.46,0,0,1-.68-4.6q0-2.8-1.56-3.94A6.13,6.13,0,0,0,68,19H59.16V29.8a1.21,1.21,0,0,1-.32.86A1.1,1.1,0,0,1,58,31a1.43,1.43,0,0,1-1-.34,1.08,1.08,0,0,1-.4-.86V4.2A1.16,1.16,0,0,1,57.84,3h10.8a8.39,8.39,0,0,1,4.08,1,7.23,7.23,0,0,1,2.82,2.7,7.47,7.47,0,0,1,1,3.88,7.72,7.72,0,0,1-1.34,4.5,6.76,6.76,0,0,1-3.5,2.66A6.14,6.14,0,0,1,74.6,20,7,7,0,0,1,75.76,24a14.57,14.57,0,0,0,.34,3.48,2.29,2.29,0,0,0,1,1.4A1.18,1.18,0,0,1,77.68,29.84Zm-8.92-13a5.46,5.46,0,0,0,2.6-.92,5.8,5.8,0,0,0,1.92-2.16A6.57,6.57,0,0,0,74,10.64a5.06,5.06,0,0,0-1.54-3.78,5.52,5.52,0,0,0-4-1.5H59.16V16.84Z"/><path class="cls-2" d="M106.58,29a1.18,1.18,0,0,1,.34.84,1.1,1.1,0,0,1-.34.84,1.2,1.2,0,0,1-.86.32H91a1.16,1.16,0,0,1-1.2-1.2V4.2A1.16,1.16,0,0,1,91,3h14.68a1.16,1.16,0,0,1,1.2,1.2,1.1,1.1,0,0,1-.34.84,1.2,1.2,0,0,1-.86.32H92.36v10h11.56a1.16,1.16,0,0,1,1.2,1.2,1.1,1.1,0,0,1-.34.84,1.21,1.21,0,0,1-.86.32H92.36V28.64h13.36A1.13,1.13,0,0,1,106.58,29Z"/><path class="cls-2" d="M121.42,30.44a14.35,14.35,0,0,1-4.3-3,1.21,1.21,0,0,1-.48-1,1.25,1.25,0,0,1,.38-.88,1.16,1.16,0,0,1,.86-.4,1.23,1.23,0,0,1,.88.4,10.09,10.09,0,0,0,7.8,3.44,8,8,0,0,0,4.78-1.36,4.19,4.19,0,0,0,1.9-3.56,4.35,4.35,0,0,0-.94-2.86,7,7,0,0,0-2.46-1.86A32.61,32.61,0,0,0,126,17.92a23.67,23.67,0,0,1-4.3-1.68,7.89,7.89,0,0,1-2.82-2.46,6.63,6.63,0,0,1-1.08-3.9,6.43,6.43,0,0,1,1.14-3.76,7.66,7.66,0,0,1,3.2-2.58,11.32,11.32,0,0,1,4.74-.94,12.71,12.71,0,0,1,4.58.82,8.2,8.2,0,0,1,3.42,2.34,1.93,1.93,0,0,1,.6,1.16,1.12,1.12,0,0,1-.4.82,1.25,1.25,0,0,1-.88.38.92.92,0,0,1-.68-.28,7.9,7.9,0,0,0-2.88-2.08,9.17,9.17,0,0,0-3.76-.8,8.07,8.07,0,0,0-4.76,1.3,4.11,4.11,0,0,0-1.84,3.54A4.09,4.09,0,0,0,122,13.36a18.74,18.74,0,0,0,5,2.28,30.48,30.48,0,0,1,4.64,1.72,7.64,7.64,0,0,1,2.94,2.5,7.25,7.25,0,0,1,1.14,4.26,6.24,6.24,0,0,1-1.18,3.7,8,8,0,0,1-3.28,2.62,11.38,11.38,0,0,1-4.78,1A12.76,12.76,0,0,1,121.42,30.44Z"/><path class="cls-2" d="M164.58,29a1.18,1.18,0,0,1,.34.84,1.1,1.1,0,0,1-.34.84,1.2,1.2,0,0,1-.86.32H149a1.16,1.16,0,0,1-1.2-1.2V4.2A1.16,1.16,0,0,1,149,3h14.68a1.16,1.16,0,0,1,1.2,1.2,1.1,1.1,0,0,1-.34.84,1.2,1.2,0,0,1-.86.32H150.36v10h11.56a1.16,1.16,0,0,1,1.2,1.2,1.1,1.1,0,0,1-.34.84,1.21,1.21,0,0,1-.86.32H150.36V28.64h13.36A1.13,1.13,0,0,1,164.58,29Z"/><path class="cls-2" d="M195.66,3.32a1.1,1.1,0,0,1,.34.84,1,1,0,0,1-.34.82,1.26,1.26,0,0,1-.86.3h-8.28V29.8a1.13,1.13,0,0,1-.36.86,1.24,1.24,0,0,1-.88.34,1.22,1.22,0,0,1-.9-.34,1.17,1.17,0,0,1-.34-.86V5.28h-8.28A1.2,1.2,0,0,1,174.9,5a1.1,1.1,0,0,1-.34-.84,1,1,0,0,1,.34-.8,1.2,1.2,0,0,1,.86-.32h19A1.2,1.2,0,0,1,195.66,3.32Z"/></g></svg>