<svg xmlns="http://www.w3.org/2000/svg" viewBox="0 0 110 100"><defs><style>.cls-1{fill:#e8e8e8;}.cls-2{fill:#ccc;}.cls-3{fill:none;}</style></defs><title>Settings</title><g id="Settings"><rect class="cls-1" x="31.14" y="27.19" width="11" height="15"/><rect class="cls-1" x="16.65" y="30.94" width="11" height="15" transform="translate(-16.25 16.23) rotate(-30)"/><rect class="cls-1" x="5.99" y="41.44" width="11" height="15" transform="matrix(0.5, -0.87, 0.87, 0.5, -36.64, 34.42)"/><rect class="cls-1" x="2" y="55.86" width="11" height="15" transform="translate(-55.86 70.86) rotate(-90)"/><rect class="cls-1" x="5.76" y="70.35" width="11" height="15" transform="translate(-50.53 126.52) rotate(-120)"/><rect class="cls-2" x="16.26" y="81.01" width="11" height="15" transform="translate(-3.66 176.04) rotate(-150)"/><rect class="cls-2" x="30.68" y="85" width="11" height="15" transform="translate(72.36 185) rotate(-180)"/><rect class="cls-2" x="45.16" y="81.24" width="11" height="15" transform="translate(138.91 140.26) rotate(150)"/><rect class="cls-2" x="55.83" y="70.74" width="11" height="15" transform="translate(159.75 64.26) rotate(120)"/><rect class="cls-2" x="59.81" y="56.32" width="11" height="15" transform="translate(129.14 -1.49) rotate(90)"/><rect class="cls-2" x="56.06" y="41.84" width="11" height="15" transform="translate(73.51 -28.64) rotate(60)"/><rect class="cls-1" x="45.56" y="31.17" width="11" height="15" transform="translate(26.18 -20.35) rotate(30)"/><path class="cls-3" d="M23.15,57a15,15,0,0,0,2.39,18.1L46.74,53.91A15,15,0,0,0,23.15,57Z"/><path class="cls-3" d="M28.64,77.5a15,15,0,0,0,18.1-23.59L25.54,75.1A15,15,0,0,0,28.64,77.5Z"/><path class="cls-2" d="M46.74,53.91A15,15,0,1,1,25.54,75.1l-9.2,9.2a28,28,0,0,0,39.6-39.6Z"/><path class="cls-1" d="M23.15,57a15,15,0,0,1,23.59-3.1l9.2-9.2a28,28,0,0,0-39.6,39.6l9.2-9.2A15,15,0,0,1,23.15,57Z"/><rect class="cls-1" x="87.1" width="6.04" height="8.24"/><rect class="cls-1" x="79.15" y="2.06" width="6.04" height="8.24" transform="translate(7.92 41.91) rotate(-30)"/><rect class="cls-1" x="73.29" y="7.83" width="6.04" height="8.24" transform="translate(27.81 72.06) rotate(-60)"/><rect class="cls-1" x="71.1" y="15.75" width="6.04" height="8.24" transform="translate(54.25 93.99) rotate(-90)"/><rect class="cls-1" x="73.16" y="23.71" width="6.04" height="8.24" transform="translate(90.17 107.72) rotate(-120)"/><rect class="cls-2" x="78.93" y="29.57" width="6.04" height="8.24" transform="translate(136.08 103.84) rotate(-150)"/><rect class="cls-2" x="86.85" y="31.76" width="6.04" height="8.24" transform="translate(179.75 71.76) rotate(-180)"/><rect class="cls-2" x="94.81" y="29.7" width="6.04" height="8.24" transform="translate(199.46 14.18) rotate(150)"/><rect class="cls-2" x="100.67" y="23.93" width="6.04" height="8.24" transform="translate(179.83 -47.72) rotate(120)"/><rect class="cls-2" x="102.86" y="16.01" width="6.04" height="8.24" transform="translate(126.01 -85.75) rotate(90)"/><rect class="cls-2" x="100.79" y="8.05" width="6.04" height="8.24" transform="translate(62.45 -83.82) rotate(60)"/><rect class="cls-1" x="95.03" y="2.19" width="6.04" height="8.24" transform="translate(16.29 -48.18) rotate(30)"/><path class="cls-3" d="M82.72,16.38A8.24,8.24,0,0,0,84,26.32L95.68,14.68a8.21,8.21,0,0,0-13,1.7Z"/><path class="cls-3" d="M85.73,27.64a8.24,8.24,0,0,0,9.94-13L84,26.32A8.23,8.23,0,0,0,85.73,27.64Z"/><path class="cls-2" d="M95.68,14.68A8.23,8.23,0,1,1,84,26.32L79,31.38A15.38,15.38,0,0,0,100.73,9.63Z"/><path class="cls-1" d="M82.72,16.38a8.21,8.21,0,0,1,13-1.7l5.06-5.06A15.38,15.38,0,0,0,79,31.38L84,26.32A8.24,8.24,0,0,1,82.72,16.38Z"/></g></svg>