<svg xmlns="http://www.w3.org/2000/svg" xmlns:xlink="http://www.w3.org/1999/xlink" viewBox="0 0 512 512"><defs><style>.cls-1{fill:none;}.cls-2{clip-path:url(#clip-path);}.cls-3{fill:#00c9a2;}.cls-4{fill:#008a6f;}.cls-5{fill:#d4127f;}.cls-6{fill:#fff;}.cls-7{clip-path:url(#clip-path-2);}.cls-8{fill:#f2b700;}</style><clipPath id="clip-path"><rect class="cls-1" width="512" height="512"/></clipPath><clipPath id="clip-path-2"><rect class="cls-1" x="612" width="512" height="512"/></clipPath></defs><title>Arc-Square</title><g id="Layer_2" data-name="Layer 2"><g class="cls-2"><path class="cls-3" d="M-1.73,513.73c-142.34-142.36-142.34-373.11,0-515.45s373.13-142.34,515.45,0"/><path class="cls-4" d="M513.72-1.73c142.36,142.35,142.36,373.13,0,515.46s-373.11,142.34-515.45,0"/><path class="cls-5" d="M193.07,398a3.33,3.33,0,1,1-3.32,3.33,3.33,3.33,0,0,1,3.32-3.33m0-10.71a14,14,0,1,0,14.08,14,14.05,14.05,0,0,0-14.08-14Z"/><path class="cls-6" d="M173.6,234.28c0,2.79-.86,5.07-1.91,5.08s-1.91-2.28-1.91-5.08.86-5.09,1.91-5.08S173.6,231.45,173.6,234.28Z"/><path class="cls-6" d="M176.33,234.47c0,2.82-.83,5.09-1.91,5.09s-1.9-2.28-1.9-5.06.87-5.09,1.9-5.11S176.36,231.67,176.33,234.47Z"/><path class="cls-6" d="M179.52,234.28c0,2.8-.87,5.08-1.89,5.07s-1.91-2.27-1.91-5.07.85-5.09,1.91-5.08S179.52,231.47,179.52,234.28Z"/><path class="cls-6" d="M182.29,234.47c0,2.82-.83,5.09-1.93,5.09s-1.89-2.27-1.89-5.06.84-5.11,1.89-5.09S182.29,231.67,182.29,234.47Z"/><path class="cls-6" d="M185.23,234.7c0,2.78-.86,5.07-1.88,5.06s-1.89-2.28-1.89-5.06.83-5.09,1.89-5.08S185.23,231.9,185.23,234.7Z"/><path class="cls-6" d="M188.4,234.28c0,2.8-.83,5.07-1.9,5.07s-1.91-2.27-1.91-5.06.87-5.1,1.91-5.1S188.41,231.45,188.4,234.28Z"/><path class="cls-6" d="M191.18,234.47c0,2.82-.87,5.09-1.92,5.09s-1.89-2.27-1.89-5.06.82-5.09,1.89-5.11S191.18,231.65,191.18,234.47Z"/><path class="cls-6" d="M194.36,234.28c0,2.8-.86,5.07-1.94,5.07s-1.91-2.28-1.91-5.07.89-5.09,1.93-5.09S194.33,231.45,194.36,234.28Z"/><path class="cls-6" d="M197.09,234.5c0,2.79-.88,5.06-1.94,5.06s-1.85-2.27-1.85-5.06.85-5.11,1.85-5.09S197.09,231.67,197.09,234.5Z"/><path class="cls-6" d="M200.06,234.69c0,2.81-.86,5.07-1.92,5.08s-1.89-2.28-1.91-5.08.86-5.07,1.91-5.09S200.06,231.9,200.06,234.69Z"/><path class="cls-6" d="M202.6,234.05c0,2.82-.83,5.08-1.89,5.08s-1.93-2.26-1.93-5.07.89-5.09,1.91-5.09S202.6,231.24,202.6,234.05Z"/><path class="cls-6" d="M205.38,234.3c0,2.79-.89,5.06-1.93,5.06s-1.94-2.27-1.94-5.07.85-5.09,2-5.09S205.38,231.45,205.38,234.3Z"/><path class="cls-6" d="M208.51,234.06c0,2.81-.83,5.07-1.89,5.07s-1.93-2.26-1.93-5.07.9-5.08,1.93-5.09S208.51,231.24,208.51,234.06Z"/><path class="cls-6" d="M211.29,234.28c0,2.79-.85,5.07-1.93,5.07s-1.89-2.27-1.89-5.07.84-5.09,1.89-5.08S211.29,231.45,211.29,234.28Z"/><path class="cls-6" d="M214.25,234.47c0,2.82-.87,5.07-1.9,5.09s-1.91-2.28-1.91-5.06.85-5.09,1.91-5.11S214.28,231.67,214.25,234.47Z"/><path class="cls-6" d="M295.72,234.28c0,2.8-.83,5.07-1.89,5.07s-1.92-2.27-1.92-5.07.85-5.08,1.92-5.08S295.72,231.47,295.72,234.28Z"/><path class="cls-6" d="M298.49,234.47c0,2.82-.85,5.07-1.91,5.09s-1.91-2.28-1.91-5.06.89-5.09,1.91-5.09S298.49,231.67,298.49,234.47Z"/><path class="cls-6" d="M301.64,234.28c0,2.81-.84,5.08-1.88,5.07s-1.89-2.27-1.89-5.07.84-5.08,1.91-5.09S301.64,231.45,301.64,234.28Z"/><path class="cls-6" d="M304.42,234.5c0,2.79-.86,5.06-1.9,5.06s-1.91-2.27-1.9-5.09.82-5.06,1.89-5.06S304.42,231.67,304.42,234.5Z"/><path class="cls-6" d="M307.38,234.7c0,2.78-.85,5.07-1.89,5.06s-1.93-2.28-1.93-5.06.88-5.09,1.94-5.1S307.38,231.91,307.38,234.7Z"/><path class="cls-6" d="M310.55,234.28c0,2.8-.85,5.07-1.9,5.07s-1.91-2.27-1.89-5.07.83-5.09,1.89-5.08S310.55,231.47,310.55,234.28Z"/><path class="cls-6" d="M313.3,234.5c0,2.79-.83,5-1.91,5s-1.92-2.25-1.91-5.07.89-5.08,1.91-5.06S313.3,231.67,313.3,234.5Z"/><path class="cls-6" d="M316.51,234.28c0,2.8-.89,5.08-1.93,5.07s-1.89-2.27-1.89-5.07.8-5.09,1.89-5.08S316.51,231.47,316.51,234.28Z"/><path class="cls-6" d="M319.25,234.5c0,2.79-.86,5.06-1.92,5.06s-1.89-2.27-1.89-5.06.86-5.11,1.89-5.09S319.25,231.67,319.25,234.5Z"/><path class="cls-6" d="M322.22,234.7c0,2.78-.85,5.06-1.93,5.07s-1.89-2.28-1.89-5.08.86-5.07,1.89-5.09S322.22,231.9,322.22,234.7Z"/><path class="cls-6" d="M324.73,234.06c0,2.81-.84,5.07-1.9,5.07s-1.94-2.24-1.94-5.07.87-5.09,1.94-5.09S324.73,231.24,324.73,234.06Z"/><path class="cls-6" d="M327.49,234.28c0,2.79-.85,5.08-1.94,5.07s-1.89-2.27-1.89-5.07.89-5.09,1.89-5.08S327.49,231.45,327.49,234.28Z"/><path class="cls-6" d="M330.68,234.06c0,2.81-.88,5.07-1.89,5.07s-1.91-2.26-1.94-5.06.85-5.1,1.94-5.1S330.68,231.24,330.68,234.06Z"/><path class="cls-6" d="M333.43,234.28c0,2.8-.89,5.07-1.92,5.07s-1.91-2.27-1.89-5.07.83-5.09,1.89-5.09S333.43,231.47,333.43,234.28Z"/><path class="cls-6" d="M336.4,234.47c0,2.82-.83,5.09-1.89,5.07s-1.93-2.26-1.93-5,.86-5.09,1.91-5.11S336.4,231.67,336.4,234.47Z"/><path class="cls-6" d="M235,233.62c0,2.83-.82,5.11-1.9,5.11s-1.91-2.29-1.89-5.11.86-5.08,1.89-5.08S235,230.84,235,233.62Z"/><path class="cls-6" d="M237.72,233.86c0,2.79-.83,5.06-1.89,5.06s-1.9-2.27-1.9-5.06.83-5.09,1.9-5.09S237.72,231,237.72,233.86Z"/><path class="cls-6" d="M240.91,233.62c0,2.82-.86,5.1-1.94,5.1s-1.88-2.28-1.88-5.1.88-5.08,1.88-5.06S240.91,230.84,240.91,233.62Z"/><path class="cls-6" d="M243.64,233.84c0,2.8-.8,5.08-1.86,5.08s-1.93-2.28-1.93-5.08.86-5.08,1.93-5.08S243.64,231,243.64,233.84Z"/><path class="cls-6" d="M246.61,234.06c0,2.81-.87,5.07-1.91,5.07s-1.86-2.26-1.86-5.07.85-5.09,1.86-5.09S246.61,231.24,246.61,234.06Z"/><path class="cls-6" d="M249.78,233.62c0,2.82-.86,5.1-1.88,5.1s-1.91-2.28-1.91-5.08.84-5.09,1.91-5.09S249.78,230.84,249.78,233.62Z"/><path class="cls-6" d="M252.56,233.84c0,2.8-.85,5.08-1.91,5.08s-1.89-2.28-1.89-5.08.84-5.08,1.89-5.07S252.54,231,252.56,233.84Z"/><path class="cls-6" d="M255.74,233.62c0,2.82-.85,5.1-1.91,5.1s-1.93-2.28-1.93-5.1.87-5.08,1.91-5.06S255.74,230.84,255.74,233.62Z"/><path class="cls-6" d="M258.5,233.84c0,2.8-.89,5.08-1.91,5.08s-1.95-2.28-1.95-5.08.88-5.07,1.93-5.08S258.48,231,258.5,233.84Z"/><path class="cls-6" d="M261.44,234.06c0,2.81-.84,5.07-1.89,5.07s-1.93-2.26-1.93-5.07.86-5.09,1.93-5.09S261.41,231.24,261.44,234.06Z"/><path class="cls-6" d="M264,233.41c0,2.82-.85,5.1-1.88,5.11s-1.91-2.29-1.91-5.09.83-5.08,1.91-5.08S264,230.61,264,233.41Z"/><path class="cls-6" d="M266.72,233.62c0,2.82-.83,5.11-1.89,5.1s-1.91-2.28-1.91-5.1.85-5.08,1.91-5.08S266.72,230.84,266.72,233.62Z"/><path class="cls-6" d="M269.94,233.41c0,2.82-.89,5.1-1.91,5.08s-1.95-2.26-1.95-5.08.88-5.07,1.95-5.07S269.93,230.61,269.94,233.41Z"/><path class="cls-6" d="M272.67,233.62c0,2.82-.86,5.11-1.9,5.1s-1.92-2.28-1.92-5.08.88-5.08,1.92-5.09S272.67,230.84,272.67,233.62Z"/><path class="cls-6" d="M275.62,233.84c0,2.8-.85,5.08-1.88,5.08s-1.93-2.27-1.93-5.06.86-5.09,1.93-5.09S275.59,231,275.62,233.84Z"/><polyline class="cls-6" points="178.57 415.88 176.46 430.32 177.37 437.59 180.64 430.69 182.91 416.44"/><path class="cls-6" d="M348.93,410.39,286.4,148.75a36.29,36.29,0,0,0-22.72-54.44l1.55-48.07a7.55,7.55,0,0,0-7.53-7.53h-6.84a7.57,7.57,0,0,0-7.56,7.63l1.58,48.56a36.32,36.32,0,0,0-23.16,49.52l-63.35,265,7.79,25.3,2.34.21-1.26,8.64,2.5,19.87,8.53-18,1.6-9.54,7,.62,45.07-188.89-3.21-2.33,8.08-33.31,4.29,1.1L251,166a35.59,35.59,0,0,0,4.27.43c.34,0,.66-.1,1-.1l10,47.72L270.5,213l8.09,33.32-3.22,2.33,45.08,188.89,6.93-.62,1.38,8.61,8.81,18.9,2.5-19.87-1.27-8.66,2.33-.21ZM260,132.26l-5,18.73a19.52,19.52,0,0,1-2.38-.24l-5.2-19.38-13.18-2.83a21.09,21.09,0,0,1,42.12.22Z"/><path class="cls-5" d="M173.17,237.45a5.08,5.08,0,0,1-5.07,5.08h-5.72a5.11,5.11,0,0,1-5.1-5.08v-7a5.08,5.08,0,0,1,5.09-5.06h5.73a5.07,5.07,0,0,1,5.07,5.08Z"/><path class="cls-5" d="M349.71,237.23a5.08,5.08,0,0,1-5.08,5.08h-5.72a5.08,5.08,0,0,1-5.07-5.08v-7a5.1,5.1,0,0,1,5.07-5.1h5.72a5.09,5.09,0,0,1,5.08,5.1Z"/><path class="cls-5" d="M258.05,254.84a5.06,5.06,0,0,1-5.07,5.09h0a5.1,5.1,0,0,1-5.08-5.09v-41.3a5.09,5.09,0,0,1,5.08-5.06h0a5,5,0,0,1,5.07,5.06Z"/><path class="cls-5" d="M254.76,161.27a3.33,3.33,0,1,1-3.32,3.33,3.33,3.33,0,0,1,3.32-3.33m0-10.7a14,14,0,1,0,14.08,14,14.05,14.05,0,0,0-14.08-14Z"/><path class="cls-5" d="M313.29,398.92a3.33,3.33,0,1,1-3.32,3.34,3.34,3.34,0,0,1,3.32-3.34m0-10.7a14,14,0,1,0,14.08,14,14,14,0,0,0-14.08-14Z"/></g><g class="cls-7"><path class="cls-8" d="M600.17,524.58c-147.91-147.94-147.91-387.72,0-535.63s387.74-147.91,535.66,0"/></g></g></svg>