<svg xmlns="http://www.w3.org/2000/svg" xmlns:xlink="http://www.w3.org/1999/xlink" viewBox="0 0 512 512"><defs><style>.cls-1{fill:none;}.cls-2{fill:#00c9a2;}.cls-3{fill:#008a6f;}.cls-4{fill:#d4127f;}.cls-5{fill:#fff;}.cls-6{clip-path:url(#clip-path);}.cls-7{clip-path:url(#clip-path-2);}.cls-8{fill:#f2b700;}</style><clipPath id="clip-path"><rect class="cls-1" y="612" width="512" height="512"/></clipPath><clipPath id="clip-path-2"><rect class="cls-1" x="612" y="612" width="512" height="512"/></clipPath></defs><title>Arc-Flat</title><g id="Layer_1" data-name="Layer 1"><path class="cls-2" d="M88.06,423.93c-92.75-92.76-92.75-243.12,0-335.87s243.13-92.75,335.87,0"/><path class="cls-3" d="M423.93,88.06c92.76,92.76,92.76,243.13,0,335.88s-243.12,92.75-335.87,0"/><path class="cls-4" d="M192.5,399.3a3.36,3.36,0,1,1-3.35,3.36,3.36,3.36,0,0,1,3.35-3.36m0-10.81a14.18,14.18,0,1,0,14.21,14.16,14.18,14.18,0,0,0-14.21-14.16Z"/><path class="cls-5" d="M172.85,234.08c0,2.82-.87,5.12-1.93,5.13s-1.92-2.3-1.92-5.13.86-5.13,1.92-5.13S172.85,231.22,172.85,234.08Z"/><path class="cls-5" d="M175.61,234.27c0,2.84-.83,5.14-1.93,5.14s-1.92-2.3-1.92-5.11.88-5.13,1.92-5.15S175.64,231.44,175.61,234.27Z"/><path class="cls-5" d="M178.83,234.08c0,2.83-.88,5.13-1.91,5.12s-1.93-2.29-1.93-5.12.86-5.13,1.93-5.13S178.83,231.24,178.83,234.08Z"/><path class="cls-5" d="M181.62,234.27c0,2.84-.84,5.13-1.94,5.13s-1.91-2.29-1.91-5.1.84-5.15,1.91-5.14S181.62,231.44,181.62,234.27Z"/><path class="cls-5" d="M184.58,234.5c0,2.81-.86,5.12-1.9,5.11s-1.91-2.31-1.91-5.11.84-5.14,1.91-5.13S184.58,231.67,184.58,234.5Z"/><path class="cls-5" d="M187.79,234.08c0,2.83-.84,5.12-1.92,5.12s-1.92-2.29-1.92-5.1.88-5.15,1.92-5.14S187.8,231.22,187.79,234.08Z"/><path class="cls-5" d="M190.59,234.27c0,2.85-.88,5.13-1.94,5.13s-1.91-2.29-1.91-5.1.83-5.14,1.91-5.15S190.59,231.42,190.59,234.27Z"/><path class="cls-5" d="M193.79,234.08c0,2.83-.87,5.12-2,5.12s-1.92-2.3-1.92-5.12.89-5.13,2-5.13S193.76,231.22,193.79,234.08Z"/><path class="cls-5" d="M196.56,234.3c0,2.81-.89,5.1-2,5.1s-1.87-2.29-1.87-5.1.86-5.15,1.87-5.13S196.56,231.45,196.56,234.3Z"/><path class="cls-5" d="M199.55,234.5c0,2.84-.87,5.12-1.93,5.13s-1.91-2.3-1.93-5.13.86-5.12,1.93-5.14S199.55,231.67,199.55,234.5Z"/><path class="cls-5" d="M202.11,233.85c0,2.84-.84,5.12-1.9,5.12s-1.95-2.28-1.95-5.11.89-5.13,1.92-5.13S202.11,231,202.11,233.85Z"/><path class="cls-5" d="M204.92,234.09c0,2.81-.9,5.1-2,5.1s-2-2.29-2-5.12.86-5.13,2-5.13S204.92,231.22,204.92,234.09Z"/><path class="cls-5" d="M208.07,233.85c0,2.84-.83,5.11-1.91,5.11s-1.94-2.28-1.94-5.11.91-5.13,1.94-5.13S208.07,231,208.07,233.85Z"/><path class="cls-5" d="M210.88,234.08c0,2.82-.86,5.12-2,5.12s-1.9-2.29-1.9-5.12.85-5.13,1.9-5.13S210.88,231.22,210.88,234.08Z"/><path class="cls-5" d="M213.86,234.27c0,2.85-.88,5.12-1.92,5.14s-1.92-2.3-1.92-5.11.86-5.13,1.92-5.15S213.89,231.44,213.86,234.27Z"/><path class="cls-5" d="M296.09,234.08c0,2.83-.84,5.12-1.91,5.12s-1.94-2.29-1.94-5.12.86-5.13,1.94-5.13S296.09,231.24,296.09,234.08Z"/><path class="cls-5" d="M298.88,234.27c0,2.84-.86,5.12-1.93,5.14s-1.93-2.3-1.93-5.11.9-5.14,1.93-5.14S298.88,231.44,298.88,234.27Z"/><path class="cls-5" d="M302.06,234.08c0,2.84-.85,5.13-1.9,5.12s-1.91-2.29-1.91-5.12.85-5.13,1.93-5.13S302.06,231.22,302.06,234.08Z"/><path class="cls-5" d="M304.86,234.3c0,2.81-.87,5.1-1.92,5.1s-1.93-2.29-1.91-5.13.82-5.11,1.9-5.11S304.86,231.44,304.86,234.3Z"/><path class="cls-5" d="M307.85,234.5c0,2.81-.86,5.12-1.91,5.11s-1.95-2.3-1.95-5.11.89-5.14,2-5.15S307.85,231.68,307.85,234.5Z"/><path class="cls-5" d="M311,234.08c0,2.83-.85,5.12-1.92,5.12s-1.93-2.29-1.9-5.12.84-5.13,1.9-5.13S311,231.24,311,234.08Z"/><path class="cls-5" d="M313.83,234.3c0,2.81-.84,5.09-1.93,5.09s-1.94-2.27-1.93-5.12.9-5.12,1.93-5.11S313.83,231.44,313.83,234.3Z"/><path class="cls-5" d="M317.06,234.08c0,2.83-.9,5.13-2,5.12s-1.9-2.29-1.9-5.12.81-5.13,1.9-5.13S317.06,231.24,317.06,234.08Z"/><path class="cls-5" d="M319.83,234.3c0,2.81-.86,5.1-1.94,5.1s-1.91-2.29-1.91-5.1.86-5.15,1.91-5.13S319.83,231.44,319.83,234.3Z"/><path class="cls-5" d="M322.82,234.5c0,2.81-.85,5.11-1.95,5.12s-1.91-2.3-1.91-5.13.86-5.12,1.91-5.14S322.82,231.67,322.82,234.5Z"/><path class="cls-5" d="M325.36,233.85c0,2.84-.85,5.11-1.91,5.11s-2-2.26-2-5.11.88-5.13,2-5.13S325.36,231,325.36,233.85Z"/><path class="cls-5" d="M328.15,234.08c0,2.82-.85,5.13-2,5.12s-1.9-2.29-1.9-5.12.9-5.13,1.9-5.13S328.15,231.22,328.15,234.08Z"/><path class="cls-5" d="M331.36,233.85c0,2.84-.89,5.11-1.91,5.11s-1.93-2.28-2-5.1.85-5.14,2-5.14S331.36,231,331.36,233.85Z"/><path class="cls-5" d="M334.14,234.08c0,2.83-.9,5.12-1.94,5.12s-1.93-2.29-1.91-5.12.84-5.13,1.91-5.13S334.14,231.24,334.14,234.08Z"/><path class="cls-5" d="M337.13,234.27c0,2.84-.84,5.13-1.91,5.12s-1.95-2.28-1.95-5.09.87-5.13,1.93-5.15S337.13,231.44,337.13,234.27Z"/><path class="cls-5" d="M234.78,233.41c0,2.86-.83,5.15-1.92,5.15s-1.92-2.31-1.91-5.15.86-5.12,1.91-5.12S234.78,230.6,234.78,233.41Z"/><path class="cls-5" d="M237.55,233.65c0,2.82-.83,5.11-1.91,5.11s-1.91-2.29-1.91-5.11.84-5.13,1.91-5.13S237.55,230.82,237.55,233.65Z"/><path class="cls-5" d="M240.77,233.41c0,2.84-.86,5.14-2,5.14s-1.89-2.3-1.89-5.14.89-5.12,1.89-5.11S240.77,230.6,240.77,233.41Z"/><path class="cls-5" d="M243.52,233.64c0,2.82-.8,5.12-1.87,5.12s-1.94-2.3-1.94-5.12.86-5.12,1.94-5.12S243.52,230.79,243.52,233.64Z"/><path class="cls-5" d="M246.53,233.85c0,2.84-.88,5.11-1.93,5.11s-1.88-2.28-1.88-5.11.86-5.13,1.88-5.13S246.53,231,246.53,233.85Z"/><path class="cls-5" d="M249.72,233.41c0,2.84-.87,5.14-1.89,5.14s-1.93-2.3-1.93-5.13.85-5.14,1.93-5.14S249.72,230.6,249.72,233.41Z"/><path class="cls-5" d="M252.53,233.64c0,2.83-.86,5.12-1.93,5.12s-1.91-2.3-1.91-5.12.85-5.12,1.91-5.12S252.51,230.82,252.53,233.64Z"/><path class="cls-5" d="M255.74,233.41c0,2.84-.86,5.14-1.93,5.14s-1.94-2.3-1.94-5.14.88-5.12,1.93-5.11S255.74,230.6,255.74,233.41Z"/><path class="cls-5" d="M258.53,233.64c0,2.82-.89,5.12-1.92,5.12s-2-2.3-2-5.12.89-5.12,2-5.12S258.5,230.82,258.53,233.64Z"/><path class="cls-5" d="M261.49,233.85c0,2.84-.84,5.11-1.91,5.11s-1.95-2.28-1.95-5.11.87-5.13,1.95-5.13S261.46,231,261.49,233.85Z"/><path class="cls-5" d="M264,233.2c0,2.84-.86,5.15-1.9,5.15s-1.93-2.31-1.93-5.14.84-5.13,1.93-5.13S264,230.38,264,233.2Z"/><path class="cls-5" d="M266.82,233.41c0,2.84-.84,5.15-1.91,5.14s-1.92-2.3-1.92-5.14.86-5.12,1.92-5.13S266.82,230.6,266.82,233.41Z"/><path class="cls-5" d="M270.07,233.2c0,2.84-.9,5.15-1.93,5.12s-2-2.28-2-5.12.89-5.11,2-5.11S270.06,230.38,270.07,233.2Z"/><path class="cls-5" d="M272.82,233.41c0,2.84-.86,5.15-1.92,5.14s-1.94-2.3-1.94-5.13.89-5.13,1.94-5.14S272.82,230.6,272.82,233.41Z"/><path class="cls-5" d="M275.8,233.64c0,2.82-.86,5.12-1.89,5.12s-1.95-2.29-1.95-5.11.86-5.13,1.95-5.13S275.77,230.82,275.8,233.64Z"/><polyline class="cls-5" points="177.87 417.33 175.73 431.9 176.65 439.24 179.95 432.28 182.25 417.89"/><path class="cls-5" d="M349.78,411.79l-63.1-264a36.62,36.62,0,0,0-22.93-54.93l1.56-48.51a7.62,7.62,0,0,0-7.59-7.6h-6.9a7.64,7.64,0,0,0-7.63,7.7l1.6,49a36.65,36.65,0,0,0-23.37,50L157.49,410.87l7.86,25.53,2.36.21-1.28,8.72L169,465.39l8.61-18.13,1.61-9.63,7.05.63,45.48-190.61-3.24-2.35,8.16-33.62,4.33,1.11,9.95-47.6a35.92,35.92,0,0,0,4.31.44c.35,0,.67-.1,1-.1l10.07,48.15,4.32-1.09,8.16,33.62-3.25,2.35L321,439.16l7-.62,1.39,8.69,8.89,19.08,2.53-20.05-1.28-8.74,2.35-.21ZM260,131.12,254.93,150a19.7,19.7,0,0,1-2.4-.25l-5.25-19.56L234,127.36a21.28,21.28,0,0,1,42.51.22Z"/><path class="cls-4" d="M172.42,237.28a5.12,5.12,0,0,1-5.11,5.13h-5.77a5.16,5.16,0,0,1-5.15-5.13v-7.06a5.12,5.12,0,0,1,5.14-5.1h5.78a5.11,5.11,0,0,1,5.11,5.13Z"/><path class="cls-4" d="M350.56,237.06a5.12,5.12,0,0,1-5.12,5.12h-5.78a5.12,5.12,0,0,1-5.12-5.12v-7a5.14,5.14,0,0,1,5.12-5.14h5.78a5.13,5.13,0,0,1,5.12,5.14Z"/><path class="cls-4" d="M258.07,254.82A5.1,5.1,0,0,1,253,260h0a5.14,5.14,0,0,1-5.12-5.14V213.15A5.14,5.14,0,0,1,253,208h0a5.09,5.09,0,0,1,5.12,5.11Z"/><path class="cls-4" d="M254.74,160.4a3.36,3.36,0,1,1-3.35,3.36,3.36,3.36,0,0,1,3.35-3.36m0-10.8A14.17,14.17,0,1,0,269,163.77a14.18,14.18,0,0,0-14.21-14.16Z"/><path class="cls-4" d="M313.82,400.21a3.36,3.36,0,1,1-3.35,3.37,3.37,3.37,0,0,1,3.35-3.37m0-10.8A14.17,14.17,0,1,0,328,403.58a14.18,14.18,0,0,0-14.21-14.17Z"/><rect class="cls-1" x="504.06" y="286.03" width="11.91" height="6.95"/><rect class="cls-1" x="504.06" y="299.93" width="11.91" height="6.71"/></g><g id="Layer_2" data-name="Layer 2"><g class="cls-6"><path class="cls-2" d="M-1.73,1125.73c-142.34-142.36-142.34-373.11,0-515.45s373.13-142.34,515.45,0"/></g><g class="cls-7"><path class="cls-8" d="M600.17,1136.58c-147.91-147.94-147.91-387.72,0-535.63s387.74-147.91,535.66,0"/></g></g></svg>