<svg id="Add_A_Person" data-name="Add A Person" xmlns="http://www.w3.org/2000/svg" viewBox="0 0 224 224"><defs><style>.cls-1{fill:none;}.cls-2{fill:#fff;}</style></defs><title>back-button</title><path class="cls-1" d="M224,112A112.08,112.08,0,0,1,83.82,220.42h0A112,112,0,1,1,224,112Z"/><circle class="cls-2" cx="137.26" cy="93.73" r="4.21"/><rect class="cls-2" x="118.94" y="59.66" width="8.42" height="39.92" transform="translate(266.52 48.84) rotate(135)"/><ellipse class="cls-2" cx="86.69" cy="93.8" rx="4.11" ry="4.21" transform="translate(-40.93 88.77) rotate(-45)"/><rect class="cls-2" x="96.63" y="59.65" width="8.42" height="40.01" transform="translate(85.86 -47.97) rotate(45)"/><circle class="cls-2" cx="112" cy="125.66" r="4.21"/><rect class="cls-2" x="84.29" y="93.74" width="55.42" height="8.42" transform="translate(209.95 -14.05) rotate(90)"/><path class="cls-2" d="M90.05,154.59a3.57,3.57,0,0,1,.78,2.4,3.63,3.63,0,0,1-1.24,3,4.81,4.81,0,0,1-3.09,1H81a.6.6,0,0,1-.61-.62V147.25a.6.6,0,0,1,.61-.62h5.44a3.73,3.73,0,0,1,2.69.94,3.44,3.44,0,0,1,1,2.59,3.62,3.62,0,0,1-.54,2A3.06,3.06,0,0,1,88,153.36,3.69,3.69,0,0,1,90.05,154.59Zm-1.94-6.1a2.57,2.57,0,0,0-1.86-.65H81.68V153h4.57a2.6,2.6,0,0,0,1.82-.72,2.67,2.67,0,0,0,.71-2A2.37,2.37,0,0,0,88.11,148.49Zm.55,10.59a3,3,0,0,0,0-4.21,3.55,3.55,0,0,0-2.24-.67H81.68v5.58h4.76A3.41,3.41,0,0,0,88.66,159.08Z"/><path class="cls-2" d="M108.56,160.41a.55.55,0,0,1-.18.43.63.63,0,0,1-.43.17.56.56,0,0,1-.36-.12.66.66,0,0,1-.23-.29l-1.54-3.76H99.15l-1.52,3.76a.57.57,0,0,1-.55.41.58.58,0,0,1-.43-.15.54.54,0,0,1-.16-.39v-.06a.44.44,0,0,1,0-.18L101.92,147a.65.65,0,0,1,1-.3.7.7,0,0,1,.24.3l5.39,13.19A1,1,0,0,1,108.56,160.41Zm-8.94-4.78h5.7l-2.87-7Z"/><path class="cls-2" d="M126,148.21a.77.77,0,0,1-.15.41.58.58,0,0,1-.47.23.62.62,0,0,1-.33-.11,6.39,6.39,0,0,0-3.59-1.08,5.86,5.86,0,0,0-3,.78,5.4,5.4,0,0,0-2.11,2.18,6.46,6.46,0,0,0-.77,3.19,6.54,6.54,0,0,0,.78,3.23,5.53,5.53,0,0,0,2.12,2.17,5.93,5.93,0,0,0,3,.77,6.36,6.36,0,0,0,3.57-1.06.66.66,0,0,1,.35-.11.55.55,0,0,1,.47.25.56.56,0,0,1,.15.39.53.53,0,0,1-.29.49,7.35,7.35,0,0,1-2,.89,7.73,7.73,0,0,1-2.28.36,7.21,7.21,0,0,1-3.6-.93,6.94,6.94,0,0,1-2.62-2.62,7.94,7.94,0,0,1,0-7.59,7,7,0,0,1,6.23-3.6,8.1,8.1,0,0,1,2.25.32,7.21,7.21,0,0,1,2,.93A.57.57,0,0,1,126,148.21Z"/><path class="cls-2" d="M143.63,160.41a.57.57,0,0,1-.21.48.76.76,0,0,1-.48.18.59.59,0,0,1-.46-.23l-5.72-7.2L134,156.27v4.08a.66.66,0,0,1-.2.46.63.63,0,0,1-.45.18.62.62,0,0,1-.64-.64V147.27a.58.58,0,0,1,.19-.46.64.64,0,0,1,.47-.18.62.62,0,0,1,.46.18.64.64,0,0,1,.17.46v7.44l8.29-7.83a.57.57,0,0,1,.45-.21.55.55,0,0,1,.42.19.56.56,0,0,1,.17.41.61.61,0,0,1-.18.43l-5.37,5,5.74,7.26A.78.78,0,0,1,143.63,160.41Z"/></svg>