<svg id="Layer_1" data-name="Layer 1" xmlns="http://www.w3.org/2000/svg" viewBox="0 0 410.67 131.61"><defs><style>.cls-1{fill:#ce1e55;}.cls-2{fill:#e2215b;}.cls-3{fill:#079b7f;}.cls-4{fill:#00c9a2;}.cls-5{fill:#f2b700;}.cls-6{fill:#daa727;}.cls-7{fill:#0fa3cf;}.cls-8{fill:#13b3e2;}.cls-9{fill:#fff;}.cls-10{fill:none;}</style></defs><title>NC-Type and Mark Stacked Wide Pos</title><path class="cls-1" d="M53.71,27.06A27.2,27.2,0,0,1,100.15,7.82L61.67,46.3a27.15,27.15,0,0,1-8-19.24"/><path class="cls-2" d="M80.85,27.09A27.21,27.21,0,0,1,42.38,65.57Z"/><path class="cls-3" d="M61.58,112A27.2,27.2,0,0,1,42.35,65.54L80.82,104a27.14,27.14,0,0,1-19.24,8"/><path class="cls-4" d="M61.85,85a27.21,27.21,0,0,1,38.47,38.48Z"/><path class="cls-5" d="M111.65,85a27.2,27.2,0,0,1,46.43-19.24l-38.47,38.48a27.15,27.15,0,0,1-8-19.24"/><path class="cls-6" d="M138.82,85a27.21,27.21,0,0,1-38.48,38.47Z"/><path class="cls-7" d="M138.82,19.36A27.2,27.2,0,0,1,158.06,65.8L119.58,27.33a27.12,27.12,0,0,1,19.24-8"/><path class="cls-8" d="M138.62,46.3A27.21,27.21,0,0,1,100.15,7.82Z"/><path class="cls-9" d="M185.2,71.8a1.6,1.6,0,1,1-3.19,0V53.88a1.69,1.69,0,0,1,.64-1.42,1.57,1.57,0,0,1,2.23.37l9.44,13.77V53.91a1.64,1.64,0,0,1,1.58-1.66,1.66,1.66,0,0,1,1.61,1.66V71.8a1.67,1.67,0,0,1-1.61,1.69,1.58,1.58,0,0,1-1.2-.61,1.15,1.15,0,0,1-.14-.19L185.2,59Z"/><path class="cls-9" d="M210.29,71.8V53.63a1.63,1.63,0,0,1,1.61-1.69h9.57a1.67,1.67,0,0,1,1.61,1.69,1.7,1.7,0,0,1-1.61,1.73h-7.93V61h6.81a1.71,1.71,0,0,1,0,3.42h-6.81v5.66h7.93a1.71,1.71,0,0,1,0,3.42H212c-.06,0-.06,0-.06,0l0,0A1.65,1.65,0,0,1,210.29,71.8Z"/><path class="cls-9" d="M247.82,55.36h-4.65V71.8a1.63,1.63,0,0,1-1.61,1.69A1.65,1.65,0,0,1,240,71.8V55.36h-4.62a1.68,1.68,0,0,1-1.61-1.73,1.63,1.63,0,0,1,1.61-1.69h12.49a1.65,1.65,0,0,1,1.61,1.69A1.7,1.7,0,0,1,247.82,55.36Z"/><path class="cls-9" d="M288.89,54.49l-7.17,18a.79.79,0,0,1-.15.27l0,0a.62.62,0,0,1-.14.19c0,.06,0,.06,0,.09a.91.91,0,0,0-.21.15h0a.63.63,0,0,1-.26.19h0a0,0,0,0,0,0,0,.87.87,0,0,0-.23.06h-.06a.86.86,0,0,1-.29,0,.83.83,0,0,1-.27,0h-.08a.76.76,0,0,0-.21-.06s0,0-.06,0a.57.57,0,0,1-.26-.19h0l-.2-.15a.23.23,0,0,1-.06-.09c0-.06-.09-.12-.12-.19s-.06,0-.06,0a.74.74,0,0,1-.12-.27l-3.83-9.55-3.83,9.55a2.38,2.38,0,0,1-.12.27,0,0,0,0,0,0,0l-.17.19c0,.06,0,.06,0,.09a.8.8,0,0,0-.18.15h-.06a1.63,1.63,0,0,1-.23.19h0a0,0,0,0,0,0,0,.45.45,0,0,0-.23.06h-.09a.77.77,0,0,1-.26,0,.92.92,0,0,1-.29,0h-.09a.76.76,0,0,0-.21-.06s0,0-.05,0a.74.74,0,0,1-.27-.19h0c-.09-.06-.11-.12-.2-.15a.23.23,0,0,1-.06-.09c-.06-.06-.09-.12-.15-.19v0a1.36,1.36,0,0,1-.14-.27l-7.2-18a1.69,1.69,0,0,1,.88-2.18,1.55,1.55,0,0,1,2.08.89l5.73,14.26L273.41,58a1.63,1.63,0,0,1,1.52-1,1.67,1.67,0,0,1,1.52,1l3.78,9.46,5.7-14.26a1.6,1.6,0,0,1,2.14-.89A1.69,1.69,0,0,1,288.89,54.49Z"/><path class="cls-9" d="M316.93,54.62a11.73,11.73,0,0,1,0,15.58,9.37,9.37,0,0,1-7,3.29,9.63,9.63,0,0,1-7.16-3.29,11.91,11.91,0,0,1,0-15.58,9.53,9.53,0,0,1,7.16-3.3A9.27,9.27,0,0,1,316.93,54.62Zm-.38,7.79a8.19,8.19,0,0,0-2-5.39,6.14,6.14,0,0,0-4.62-2.19A6.23,6.23,0,0,0,305.2,57a8.09,8.09,0,0,0-2,5.39,8,8,0,0,0,2,5.36A6.28,6.28,0,0,0,309.94,70a6.19,6.19,0,0,0,4.62-2.21A8.09,8.09,0,0,0,316.55,62.41Z"/><path class="cls-9" d="M346.85,70.94a1.71,1.71,0,0,1-1,2.15,2.52,2.52,0,0,1-.64.09h0a2.09,2.09,0,0,1-1.14-.33,3.09,3.09,0,0,1-.94-1.08,8.66,8.66,0,0,1-.61-3.7,2.54,2.54,0,0,0-1.23-2.21,5.51,5.51,0,0,0-1.64-.74h-3.45V71.8a1.67,1.67,0,0,1-1.64,1.69,1.65,1.65,0,0,1-1.61-1.69V53.63a1.63,1.63,0,0,1,1.61-1.69h5.24A6.42,6.42,0,0,1,346,58.56a6.65,6.65,0,0,1-2.29,5,4.73,4.73,0,0,1,1,1.14,6.07,6.07,0,0,1,1,3.32,8,8,0,0,0,.12,1.82A1.58,1.58,0,0,1,346.85,70.94Zm-4.09-12.38a3.1,3.1,0,0,0-3-3.2h-3.6V61.7h3.6A3.09,3.09,0,0,0,342.76,58.56Z"/><path class="cls-9" d="M359.26,71.8v-18a1.61,1.61,0,1,1,3.21,0v8.83l9.48-10a1.53,1.53,0,0,1,2.28,0,1.78,1.78,0,0,1,0,2.4l-6.43,6.74,6.49,9a1.71,1.71,0,0,1-.23,2.37,1.46,1.46,0,0,1-1,.4,1.54,1.54,0,0,1-1.2-.61l-6.32-8.72-3,3.27V71.8a1.61,1.61,0,1,1-3.21,0Z"/><path class="cls-9" d="M263.28,94.71a6.55,6.55,0,0,1,6.52-6.47,6.74,6.74,0,0,1,4.08,1.42,1.43,1.43,0,0,1,.29,1.91,1.37,1.37,0,0,1-1.93.25A4.09,4.09,0,0,0,269.8,91a3.7,3.7,0,1,0,0,7.4,4.14,4.14,0,0,0,2.44-.83,1.41,1.41,0,0,1,1.93.29,1.43,1.43,0,0,1-.29,1.91,7,7,0,0,1-4.08,1.36A6.52,6.52,0,0,1,263.28,94.71Z"/><path class="cls-9" d="M295.16,94.71v5.06a1.37,1.37,0,0,1-1.36,1.36,1.39,1.39,0,0,1-1.33-1.11,5.8,5.8,0,0,1-3.42,1.11,5.94,5.94,0,0,1-4.36-1.88,6.64,6.64,0,0,1-1.75-4.54,6.55,6.55,0,0,1,1.75-4.54,5.83,5.83,0,0,1,7.78-.8,1.35,1.35,0,0,1,2.69.26Zm-2.72,0a3.77,3.77,0,0,0-1-2.65A3.17,3.17,0,0,0,289.05,91a3.07,3.07,0,0,0-2.38,1.06,3.75,3.75,0,0,0-1,2.65,3.87,3.87,0,0,0,1,2.66,3.23,3.23,0,0,0,2.38,1,3.33,3.33,0,0,0,2.39-1A3.88,3.88,0,0,0,292.44,94.71Z"/><path class="cls-9" d="M316.11,93.6v6.17a1.35,1.35,0,0,1-1.34,1.36,1.39,1.39,0,0,1-1.36-1.36V93.6a2.64,2.64,0,0,0-2.67-2.6,2.57,2.57,0,0,0-2.56,2.6v6.17a.43.43,0,0,1-.06.25,1.4,1.4,0,0,1-1.36,1.11,1.35,1.35,0,0,1-1.36-1.36V89.61a1.36,1.36,0,0,1,1.36-1.37A1.39,1.39,0,0,1,308,89a5.11,5.11,0,0,1,2.72-.8A5.39,5.39,0,0,1,316.11,93.6Z"/><path class="cls-9" d="M336.23,90.3l-4.21,10a.72.72,0,0,1-.1.18s0,0,0,0-.1.13-.15.18a0,0,0,0,1,0,0c0,.08-.1.1-.15.16s0,0,0,0a.49.49,0,0,1-.18.13h-.05v0a.39.39,0,0,0-.2,0h-.05a1.28,1.28,0,0,1-.26,0,1.11,1.11,0,0,1-.23,0h-.05a.54.54,0,0,0-.21,0v0h-.05c-.08,0-.13-.08-.23-.13s0,0,0,0-.1-.08-.15-.16,0,0,0,0l-.13-.18s0,0,0,0-.07-.11-.1-.18l-4.16-10a1.33,1.33,0,1,1,2.47-1l3,7,3-7a1.29,1.29,0,0,1,1.72-.75A1.31,1.31,0,0,1,336.23,90.3Z"/><path class="cls-9" d="M356.71,94.71v5.06a1.37,1.37,0,0,1-1.36,1.36A1.4,1.4,0,0,1,354,100a5.8,5.8,0,0,1-3.42,1.11,6,6,0,0,1-4.36-1.88,6.63,6.63,0,0,1-1.74-4.54,6.54,6.54,0,0,1,1.74-4.54,5.83,5.83,0,0,1,7.78-.8,1.39,1.39,0,0,1,1.33-1.13,1.37,1.37,0,0,1,1.36,1.39Zm-2.72,0a3.77,3.77,0,0,0-1-2.65A3.15,3.15,0,0,0,350.6,91a3.07,3.07,0,0,0-2.38,1.06,3.75,3.75,0,0,0-1,2.65,3.87,3.87,0,0,0,1,2.66,3.23,3.23,0,0,0,2.38,1,3.32,3.32,0,0,0,2.39-1A3.88,3.88,0,0,0,354,94.71Z"/><path class="cls-9" d="M366.6,97.45a1.32,1.32,0,0,1,1.92-.21,4.65,4.65,0,0,0,2.82,1.13,3.39,3.39,0,0,0,1.75-.49,1,1,0,0,0,.46-.77.35.35,0,0,0-.08-.26c0-.08-.12-.18-.33-.31a5.9,5.9,0,0,0-2.05-.72h0a9.66,9.66,0,0,1-2.23-.67,4.32,4.32,0,0,1-1.77-1.5,3.14,3.14,0,0,1-.44-1.62,3.63,3.63,0,0,1,1.52-2.84,5.45,5.45,0,0,1,3.15-1,6.56,6.56,0,0,1,3.85,1.42,1.42,1.42,0,0,1,.41,1.91,1.36,1.36,0,0,1-1.9.36,4.4,4.4,0,0,0-2.36-1,2.61,2.61,0,0,0-1.54.47.79.79,0,0,0-.41.59.3.3,0,0,0,.05.21.76.76,0,0,0,.29.25,5,5,0,0,0,1.87.62l0,0h0a9.12,9.12,0,0,1,2.39.75,4,4,0,0,1,1.82,1.52,3.32,3.32,0,0,1,.49,1.7,3.74,3.74,0,0,1-1.62,3,5.78,5.78,0,0,1-3.34,1,7.34,7.34,0,0,1-4.56-1.78A1.36,1.36,0,0,1,366.6,97.45Z"/><rect id="Frame" class="cls-10" width="410.67" height="131.61"/></svg>