<?xml version="1.0" encoding="utf-8"?>
<!-- Generator: Adobe Illustrator 24.3.0, SVG Export Plug-In . SVG Version: 6.00 Build 0)  -->
<svg version="1.1" id="bebdbc02-5f56-4bd5-9ad9-bce5f07a2c3e"
	 xmlns="http://www.w3.org/2000/svg" xmlns:xlink="http://www.w3.org/1999/xlink" x="0px" y="0px" viewBox="0 0 933.4 783.9"
	 style="enable-background:new 0 0 933.4 783.9;" xml:space="preserve">
<style type="text/css">
	.st0{fill:#3F3D56;}
	.st1{fill:#6C63FF;}
	.st2{opacity:0.29;}
	.st3{fill:#F2F2F2;}
	.st4{fill:#FF6584;}
	.st5{fill:#CCCCCC;}
	.st6{opacity:0.1;enable-background:new    ;}
	.st7{fill:#FFFFFF;}
	.st8{fill:#2F2E41;}
	.st9{fill:#A0616A;}
</style>
<path class="st0" d="M553.6,756.1c0,15.3-94.6,27.7-211.4,27.8H341c-57,0-108.8-2.9-147-7.7c-1.6-0.2-3.2-0.4-4.8-0.6
	c-6.5-0.9-12.6-1.8-18.1-2.7c-26.7-4.7-42.5-10.4-42.5-16.7c0-5.1,10.4-9.8,28.4-13.9c9.6-2.2,21.3-4.1,34.7-5.9
	c2.5-0.3,5-0.6,7.6-0.9c37.6-4.4,87.3-7.1,141.7-7.1c10.6,0,21,0.1,31.2,0.3C474.8,730.7,553.6,742.2,553.6,756.1z"/>
<path class="st1" d="M542,163.3H225.2V0H542V163.3z M227.2,161.3H540V2H227.2V161.3z"/>
<g id="Panels" class="st2">
	<rect x="226.2" y="1" class="st3" width="314.8" height="161.3"/>
	<rect x="617.7" y="208.5" class="st3" width="314.8" height="161.3"/>
	<rect x="226.2" y="208.5" class="st3" width="314.8" height="161.3"/>
	<rect x="617.7" y="1" class="st3" width="314.8" height="161.3"/>
	<rect x="617.7" y="416.1" class="st3" width="314.8" height="161.3"/>
	<rect x="226.2" y="416.1" class="st3" width="314.8" height="161.3"/>
</g>
<path class="st0" d="M506.7,577c-12.8-2.2-25.1-4-36.9-5.6l4.7-9.1c-1.6-0.5-8.5,4.6-8.5,4.6l6.1-26.3c-7.9,1-11.9,27.8-11.9,27.8
	l-8.8-9.1l4.3,10.2c-31.1-3.8-62.3-5.7-93.6-5.9l4-7.7c-1.6-0.5-8.5,4.6-8.5,4.6l6.1-26.3c-7.9,1-11.9,27.8-11.9,27.8l-8.8-9.1
	l4.5,10.8c-18,0.3-36,1.5-53.8,3.7c4-12.1,17.8-23.5,17.8-23.5c-10.5,3.1-16,8.3-18.9,13.2c-0.3-24.9,3.9-49.7,12.2-73.1
	c0,0-21.7,47.2-18.9,78.8l0.3,5.6c-18.4,2.6-25.6,8.8-25.6,8.8L506.7,577z"/>
<circle class="st4" cx="355.7" cy="255.6" r="34.8"/>
<polygon class="st0" points="729,475.8 724.9,472.5 747.8,452.1 805.7,452.1 805.7,470.1 768.1,495.3 "/>
<polygon class="st5" points="816.2,463.6 816.2,452.5 808.5,452.5 808.5,455.2 805.7,452.1 786.9,472.5 779.6,477.4 768.2,560.6 
	785.4,577.7 825.2,577.7 825.2,473.3 "/>
<rect x="724.9" y="472.5" class="st3" width="62" height="105.2"/>
<rect x="749" y="552" class="st5" width="11.4" height="25.7"/>
<polygon class="st0" points="736.7,559.4 736.7,555.3 731.9,555.3 731.9,559.4 736.3,559.4 "/>
<polygon class="st0" points="736.3,562.6 731.9,562.6 731.9,566.7 736.7,566.7 736.7,562.6 "/>
<rect x="740" y="555.3" class="st0" width="4.9" height="4.1"/>
<rect x="740" y="562.6" class="st0" width="4.9" height="4.1"/>
<polygon class="st0" points="770.2,559.4 770.2,555.3 765.3,555.3 765.3,559.4 769.8,559.4 "/>
<polygon class="st0" points="769.8,562.6 765.3,562.6 765.3,566.7 770.2,566.7 770.2,562.6 "/>
<rect x="773.5" y="555.3" class="st0" width="4.9" height="4.1"/>
<rect x="773.5" y="562.6" class="st0" width="4.9" height="4.1"/>
<polygon class="st0" points="804.4,477.8 804.4,473.7 799.6,473.7 799.6,477.8 804,477.8 "/>
<polygon class="st0" points="804,481.1 799.6,481.1 799.6,485.1 804.4,485.1 804.4,481.1 "/>
<rect x="807.7" y="473.7" class="st0" width="4.9" height="4.1"/>
<rect x="807.7" y="481.1" class="st0" width="4.9" height="4.1"/>
<polygon class="st0" points="804.4,500.6 804.4,496.6 799.6,496.6 799.6,500.6 804,500.6 "/>
<polygon class="st0" points="804,503.9 799.6,503.9 799.6,508 804.4,508 804.4,503.9 "/>
<rect x="807.7" y="496.6" class="st0" width="4.9" height="4.1"/>
<rect x="807.7" y="503.9" class="st0" width="4.9" height="4.1"/>
<polygon class="st0" points="804.4,523.5 804.4,519.4 799.6,519.4 799.6,523.5 804,523.5 "/>
<polygon class="st0" points="804,526.7 799.6,526.7 799.6,530.8 804.4,530.8 804.4,526.7 "/>
<rect x="807.7" y="519.4" class="st0" width="4.9" height="4.1"/>
<rect x="807.7" y="526.7" class="st0" width="4.9" height="4.1"/>
<polygon class="st0" points="804.4,546.3 804.4,542.2 799.6,542.2 799.6,546.3 804,546.3 "/>
<polygon class="st0" points="804,549.6 799.6,549.6 799.6,553.7 804.4,553.7 804.4,549.6 "/>
<rect x="807.7" y="542.2" class="st0" width="4.9" height="4.1"/>
<rect x="807.7" y="549.6" class="st0" width="4.9" height="4.1"/>
<rect x="731.9" y="477.8" class="st0" width="47.3" height="9.8"/>
<rect x="731.9" y="497.4" class="st0" width="47.3" height="9.8"/>
<rect x="731.9" y="517" class="st0" width="47.3" height="9.8"/>
<rect x="731.9" y="536.5" class="st0" width="47.3" height="9.8"/>
<polygon class="st0" points="355.9,469.8 397.4,469.8 397.4,459.8 420.3,459.8 420.3,469.8 463.3,469.8 463.3,514.2 420.3,514.2 
	420.3,570 397.4,570 397.4,514.2 355.9,514.2 334.4,489.8 "/>
<path class="st0" d="M478,369.8h-2c0-53.2-43.1-96.4-96.4-96.4c-53.2,0-96.4,43.1-96.4,96.4c0,0,0,0,0,0h-2
	c0-54.3,44.1-98.4,98.4-98.3C434,271.5,478,315.5,478,369.8z"/>
<rect x="330.4" y="271" transform="matrix(1 -1.879997e-03 1.879997e-03 1 -0.6022 0.6241)" class="st0" width="2.5" height="99.3"/>
<path class="st1" d="M356,283.6c0.2,34.7-24.2,63-24.2,63s-24.7-28-25-62.7c-0.2-34.7,24.2-63,24.2-63S355.8,248.9,356,283.6z"/>
<path class="st6" d="M356,283.6c0.2,34.7-24.2,63-24.2,63s-24.7-28-25-62.7c-0.2-34.7,24.2-63,24.2-63S355.8,248.9,356,283.6z"/>
<rect x="297.7" y="271" transform="matrix(1 -1.879997e-03 1.879997e-03 1 -0.6024 0.5626)" class="st0" width="2.5" height="99.3"/>
<path class="st1" d="M323.4,283.7c0.2,34.7-24.2,63-24.2,63s-24.7-28-25-62.7c-0.2-34.7,24.2-63,24.2-63S323.1,248.9,323.4,283.7z"
	/>
<rect x="465.5" y="291.9" class="st0" width="2" height="78.6"/>
<path class="st1" d="M485.9,301.9c0.1,27.5-19.2,49.9-19.2,49.9s-19.5-22.2-19.7-49.7s19.2-49.9,19.2-49.9S485.8,274.4,485.9,301.9z
	"/>
<circle class="st0" cx="770.6" cy="291.6" r="68.4"/>
<polygon class="st1" points="777.5,266.2 777.5,294.8 735.8,294.8 728.1,304 729,294.8 725.3,294.8 725.3,266.2 "/>
<rect x="758.7" y="276" class="st6" width="18.8" height="18.8"/>
<polygon class="st1" points="762.8,280.2 815,280.2 815,308.8 811.3,308.8 812.1,318 804.4,308.8 762.8,308.8 "/>
<ellipse class="st6" cx="728.5" cy="307.5" rx="11.5" ry="1.1"/>
<ellipse class="st6" cx="812.1" cy="322.5" rx="13" ry="1.3"/>
<path class="st0" d="M809.4,21h-45.2c-4.5,0-8.4,3.1-9.4,7.5L732,129.8c-0.9,4.2,1.7,8.3,5.9,9.3c0.4,0.1,0.9,0.2,1.3,0.2l46.5,2.3
	c5.1,0.3,9.7-3.4,10.6-8.4l13-71.6l1,0.3l2.5-13.6l-1-0.2l3.6-20c0.6-3.2-1.6-6.3-4.8-6.9C810.2,21.1,809.8,21,809.4,21z"/>
<path class="st1" d="M770.2,23.2h-5.3c-3.1,0-5.8,2.2-6.5,5.2l-21.9,100.5c-0.5,2.2,0.9,4.4,3.1,4.9c0.2,0,0.4,0.1,0.6,0.1l46.3,3
	c2.7,0.2,5.1-1.7,5.6-4.4l18.7-103.9c0.5-2.5-1.2-5-3.8-5.4c-0.3,0-0.5-0.1-0.8-0.1h-5c-1,0-1.9,0.7-2.1,1.6l0,0
	c-0.2,0.8-1,1.4-1.9,1.4h-23.8C771.8,26.3,770.3,24.9,770.2,23.2L770.2,23.2z"/>
<circle class="st1" cx="389.9" cy="81.8" r="65.5"/>
<path class="st0" d="M446.9,122.9c-12.6,0-40.3-12.9-65-28c-30.6-18.8-60.4-43.3-55.2-51.8c1.5-2.4,5.1-3,11.1-1.9l-0.4,2.4
	c-4.7-0.9-7.8-0.6-8.7,0.8c-1.2,2,1.5,7.8,12.8,18.2c10.3,9.4,25.1,20.2,41.6,30.3c16.5,10.1,32.8,18.4,45.9,23.3
	c14.3,5.4,20.8,5.1,22,3.1c0.8-1.4-0.3-4.3-3.2-8.1l1.9-1.5c3.7,4.9,4.8,8.4,3.4,10.8C452.1,122.1,450,122.9,446.9,122.9z"/>
<circle class="st7" cx="381.9" cy="48.1" r="13.4"/>
<circle class="st7" cx="385.7" cy="121.5" r="8.9"/>
<circle class="st7" cx="416.5" cy="90.9" r="8.9"/>
<path class="st1" d="M933.4,578.4H616.7V415.1h316.7L933.4,578.4z M618.7,576.4h312.8V417H618.7V576.4z"/>
<path class="st1" d="M931.5,371.8H614.8V208.5h316.7V371.8z M616.7,369.8h312.8V210.5H616.7V369.8z"/>
<path class="st0" d="M224.4,720.3c5.4,19.9,23.8,32.1,23.8,32.1s9.7-19.9,4.3-39.7c-5.4-19.9-23.8-32.1-23.8-32.1
	S219,700.5,224.4,720.3z"/>
<path class="st1" d="M232.3,716c14.7,14.3,16.5,36.4,16.5,36.4s-22.1-1.2-36.8-15.5s-16.5-36.4-16.5-36.4S217.6,701.7,232.3,716z"/>
<path class="st8" d="M283.8,443.6l-15.7,1.7c0,0-7,31.4,0,73.3c7,41.9,15.7,83.8,15.7,83.8s7,136.1,10.5,137.8s34.9,12.2,36.6,1.7
	s1.7-249.5,1.7-249.5l24.4,115.2c0,0,3.5,144.8,10.5,144.8c7,0,29.7-1.7,29.7-14s5.2-172.7,5.2-172.7s-1.7-118.6-8.7-122.1
	C386.7,440.1,283.8,443.6,283.8,443.6z"/>
<path class="st8" d="M297.7,735c0,0-15.7-1.7-19.2,0c-3.5,1.7-8.7,14,0,20.9c8.7,7,31.4,17.4,38.4,17.4c7,0,14-3.5,14-3.5l-3.5-29.7
	L297.7,735z"/>
<path class="st8" d="M367.5,743.7l1.7,24.4c0,0,22.7,3.5,24.4,0s19.2-12.2,20.9-14s3.5-20.9-7-22.7c-10.5-1.7-14,3.5-14,3.5
	L367.5,743.7z"/>
<path class="st9" d="M408.1,236c0,0,38.1-24.5,37.3-41.4s-23.9-70-23.9-70s-18-37.4-25.1-22.1s9.4,31.6,9.4,31.6l10.7,52.1l-29,27.7
	L408.1,236z"/>
<circle class="st9" cx="313.4" cy="169.7" r="31.4"/>
<path class="st9" d="M297.7,188.9L303,222l38.4-7c0,0-1.7-33.2-1.7-36.6S297.7,188.9,297.7,188.9z"/>
<path class="st0" d="M296,222c0,0,43.6-10.5,48.9-7s31.4,7,31.4,7l29.7,45.4l-8.7,57.6c0,0-1.7,92.5,1.7,108.2
	c3.5,15.7,22.7,17.4-17.4,20.9s-47.1-1.7-75,5.2s-50.6-3.5-43.6-10.5c7-7,19.2-118.6,5.2-129.1c-14-10.5-19.2-64.6-19.2-64.6
	S296,230.8,296,222z"/>
<path class="st0" d="M371,227.3l5.2-5.2l10.5-10.5c0,0,34,14.8,32.3,20.1s-13.1,35.8-13.1,35.8l-15.7,5.2L371,227.3z"/>
<path class="st8" d="M324.4,131.6l-0.3-2.5c-2.1,0-4.3,0.3-6.3,1c-0.2-1.5-0.1-3.1,0.4-4.5c-2.1,0.5-4,1.4-5.8,2.5l-1.3-4.6
	l-17.4,8.6c-6.3,3.1-12.9,6.5-16.4,12.5c-4,6.7-3.3,15.3-0.6,22.6c2.7,7.3,7.3,13.7,10.9,20.6c1.4,3,3,5.8,5,8.4
	c6.6,8.2,19.4,9.9,28.7,4.9c3.4-1.8,6.5-4.6,7.9-8.2c0.8-2.2,1-4.5,1.6-6.8c1.1-4.7,2.5-14.4,6.3-17.3c1.7-1.3,5,3,6.4,1.4
	c3.6-4.1,2.8-10.5,0.6-15.5c-2.1-5-4.6-9.9-7.4-14.5C335.3,138.4,324.4,131.3,324.4,131.6z"/>
<path class="st9" d="M221,297.1c0,0-41.9,40.1-36.6,61.1s47.1,82,47.1,82s40.1,20.9,45.4,0s-27.9-15.7-27.9-15.7l-26.2-62.8
	l29.7-41.9L221,297.1z"/>
<path class="st0" d="M269.8,258.7l-20.9-3.5c0,0-15.7,17.4-20.9,24.4S212.2,304,212.2,304l36.6,26.2l27.9-29.7L269.8,258.7z"/>
</svg>
