<svg xmlns="http://www.w3.org/2000/svg" xmlns:xlink="http://www.w3.org/1999/xlink" viewBox="0 0 512 512"><defs><style>.cls-1{fill:none;}.cls-2{clip-path:url(#clip-path);}.cls-3{fill:#e2215b;}.cls-4{fill:#ce1e55;}.cls-5{opacity:0.25;}.cls-6{fill:#fff;}.cls-7{fill:#dbdddd;}</style><clipPath id="clip-path"><rect class="cls-1" width="512" height="512"/></clipPath></defs><title>NC-Square</title><g id="Layer_3" data-name="Layer 3"><g class="cls-2"><path class="cls-3" d="M-.58,512.57C-14,433.77-26.36-8.17,6.91-12.61,199-38.23,433.06-33.21,512.58-.58"/><path class="cls-4" d="M512.58-.58c141.7,141.71,141.7,371.45,0,513.15s-371.45,141.7-513.15,0"/><g class="cls-5"><path class="cls-6" d="M256,35.86C133.48,35.86,34.11,134.43,34.11,256a218.39,218.39,0,0,0,65,155.61L412.95,100.32A222.23,222.23,0,0,0,256,35.86"/><path class="cls-6" d="M99.1,411.65A222.14,222.14,0,0,0,256,476.14c122.54,0,221.88-98.57,221.88-220.14a218.64,218.64,0,0,0-65-155.67Z"/></g><g class="cls-5"><path class="cls-6" d="M256,147.9c-61.7,0-111.71,48.4-111.71,108.1A106,106,0,0,0,177,332.43L335,179.55a113.27,113.27,0,0,0-79-31.65"/><path class="cls-6" d="M177,332.43a113.27,113.27,0,0,0,79,31.67c61.69,0,111.69-48.4,111.69-108.1A106.08,106.08,0,0,0,335,179.56Z"/></g><rect class="cls-7" x="70.25" y="133.48" width="240.97" height="8.79" transform="translate(-41.6 175.45) rotate(-45.05)"/><polygon class="cls-7" points="108.66 235.82 92.78 219.98 272.81 39.94 288.69 55.78 108.66 235.82"/><polygon class="cls-7" points="305.17 344.15 298.95 350.36 128.59 179.97 134.79 173.74 305.17 344.15"/><polygon class="cls-7" points="298.94 359.99 118.95 179.97 134.79 164.09 314.82 344.15 298.94 359.99"/><circle class="cls-6" cx="258.88" cy="71.16" r="41.5"/><circle class="cls-6" cx="144.04" cy="187.04" r="65.11"/><circle class="cls-6" cx="330.28" cy="379.56" r="102.78"/></g><rect class="cls-1" width="512" height="512" rx="90" ry="90"/></g></svg>