<svg id="Layer_1" data-name="Layer 1" xmlns="http://www.w3.org/2000/svg" viewBox="0 0 213.27 157.99"><defs><style>.cls-1{fill:#ce1e55;}.cls-2{fill:#e2215b;}.cls-3{fill:#079b7f;}.cls-4{fill:#00c9a2;}.cls-5{fill:#f2b700;}.cls-6{fill:#daa727;}.cls-7{fill:#0fa3cf;}.cls-8{fill:#13b3e2;}.cls-9{fill:none;}</style></defs><title>NC-Mark</title><path class="cls-1" d="M60.17,38A27.2,27.2,0,0,1,106.61,18.8L68.14,57.28a27.16,27.16,0,0,1-8-19.24"/><path class="cls-2" d="M87.32,38.07A27.21,27.21,0,0,1,48.84,76.55Z"/><path class="cls-3" d="M68,123A27.2,27.2,0,0,1,48.81,76.52L87.29,115A27.16,27.16,0,0,1,68,123"/><path class="cls-4" d="M68.31,96a27.21,27.21,0,1,1,38.48,38.48Z"/><path class="cls-5" d="M118.11,96a27.2,27.2,0,0,1,46.44-19.24l-38.47,38.48a27.1,27.1,0,0,1-8-19.24"/><path class="cls-6" d="M145.28,96a27.2,27.2,0,1,1-38.47,38.47Z"/><path class="cls-7" d="M145.29,30.34a27.2,27.2,0,0,1,19.24,46.44L126.05,38.31a27.1,27.1,0,0,1,19.24-8"/><path class="cls-8" d="M145.09,57.28A27.21,27.21,0,1,1,106.61,18.8Z"/><rect id="Frame" class="cls-9" width="213.27" height="157.99"/></svg>