<?xml version="1.0" encoding="utf-8"?>
<!-- Generator: Adobe Illustrator 26.0.3, SVG Export Plug-In . SVG Version: 6.00 Build 0)  -->
<svg version="1.1" id="Layer_1" xmlns="http://www.w3.org/2000/svg" xmlns:xlink="http://www.w3.org/1999/xlink" x="0px" y="0px"
	 viewBox="0 0 271.7 269.2" style="enable-background:new 0 0 271.7 269.2;" xml:space="preserve">
<style type="text/css">
	.st0{clip-path:url(#SVGID_00000065754967106153896740000011811956902648746670_);}
	.st1{fill:#5E65EA;}
	.st2{opacity:0.5;fill:#221F20;}
	.st3{opacity:0.5;}
	.st4{fill:#FFFFFF;}
	.st5{fill:#403E56;}
	.st6{fill:#EDB3B7;}
	.st7{fill:#302E41;}
	.st8{fill:#A1626B;}
	.st9{fill:#6466A8;}
	.st10{fill:#CACACA;}
	.st11{fill:#EDB1B5;}
</style>
<g>
	<defs>
		<rect id="SVGID_1_" x="-104" y="19" width="488.1" height="250.2"/>
	</defs>
	<clipPath id="SVGID_00000073698275888185300420000003612721825500811178_">
		<use xlink:href="#SVGID_1_"  style="overflow:visible;"/>
	</clipPath>
	<g style="clip-path:url(#SVGID_00000073698275888185300420000003612721825500811178_);">
		<path class="st1" d="M25.6,119.7h220c13.7,0,24.9,11.1,24.9,24.9v32.8c0,13.7-11.1,24.9-24.9,24.9h-220
			c-13.7,0-24.9-11.1-24.9-24.9v-32.8C0.8,130.9,11.9,119.7,25.6,119.7z"/>
		<path class="st2" d="M106.1,151.4c0,1.1,0.9,2.1,2.1,2.1h0h129.2c1.1,0.1,2.1-0.8,2.2-1.9c0.1-1.1-0.8-2.1-1.9-2.2
			c-0.1,0-0.2,0-0.3,0H108.2C107.1,149.4,106.1,150.3,106.1,151.4L106.1,151.4z"/>
		<path class="st2" d="M106.1,162.2c0,1.1,0.9,2.1,2.1,2.1h0h129.2c1.1,0.1,2.1-0.8,2.2-1.9c0.1-1.1-0.8-2.1-1.9-2.2
			c-0.1,0-0.2,0-0.3,0H108.2C107.1,160.2,106.1,161.1,106.1,162.2L106.1,162.2z"/>
		<path class="st2" d="M106.1,173c0,1.1,0.9,2.1,2.1,2.1h0h129.2c1.1,0.1,2.1-0.8,2.2-1.9c0.1-1.1-0.8-2.1-1.9-2.2
			c-0.1,0-0.2,0-0.3,0H108.2C107.1,171,106.1,171.9,106.1,173L106.1,173z"/>
		<g class="st3">
			<path class="st1" d="M26,28.1h220c13.7,0,24.9,11.1,24.9,24.9v32.8c0,13.7-11.1,24.9-24.9,24.9H26c-13.7,0-24.9-11.1-24.9-24.9
				V52.9C1.1,39.2,12.2,28.1,26,28.1z"/>
			<path class="st2" d="M108.1,58.7c0,1.1,0.9,2.1,2.1,2.1l0,0h129.2c1.1,0.1,2.1-0.8,2.2-1.9c0.1-1.1-0.8-2.1-1.9-2.2
				c-0.1,0-0.2,0-0.3,0H110.2C109.1,56.6,108.1,57.6,108.1,58.7z"/>
			<path class="st2" d="M108.1,69.5c0,1.1,0.9,2.1,2.1,2.1l0,0h129.2c1.1,0.1,2.1-0.8,2.2-1.9c0.1-1.1-0.8-2.1-1.9-2.2
				c-0.1,0-0.2,0-0.3,0H110.2C109.1,67.4,108.1,68.4,108.1,69.5z"/>
			<path class="st2" d="M108.1,80.3c0,1.1,0.9,2.1,2.1,2.1l0,0h129.2c1.1,0.1,2.1-0.8,2.2-1.9c0.1-1.1-0.8-2.1-1.9-2.2
				c-0.1,0-0.2,0-0.3,0H110.2C109.1,78.2,108.1,79.2,108.1,80.3z"/>
			<path class="st4" d="M66,60.9c-4.9-14-20.2-21.3-34.1-16.4c-14,4.9-21.3,20.2-16.4,34.1c1,2.8,2.4,5.4,4.3,7.8
				c0.2,0.3,0.5,0.6,0.8,0.9l0.1,0.1c0.6,0.7,1.3,1.4,2,2.1l0.6,0.5c0.4,0.3,0.7,0.6,1.1,0.9c0.8,0.6,1.6,1.2,2.4,1.7l0,0
				c0.5,0.3,1.1,0.6,1.6,0.9l0.2,0.1c0.5,0.3,1,0.5,1.6,0.8l0.3,0.2l0,0c1.1,0.5,2.2,0.8,3.4,1.1c2.3,0.6,4.6,0.9,6.9,0.9
				c0.8,0,1.7,0,2.5-0.1c1.9-0.2,3.8-0.6,5.6-1.1l0,0c1.2-0.4,2.3-0.8,3.4-1.3l0,0c0.2-0.1,0.5-0.2,0.7-0.4l0.1-0.1l0.6-0.3
				c0.5-0.3,1-0.6,1.4-0.8c0.1-0.1,0.3-0.2,0.4-0.2c0.4-0.3,0.8-0.6,1.2-0.9l0.2-0.2C66.1,84,69.9,71.8,66,60.9z"/>
			<path class="st5" d="M54.7,89.7c-2.3-1.2-4.6-2.2-7.1-3l-0.3-3.4l-12.7-1.4L33,86.3L28.5,88c-0.2,0.1-0.3,0.1-0.5,0.2l0,0
				c-0.5,0.3-0.9,0.9-1,1.5c-0.1,0.3-0.1,0.6,0,0.9l0.2,1l1,0.6l0.2,0.1c0.5,0.3,1,0.5,1.6,0.8l0.3,0.2l0,0l0.8,0.3
				c0.8,0.3,1.7,0.6,2.6,0.8c2.3,0.6,4.6,0.9,6.9,0.9c0.9,0,1.7,0,2.5-0.1c1.9-0.2,3.8-0.5,5.6-1.1l0,0c1.2-0.4,2.3-0.8,3.4-1.3l0,0
				l0.7-0.4H53l0.6-0.3c0.5-0.3,0.9-0.5,1.4-0.8l0.4-0.2l0.5-0.4C55.7,90.2,55.2,90,54.7,89.7z"/>
			<path class="st5" d="M31,91.8l-0.8-3.6H28c-0.7,0.1-1.5,0.3-2.1,0.7c-0.4,0.3-0.8,0.6-1.1,1c0.6,0.5,1.3,0.9,1.9,1.3l0,0l0.6,0.3
				l1,0.6l0.2,0.1c0.5,0.3,1,0.5,1.6,0.8l0.3,0.2l0,0l0.8,0.3L31,91.8z"/>
			<circle class="st6" cx="40.5" cy="70.6" r="9.1"/>
			<path class="st7" d="M34.4,66.1c1.1,1,2.5,1.6,4,1.6c3.4,0.2,6.9-0.1,10.3-0.8c0.2,2-0.4,4.2,0.8,5.9c0.6-2,0.9-4.1,1-6.2
				c0.1-0.9,0-1.8-0.3-2.6C49.8,63,49,62.4,48,62.4c0.7-0.5,1.5-0.9,2.3-1L47.5,60l0.7-0.8L43,58.9l1.5-1c-2.3-0.3-4.6-0.4-6.9-0.2
				c-1.1,0-2.1,0.3-3.1,0.8c-0.9,0.6-1.3,1.8-0.8,2.8c-1.4,0.2-2.5,1.1-3.1,2.4c-0.3,1-0.4,2.1-0.2,3.1c0.2,1.7,0.6,3.3,1.1,4.9
				L34.4,66.1z"/>
		</g>
		<path class="st4" d="M64.2,153.4c-4.9-14-20.1-21.4-34.1-16.5c-14,4.9-21.4,20.1-16.5,34.1c1,2.8,2.4,5.5,4.3,7.9l0.7,0.9l0.1,0.1
			c0.6,0.7,1.3,1.4,2,2.1l0.6,0.5c0.4,0.3,0.7,0.6,1.1,0.9c0.8,0.6,1.5,1.2,2.4,1.7l0,0c0.5,0.3,1.1,0.6,1.6,0.9l0.2,0.1
			c0.5,0.3,1,0.5,1.6,0.8l0.3,0.1l0,0c1.1,0.5,2.2,0.8,3.4,1.1c2.3,0.6,4.6,0.9,6.9,0.9c0.9,0,1.7,0,2.5-0.1
			c1.9-0.2,3.8-0.5,5.6-1.1l0,0c1.1-0.4,2.3-0.8,3.4-1.3l0,0L51,186l0.1-0.1l0.6-0.3c0.5-0.3,0.9-0.5,1.4-0.8
			c0.1-0.1,0.3-0.2,0.4-0.2c0.4-0.3,0.9-0.6,1.2-0.9l0.2-0.2C64.2,176.5,67.9,164.4,64.2,153.4L64.2,153.4z"/>
		<circle class="st7" cx="47.7" cy="169.3" r="4"/>
		<path class="st7" d="M48.8,165.4c2.2,0,4,1.8,4,4c0,0.7-0.2,1.3-0.5,1.9c1.4-1.7,1.1-4.3-0.6-5.6c-1.7-1.4-4.3-1.1-5.6,0.6l0,0
			c-0.1,0.2-0.3,0.4-0.4,0.6C46.5,165.9,47.6,165.4,48.8,165.4L48.8,165.4z"/>
		<circle class="st7" cx="40.2" cy="157.5" r="11.8"/>
		<path class="st7" d="M30.9,150.1c4.2-4.7,11.5-5.3,16.4-1.2l-0.3-0.3c-4.9-4.3-12.3-3.9-16.7,0.9c-4.3,4.9-3.9,12.3,0.9,16.7
			l0.1,0.1l0.3,0.3C27,162.1,26.7,154.9,30.9,150.1L30.9,150.1z"/>
		<circle class="st8" cx="40.1" cy="161.6" r="7.6"/>
		<path class="st9" d="M53.7,181.4v2.6c-0.5,0.3-0.9,0.6-1.4,0.8l-0.6,0.3h-0.1l-0.7,0.4l0,0c-1.1,0.5-2.2,1-3.4,1.3l0,0
			c-1.8,0.6-3.7,1-5.6,1.1c-0.8,0.1-1.7,0.1-2.5,0.1c-3.5,0-7-0.7-10.3-2l0,0l-0.3-0.1c-0.5-0.2-1.1-0.5-1.6-0.8l-0.2-0.1
			c-0.6-0.3-1.1-0.6-1.6-0.9l0,0c-0.8-0.5-1.6-1.1-2.4-1.7c-0.4-0.3-0.8-0.6-1.1-0.9l-0.6-0.5c-0.7-0.6-1.4-1.3-2-2.1
			c0.1-0.5,0.2-1,0.4-1.5l0,0c0-0.1,0.1-0.2,0.1-0.2l0.1-0.2c0.9-1.6,2.4-2,4.4-2.1c1.1,0,2.3,0,3.6,0c0.7,0,1.4,0,2.1-0.1
			c4.4-0.4,3.6-3,3.8-4.4s1.4-0.2,1.5-0.1l0,0c2.5,1.2,5.3,1.6,8,1.4c0.5-0.1,0.9-0.1,1.4-0.1c1.2,0,1,0.3,0.5,0.6
			c-0.2,0.1-0.4,0.3-0.6,0.4c0,0-0.2,1.2-0.4,3s3.1,2.5,3.4,2.6l0,0c1.2-0.3,2.5-0.3,3.7,0.1l0,0C52.4,178.8,53.4,179.9,53.7,181.4z
			"/>
		<path class="st7" d="M29.1,184.4c0,0.4,0,0.7,0,1c0,0.2,0,0.4,0,0.6l0,0l-0.3-0.1c-0.5-0.2-1.1-0.5-1.6-0.8L27,185
			c-0.6-0.3-1.1-0.6-1.6-0.9c0-0.2,0-0.3,0.1-0.5c0-0.4,0.1-0.7,0.1-1.1c0.2-2.6-0.3-5.2-1.4-7.6l0,0c-0.1-0.2-0.2-0.3-0.2-0.3
			c1-0.7,2.4-0.7,3.4,0c0.1,0.1,0.2,0.2,0.3,0.3C28.8,176.3,29.2,181,29.1,184.4z"/>
		<path class="st7" d="M50.9,183.8c0,0.5-0.1,1.1-0.1,1.7l0,0c-1.1,0.5-2.2,1-3.4,1.3l0,0v-1.4v-0.2l-0.3-6.6c0-0.6,0.4-1.1,1-1.1
			h2.5c0.1,0,0.2,0.2,0.3,0.7l0,0C51.1,180.1,51.1,181.9,50.9,183.8z"/>
		<path class="st7" d="M33.6,152.1v7.6h1.8l2.2-2.4l-0.3,2.4H45l-0.5-2.4l1,2.4h1.2v-7.6H33.6z"/>
		<ellipse class="st8" cx="32.4" cy="160" rx="0.6" ry="1.1"/>
		<ellipse class="st8" cx="47.8" cy="160" rx="0.6" ry="1.1"/>
		<path class="st9" d="M55.3,182.8c-0.4,0.3-0.8,0.6-1.2,0.9l-0.4,0.2c-0.5,0.3-0.9,0.6-1.4,0.8l-0.6,0.3v-5.3c0,0,0.8,0.6,2,1.6
			l0.5,0.4C54.5,182.1,54.9,182.4,55.3,182.8z"/>
		<path class="st10" d="M51.6,276.9l-1.2-2c-1.1-2.4-4-3.6-6.4-2.5s-3.6,4-2.5,6.4l0.4,1.3l0.4,1.4c1.6-0.2,3.2-0.5,4.8-1l0,0
			c1.1-0.4,2.3-0.8,3.4-1.3l0,0l0.7-0.4l0.1-0.1l0.6-0.3c0.2-0.1,0.4-0.2,0.6-0.3L51.6,276.9z"/>
		<g class="st3">
			<path class="st1" d="M26,214.7h220c13.7,0,24.9,11.1,24.9,24.9v32.8c0,13.7-11.1,24.9-24.9,24.9H26c-13.7,0-24.9-11.1-24.9-24.9
				v-32.8C1.1,225.8,12.2,214.7,26,214.7z"/>
			<path class="st2" d="M106.1,244.2c0,1.1,0.9,2.1,2.1,2.1h0h129.2c1.1,0.1,2.1-0.8,2.2-1.9c0.1-1.1-0.8-2.1-1.9-2.2
				c-0.1,0-0.2,0-0.3,0H108.2C107.1,242.1,106.1,243,106.1,244.2L106.1,244.2z"/>
			<path class="st2" d="M106.1,255c0,1.1,0.9,2.1,2.1,2.1h0h129.2c1.1,0.1,2.1-0.8,2.2-1.9s-0.8-2.1-1.9-2.2c-0.1,0-0.2,0-0.3,0
				H108.2C107.1,252.9,106.1,253.8,106.1,255L106.1,255z"/>
			<path class="st2" d="M106.1,265.8c0,1.1,0.9,2.1,2.1,2.1h0h129.2c1.1,0.1,2.1-0.8,2.2-1.9s-0.8-2.1-1.9-2.2c-0.1,0-0.2,0-0.3,0
				H108.2C107.1,263.7,106.1,264.6,106.1,265.8L106.1,265.8z"/>
			<path class="st4" d="M64.2,247.6c-4.9-14-20.1-21.4-34.1-16.5s-21.4,20.1-16.5,34.1c1,2.8,2.4,5.5,4.3,7.9
				c0.2,0.3,0.5,0.6,0.7,0.9l0.1,0.1c0.6,0.7,1.3,1.4,2,2.1c0.2,0.2,0.4,0.3,0.6,0.5c0.4,0.3,0.7,0.6,1.1,0.9
				c0.8,0.6,1.6,1.2,2.4,1.7l0,0c0.5,0.3,1.1,0.6,1.6,0.9l0.2,0.1c0.5,0.3,1,0.5,1.6,0.8l0.3,0.1l0,0c1.1,0.5,2.2,0.8,3.4,1.1
				c2.3,0.6,4.6,0.9,6.9,0.9c0.8,0,1.7,0,2.5-0.1c1.9-0.2,3.8-0.6,5.6-1.1l0,0c1.1-0.4,2.3-0.8,3.4-1.3l0,0l0.7-0.4l0.1-0.1l0.6-0.3
				c0.5-0.3,0.9-0.5,1.4-0.8c0.1-0.1,0.2-0.2,0.4-0.2c0.4-0.3,0.8-0.6,1.2-0.9l0.2-0.2C64.2,270.7,67.9,258.5,64.2,247.6L64.2,247.6
				z"/>
			<circle class="st7" cx="39" cy="256.5" r="10.5"/>
			
				<ellipse transform="matrix(0.7071 -0.7071 0.7071 0.7071 -167.4003 92.9742)" class="st7" cx="28.5" cy="248.6" rx="4.3" ry="3.3"/>
			
				<ellipse transform="matrix(0.3928 -0.9196 0.9196 0.3928 -198.1536 191.5275)" class="st7" cx="46" cy="245.8" rx="3.3" ry="4.3"/>
			<circle class="st11" cx="39.4" cy="259" r="8.9"/>
			<path class="st10" d="M52.2,276.5c-1-1.6-2.2-3.1-3.6-4.4c-1-0.9-2.2-1.4-3.5-1.3H32.5c-2.9,0-5.3,2.4-5.3,5.3c0,0.1,0,0.2,0,0.3
				c0,0.4,0.1,0.8,0.2,1.2c0.1,0.3,0.2,0.6,0.3,0.8l0.6,1.2l0.1,0.1l0,0c0.2,0.1,0.5,0.2,0.8,0.3c0.8,0.3,1.7,0.6,2.6,0.8
				c1.4,0.4,2.9,0.6,4.3,0.8c0.9,0.1,1.7,0.1,2.6,0.1s1.7,0,2.5-0.1l0.8-0.1c1.6-0.2,3.2-0.5,4.8-1l0,0c1.1-0.4,2.3-0.8,3.4-1.3l0,0
				l0.7-0.4l0.1-0.1l0.6-0.3c0.2-0.1,0.4-0.2,0.6-0.3c0.2-0.1,0.4-0.2,0.6-0.3C52.7,277.3,52.5,276.9,52.2,276.5z"/>
			<path class="st10" d="M34.8,272.4c-2.4-1.1-5.3-0.1-6.4,2.3l-1.1,1.7l-0.5,0.8l-0.8,1.2l0.5,0.3l0.2,0.1c0.5,0.3,1,0.5,1.6,0.8
				l0.2,0.1l0.1,0.1l0,0c0.2,0.1,0.5,0.2,0.8,0.3c0.8,0.3,1.7,0.6,2.6,0.8c1.4,0.4,2.9,0.6,4.3,0.8l0.4-1.4l0.4-1.4
				C38.2,276.4,37.2,273.5,34.8,272.4z"/>
			<path class="st7" d="M30,253.4c2,1.4,4.4,2.2,6.9,2.1c-0.9,0.6-1.9,1-2.9,1.2c3.3,0.7,6.7,0.7,10,0.1c0.7-0.1,1.4-0.4,2.1-0.7
				c0.7-0.4,1.1-1,1.3-1.7c0.2-1.2-0.8-2.4-1.8-3.1c-3.1-2.4-7.2-3.2-11-2.2c-1.2,0.3-2.4,0.9-3.2,1.8c-0.9,1-1,2.4-0.3,3.5
				L30,253.4z"/>
		</g>
	</g>
</g>
</svg>
