<svg id="Layer_1" data-name="Layer 1" xmlns="http://www.w3.org/2000/svg" viewBox="0 0 512 512"><defs><style>.cls-1{fill:none;}.cls-2{fill:#fff;}.cls-3{fill:#daa628;}.cls-4{fill:#f2b700;}.cls-5{fill:#dbdddd;}.cls-6{fill:#ed448a;}.cls-7{fill:#d4127f;}</style></defs><title>Srv-Flat</title><rect class="cls-1" x="249.63" y="252.7" width="12.75" height="7.17" /><rect class="cls-2" x="191.46" y="243.07" width="129.08" height="26.45" /><path class="cls-3" d="M420.4,91.62,91.59,420.42a232.66,232.66,0,0,0,48.56,37.2V415h216.9v50.42a231.9,231.9,0,0,0,63.34-45C511.2,329.64,511.2,182.42,420.4,91.62Z" /><path class="cls-2" d="M140.16,415v42.63a232.92,232.92,0,0,0,216.9,7.79V415Z" /><path class="cls-4" d="M91.59,420.42C.8,329.61.8,182.42,91.59,91.63s238-90.8,328.81,0" /><rect class="cls-5" x="181.52" y="81.23" width="138.13" height="308.67" /><rect class="cls-1" x="243.6" y="339.19" width="15.4" height="8.66" /><rect class="cls-1" x="243.6" y="321.23" width="15.4" height="9" /><rect class="cls-2" x="169.8" y="63.26" width="71.24" height="246.4" /><rect class="cls-2" x="172.37" y="331.55" width="155.94" height="31.96" /><rect class="cls-2" x="173.33" y="389.91" width="155.94" height="31.96" /><rect class="cls-2" x="260.1" y="62.62" width="69.3" height="247.26" /><path class="cls-6" d="M281.13,141.51a18.62,18.62,0,0,1,26.34-26.33" /><path class="cls-7" d="M307.47,115.17a18.62,18.62,0,1,1-26.34,26.33" /></svg>