<?xml version="1.0" encoding="utf-8"?>
<!-- Generator: Adobe Illustrator 24.3.0, SVG Export Plug-In . SVG Version: 6.00 Build 0)  -->
<svg version="1.1" id="b788e214-8c62-4533-b5b0-3b3e1bf4c8d8"
	 xmlns="http://www.w3.org/2000/svg" xmlns:xlink="http://www.w3.org/1999/xlink" x="0px" y="0px" viewBox="0 0 1161.5 792.3"
	 style="enable-background:new 0 0 1161.5 792.3;" xml:space="preserve">
<style type="text/css">
	.st0{opacity:0.7;fill:#3F3D56;}
	.st1{opacity:0.7;fill:#F2F6F6;}
	.st2{opacity:0.7;fill:#6C63FF;}
	.st3{opacity:0.7;fill:#E6E6E6;}
	.st4{opacity:0.7;fill:#CCCCCC;}
	.st5{opacity:0.7;fill:#F2B700;stroke:#3A3A75;stroke-width:13;stroke-miterlimit:10;}
	.st6{fill:#FFB8B8;}
	.st7{fill:#6C63FF;}
	.st8{fill:#2F2E41;}
	.st9{fill:#D0CDE1;}
	.st10{opacity:0.7;fill:#F2B700;}
	.st11{opacity:0.7;fill:#D0CDE1;}
</style>
<path class="st0" d="M565.4,39.7H564v-2.4h1c0.4,0,0.7-0.3,0.7-0.7V24.6c0-0.4-0.3-0.7-0.7-0.7h-1V17c0-8.1-6.6-14.7-14.7-14.7
	c0,0,0,0,0,0h-1.5V0.7c0-0.4-0.3-0.7-0.7-0.7h-12.1c-0.4,0-0.7,0.3-0.7,0.7v1.7H315.6c-8.1,0-14.7,6.6-14.7,14.7c0,0,0,0,0,0v311.8
	c0,8.1,6.6,14.7,14.7,14.7c0,0,0,0,0,0h233.8c8.1,0,14.7-6.6,14.7-14.7c0,0,0,0,0,0V53.2h1.3c0.4,0,0.7-0.3,0.7-0.7V40.4
	C566.1,40,565.8,39.7,565.4,39.7L565.4,39.7z"/>
<rect x="313.1" y="11.9" class="st1" width="240.9" height="319.6"/>
<path class="st0" d="M839.9,380.6H631.2v-4.3h-94.6v4.3H327c-7.8,0-14.1,6.3-14.1,14.1v0v285.8c0,7.8,6.3,14.1,14.1,14.1h512.9
	c7.8,0,14.1-6.3,14.1-14.1V394.7C854,386.9,847.7,380.6,839.9,380.6z"/>
<rect x="331.8" y="405.5" class="st1" width="503.3" height="283.9"/>
<circle class="st2" cx="583" cy="392.6" r="5.2"/>
<path class="st0" d="M868.2,684.3H819v-3.5c0-0.4-0.3-0.7-0.7-0.7l0,0h-16.8c-0.4,0-0.7,0.3-0.7,0.7l0,0v3.5h-10.5v-3.5
	c0-0.4-0.3-0.7-0.7-0.7l0,0h-16.8c-0.4,0-0.7,0.3-0.7,0.7l0,0v3.5h-10.5v-3.5c0-0.4-0.3-0.7-0.7-0.7l0,0H744c-0.4,0-0.7,0.3-0.7,0.7
	l0,0v3.5h-10.5v-3.5c0-0.4-0.3-0.7-0.7-0.7l0,0h-16.8c-0.4,0-0.7,0.3-0.7,0.7l0,0v3.5H704v-3.5c0-0.4-0.3-0.7-0.7-0.7l0,0h-16.8
	c-0.4,0-0.7,0.3-0.7,0.7l0,0v3.5h-10.5v-3.5c0-0.4-0.3-0.7-0.7-0.7l0,0h-16.8c-0.4,0-0.7,0.3-0.7,0.7l0,0v3.5h-10.5v-3.5
	c0-0.4-0.3-0.7-0.7-0.7l0,0H513.8c-0.4,0-0.7,0.3-0.7,0.7l0,0v3.5h-10.5v-3.5c0-0.4-0.3-0.7-0.7-0.7l0,0H485c-0.4,0-0.7,0.3-0.7,0.7
	v0v3.5h-10.5v-3.5c0-0.4-0.3-0.7-0.7-0.7h0h-16.8c-0.4,0-0.7,0.3-0.7,0.7l0,0v3.5H445v-3.5c0-0.4-0.3-0.7-0.7-0.7c0,0,0,0,0,0h-16.8
	c-0.4,0-0.7,0.3-0.7,0.7l0,0v3.5h-10.5v-3.5c0-0.4-0.3-0.7-0.7-0.7c0,0,0,0,0,0h-16.8c-0.4,0-0.7,0.3-0.7,0.7l0,0v3.5h-10.5v-3.5
	c0-0.4-0.3-0.7-0.7-0.7c0,0,0,0,0,0h-16.8c-0.4,0-0.7,0.3-0.7,0.7l0,0v3.5h-10.5v-3.5c0-0.4-0.3-0.7-0.7-0.7c0,0,0,0,0,0h-16.8
	c-0.4,0-0.7,0.3-0.7,0.7v0v3.5h-32.3c-9.3,0-16.8,7.5-16.8,16.8v7.6c0,9.3,7.5,16.8,16.8,16.8h560c9.3,0,16.8-7.5,16.8-16.8v-7.6
	C885,691.8,877.5,684.3,868.2,684.3C868.2,684.3,868.2,684.3,868.2,684.3z"/>
<rect x="534.8" y="427.8" class="st3" width="141.2" height="5.2"/>
<rect x="534.8" y="444.4" class="st3" width="141.2" height="5.2"/>
<rect x="534.8" y="461" class="st3" width="141.2" height="5.2"/>
<rect x="534.8" y="427.8" class="st4" width="141.2" height="5.2"/>
<rect x="534.8" y="444.4" class="st4" width="141.2" height="5.2"/>
<rect x="534.8" y="461" class="st4" width="141.2" height="5.2"/>
<rect x="490" y="431" class="st4" width="32" height="32"/>
<rect x="534.8" y="614.8" class="st4" width="141.2" height="5.2"/>
<rect x="534.8" y="631.4" class="st4" width="141.2" height="5.2"/>
<rect x="534.8" y="648" class="st4" width="141.2" height="5.2"/>
<rect x="490" y="618" class="st4" width="32" height="32"/>
<path class="st5" d="M137.5,255c23.5-25.6,55.2-42.3,89.6-47.3l-14.7-13.3l16.3-0.8l20.2,18.2l-18.2,20.2l-16.3,0.8l12.2-13.5
	c-76.3,12.3-128.2,84.2-115.9,160.5c10.9,67.8,69.5,117.7,138.2,117.7v11.3c-83.6,0-151.3-67.8-151.3-151.3
	C97.5,319.5,111.8,282.9,137.5,255z"/>
<rect x="385.3" y="27.8" class="st4" width="141.2" height="5.2"/>
<rect x="385.3" y="44.4" class="st4" width="141.2" height="5.2"/>
<rect x="385.3" y="61" class="st4" width="141.2" height="5.2"/>
<rect x="340.5" y="31" class="st4" width="32" height="32"/>
<rect x="384.8" y="276.8" class="st4" width="141.2" height="5.2"/>
<rect x="384.8" y="293.4" class="st4" width="141.2" height="5.2"/>
<rect x="384.8" y="310" class="st4" width="141.2" height="5.2"/>
<rect x="340" y="280" class="st4" width="32" height="32"/>
<path class="st6" d="M966.5,327.9l31.9-46.3c0,0,27.8-22.3,19.8-26.6c-8-4.3-28.8,16-28.8,16s-60.1,46.1-50.2,52.5
	S966.5,327.9,966.5,327.9z"/>
<path class="st7" d="M971.2,267.1h41.3c2.8-16.3,2.8-33,0-49.2h-41.3C975.8,234,975.8,251,971.2,267.1z"/>
<path class="st8" d="M1078.6,269.5c-12.4-21-37-22-37-22s-23.9-3.1-39.3,28.9c-14.3,29.8-34.1,58.5-3.2,65.5l5.6-17.4l3.5,18.7
	c4.4,0.3,8.8,0.4,13.2,0.2c33.1-1.1,64.6,0.3,63.5-11.6C1083.6,316.1,1090.5,289.6,1078.6,269.5z"/>
<path class="st6" d="M1012.6,398.7l-15.9,36.6l55.7,8.7c0,0,26.2-35.8,28.6-38.2L1012.6,398.7z"/>
<ellipse transform="matrix(0.1602 -0.9871 0.9871 0.1602 586.3135 1268.7787)" class="st6" cx="1038.8" cy="289.8" rx="29.4" ry="29.4"/>
<path class="st6" d="M1031.6,311.3c0,0,13.5,30.2,11.9,33.4s28.6-16.7,28.6-16.7s-12.7-21.5-11.9-24.6L1031.6,311.3z"/>
<path class="st6" d="M1076.2,324c0,0,23.9-13.5,37.4,23.9c0,0,44.5,52.5,36.6,62s-38.2-23.1-38.2-23.1l-19.1-19.9
	c0,0-27-7.2-24.6-22.3S1076.2,324,1076.2,324z"/>
<path class="st6" d="M1020.5,342.3l-55.7-15.9c0,0-29.4-11.9-28.6-4.8s54.1,47.7,71.6,45.3C1025.3,364.6,1020.5,342.3,1020.5,342.3z
	"/>
<path class="st9" d="M1052.3,336.7c0,0-18.3-2.4-22.3,1.6s-11.5,0.4-11.5,0.4l-12.7,23.1c0,0-9.1,13.1-2,25.8s-3.2,29.4-3.2,29.4
	s57.2,0,69.2,6.4s26.3-53.1,26.3-53.1s-14.8-18.1-10.8-29.2s1.6-19.9,1.6-19.9l-17.5,1.6L1052.3,336.7z"/>
<polygon class="st6" points="983.9,688.1 990.3,749.3 1014.9,736.6 1007,683.4 "/>
<polygon class="st6" points="1077,687.3 1097.6,742.7 1117.5,728.4 1092.9,674.6 "/>
<path class="st8" d="M1014.9,715.9c-1.3,4.5-3.1,8.8-5.6,12.7c-4,6.4-13.5,3.2-13.5,3.2s-11.1-8.7-13.5-4.8s-15.1,23.9-15.1,23.9
	s-42.1,35-6.4,40.5s42.9-20.7,42.9-20.7s27-9.5,27.8-19.1S1014.9,715.9,1014.9,715.9z"/>
<path class="st8" d="M1098.4,727.5c0,0-12.7-4-11.9,2.4s5.6,31.8,5.6,31.8s-8.7,35.8,15.9,29.4s25.4-40.5,25.4-40.5
	s12.7-45.3,3.2-46.1s-32.6-3.2-32.6-3.2S1118.3,724.4,1098.4,727.5z"/>
<polygon class="st8" points="1073.1,267.4 1048.8,254.7 1015.3,259.9 1008.4,290.5 1025.6,289.9 1030.4,278.6 1030.4,289.7 
	1038.4,289.4 1043,271.5 1045.9,290.5 1074.2,290 "/>
<path class="st8" d="M1061.1,441.7l-66.8-15.1c0,0-33.4,57.2-38.2,104.9s-26.2,162.2,8,163.8s54.1,1.6,55.7-1.6
	S1003,564.9,1003,564.9s39,154.2,60.4,143.9s45.3-23.9,44.5-31.8s-52.5-92.2-52.5-92.2l7.2-73.1c0,0,8.7-29.4-6.4-56.4L1061.1,441.7
	z"/>
<path class="st7" d="M1012.9,421.8h41.3c2.8-16.3,2.8-33,0-49.2h-41.3C1017.6,388.6,1017.6,405.7,1012.9,421.8z"/>
<path class="st6" d="M1133.4,386l-70-1.6c0,0-31-23.9-31.8-9.5s32.6,22.3,32.6,22.3s71.8,25.8,82.8,14.5L1133.4,386z"/>
<circle class="st2" cx="375.9" cy="174" r="23.9"/>
<circle class="st2" cx="439.5" cy="174" r="19.5"/>
<circle class="st2" cx="503.1" cy="174" r="11.9"/>
<circle class="st10" cx="583" cy="538" r="56"/>
<polygon class="st11" points="603.8,550.3 582.9,508.2 562.2,550.4 573.9,550.4 573.9,567.9 592.1,567.9 592.1,550.4 "/>
</svg>
